<svg xmlns="http://www.w3.org/2000/svg" viewBox="0 0 50 12.92"><defs><style>.cls-1{isolation:isolate;}.cls-2{opacity:0.1;mix-blend-mode:multiply;}.cls-3{fill:#ffd800;}.cls-4{opacity:0.4;mix-blend-mode:overlay;}.cls-5{fill:#fff;}.cls-6{fill:#af9561;}.cls-7{fill:#969696;}.cls-8{fill:#b3b3b3;}</style></defs><g class="cls-1"><g id="Ebene_2" data-name="Ebene 2"><g id="Ebene_23" data-name="Ebene 23"><g class="cls-2"><polygon points="50 10.09 14.15 12.08 0.51 5.25 36.36 3.25 50 10.09"/><polygon points="29.76 11.21 29.82 11.21 40.11 5.14 40.09 5.12 29.76 11.21"/><polygon points="28.9 11.26 28.96 11.26 39.69 4.92 39.66 4.91 28.9 11.26"/><polygon points="30.62 11.16 30.68 11.16 40.53 5.35 40.51 5.33 30.62 11.16"/><polygon points="28.05 11.31 28.1 11.3 39.27 4.71 39.24 4.7 28.05 11.31"/><polygon points="31.48 11.12 31.54 11.11 40.95 5.56 40.93 5.54 31.48 11.12"/><polygon points="34.11 10.97 42.22 6.19 42.19 6.17 34.05 10.97 34.11 10.97"/><polygon points="33.2 11.02 33.26 11.02 41.8 5.98 41.77 5.96 33.2 11.02"/><polygon points="32.34 11.07 32.4 11.06 41.38 5.77 41.35 5.75 32.34 11.07"/><polygon points="7.05 4.88 3.72 6.85 3.75 6.87 7.11 4.88 7.05 4.88"/><polygon points="14.78 4.45 7.5 8.75 7.53 8.76 14.84 4.45 14.78 4.45"/><polygon points="0.77 5.38 0.8 5.39 1.1 5.21 1.05 5.22 0.77 5.38"/><polygon points="3.3 6.64 3.32 6.66 6.25 4.93 6.2 4.93 3.3 6.64"/><polygon points="1.61 5.8 1.64 5.81 2.82 5.12 2.76 5.12 1.61 5.8"/><polygon points="7.97 4.83 7.91 4.83 4.14 7.06 4.17 7.08 7.97 4.83"/><polygon points="1.19 5.59 1.22 5.6 1.96 5.17 1.91 5.17 1.19 5.59"/><polygon points="2.88 6.43 2.9 6.45 5.4 4.97 5.34 4.98 2.88 6.43"/><polygon points="2.45 6.22 2.48 6.24 4.54 5.02 4.48 5.03 2.45 6.22"/><polygon points="2.03 6.01 2.06 6.02 3.68 5.07 3.62 5.07 2.03 6.01"/><polygon points="7.08 8.54 7.11 8.55 13.98 4.5 13.92 4.5 7.08 8.54"/><polygon points="45.22 10.35 45.27 10.35 47.68 8.93 47.66 8.91 45.22 10.35"/><polygon points="44.36 10.4 44.41 10.4 47.26 8.71 47.23 8.7 44.36 10.4"/><polygon points="46.13 10.3 48.1 9.14 48.08 9.12 46.07 10.3 46.13 10.3"/><polygon points="43.5 10.45 43.56 10.44 46.84 8.51 46.81 8.49 43.5 10.45"/><polygon points="49.51 10.11 49.56 10.11 49.79 9.98 49.76 9.96 49.51 10.11"/><polygon points="48.65 10.16 48.71 10.16 49.37 9.77 49.34 9.75 48.65 10.16"/><polygon points="42.64 10.49 42.7 10.49 46.42 8.29 46.39 8.28 42.64 10.49"/><polygon points="47.85 10.21 48.95 9.56 48.92 9.54 47.79 10.21 47.85 10.21"/><polygon points="46.93 10.26 46.99 10.25 48.52 9.35 48.5 9.33 46.93 10.26"/><polygon points="38.35 10.73 38.41 10.73 44.32 7.24 44.29 7.23 38.35 10.73"/><polygon points="34.91 10.92 34.97 10.92 42.64 6.4 42.61 6.38 34.91 10.92"/><polygon points="36.63 10.83 36.69 10.82 43.48 6.82 43.45 6.81 36.63 10.83"/><polygon points="37.55 10.78 43.9 7.03 43.87 7.02 37.49 10.78 37.55 10.78"/><polygon points="35.77 10.88 35.83 10.87 43.06 6.61 43.03 6.59 35.77 10.88"/><polygon points="39.21 10.69 39.26 10.68 44.74 7.45 44.71 7.44 39.21 10.69"/><polygon points="40.92 10.59 40.98 10.59 45.58 7.87 45.55 7.86 40.92 10.59"/><polygon points="40.12 10.63 45.16 7.66 45.13 7.65 40.06 10.64 40.12 10.63"/><polygon points="41.84 10.54 46 8.08 45.97 8.07 41.78 10.54 41.84 10.54"/><polygon points="10.87 10.43 10.89 10.45 21.71 4.07 21.65 4.07 10.87 10.43"/><polygon points="32.01 3.5 31.95 3.5 17.75 11.88 17.8 11.88 32.01 3.5"/><polygon points="31.15 3.54 31.09 3.55 16.89 11.93 16.94 11.92 31.15 3.54"/><polygon points="32.87 3.45 32.81 3.45 18.6 11.83 18.66 11.83 32.87 3.45"/><polygon points="33.73 3.4 33.67 3.4 19.46 11.78 19.52 11.78 33.73 3.4"/><polygon points="28.57 3.69 28.52 3.69 14.31 12.07 14.37 12.07 28.57 3.69"/><polygon points="34.58 3.35 34.52 3.36 20.32 11.73 20.38 11.73 34.58 3.35"/><polygon points="27.72 3.73 27.66 3.74 13.81 11.91 13.84 11.92 27.72 3.73"/><polygon points="29.43 3.64 29.38 3.64 15.17 12.02 15.23 12.02 29.43 3.64"/><polygon points="30.29 3.59 30.23 3.59 16.03 11.97 16.09 11.97 30.29 3.59"/><polygon points="38.01 4.08 37.98 4.07 25.47 11.45 25.53 11.45 38.01 4.08"/><polygon points="37.59 3.87 37.56 3.86 24.61 11.5 24.67 11.49 37.59 3.87"/><polygon points="26.86 3.78 26.8 3.79 13.39 11.7 13.42 11.71 26.86 3.78"/><polygon points="38.43 4.29 38.4 4.28 26.33 11.4 26.39 11.4 38.43 4.29"/><polygon points="38.85 4.5 38.82 4.49 27.19 11.35 27.25 11.35 38.85 4.5"/><polygon points="36.75 3.45 36.72 3.44 22.89 11.59 22.95 11.59 36.75 3.45"/><polygon points="36.3 3.26 36.24 3.26 22.04 11.64 22.09 11.64 36.3 3.26"/><polygon points="35.44 3.31 35.38 3.31 21.18 11.69 21.24 11.68 35.44 3.31"/><polygon points="37.17 3.66 37.14 3.65 23.75 11.54 23.81 11.54 37.17 3.66"/><polygon points="9.18 9.59 9.21 9.6 18.27 4.26 18.21 4.26 9.18 9.59"/><polygon points="15.7 4.4 15.64 4.41 7.92 8.96 7.95 8.97 15.7 4.4"/><polygon points="4.56 7.27 4.59 7.29 8.83 4.78 8.77 4.79 4.56 7.27"/><polygon points="17.41 4.31 17.36 4.31 8.76 9.38 8.79 9.39 17.41 4.31"/><polygon points="4.98 7.48 5.01 7.5 9.69 4.74 9.63 4.74 4.98 7.48"/><polygon points="16.5 4.36 8.34 9.17 8.37 9.18 16.56 4.36 16.5 4.36"/><polygon points="26 3.83 25.94 3.83 12.97 11.48 13 11.5 26 3.83"/><polygon points="5.82 7.91 5.85 7.92 11.41 4.64 11.35 4.64 5.82 7.91"/><polygon points="5.4 7.7 5.43 7.71 10.55 4.69 10.49 4.69 5.4 7.7"/><polygon points="6.24 8.12 6.27 8.13 12.26 4.59 12.21 4.6 6.24 8.12"/><polygon points="11.71 10.85 11.74 10.87 23.42 3.97 23.37 3.98 11.71 10.85"/><polygon points="25.08 3.88 12.55 11.27 12.58 11.29 25.14 3.88 25.08 3.88"/><polygon points="12.13 11.06 12.16 11.08 24.28 3.92 24.22 3.93 12.13 11.06"/><polygon points="11.29 10.64 11.31 10.66 22.57 4.02 22.51 4.02 11.29 10.64"/><polygon points="6.66 8.33 6.69 8.34 13.12 4.54 13.06 4.55 6.66 8.33"/><polygon points="9.6 9.8 9.63 9.81 19.13 4.21 19.07 4.21 9.6 9.8"/><polygon points="19.93 4.17 10.03 10.01 10.05 10.03 19.99 4.16 19.93 4.17"/><polygon points="20.85 4.12 20.79 4.12 10.45 10.22 10.47 10.24 20.85 4.12"/><path d="M46.29,9.48,15,11.22,4.22,5.85,35.55,4.11ZM15,11.17l31-1.73L35.5,4.16l-31,1.73Z"/><polygon points="30.65 10.33 30.5 10.33 19.92 5.04 20.07 5.03 30.65 10.33"/><path d="M17.33,10.55l-3.28.18L14,10.68l3.28-.18c3.42-.19,4.26-1.31,1.87-2.51A24.85,24.85,0,0,0,8.58,6.17L5.3,6.35l-.09,0,3.28-.18A25.58,25.58,0,0,1,19.26,8C21.7,9.2,20.83,10.35,17.33,10.55Z"/><path d="M26.73,8.4a9,9,0,0,1-3.79-.61c-.81-.4-.43-.79.84-.86a9,9,0,0,1,3.79.61C28.38,7.94,28,8.33,26.73,8.4ZM23.88,7c-1.2.06-1.55.43-.79.81a8.57,8.57,0,0,0,3.54.57c1.2-.07,1.55-.43.79-.81A8.41,8.41,0,0,0,23.88,7Z"/><path d="M17.78,8.9l-.71,0L17,8.78c.21,0,.42,0,.62,0Zm-1.26-.07-.73-.11.1-.08.64.1Zm-1.24-.22c-.22,0-.42-.11-.6-.17l.24,0,.52.15Zm-1-.32,0,0A1.36,1.36,0,0,1,14,8.09h.33a1.09,1.09,0,0,0,.25.15l0,0ZM14.22,8l-.35,0a.21.21,0,0,1,0-.19l.34,0A.2.2,0,0,0,14.22,8Zm.13-.27L14,7.63a1.62,1.62,0,0,1,.34-.13l.29.08A1.24,1.24,0,0,0,14.35,7.7ZM15,7.52l-.25-.09.26,0,.21.09Z"/><path d="M18.15,8.88h-.08L15.13,7.41h.07A9,9,0,0,1,19,8C19.8,8.42,19.42,8.81,18.15,8.88ZM15.37,7.45l2.76,1.38c1.13-.08,1.45-.43.71-.81A8.5,8.5,0,0,0,15.37,7.45Z"/><polygon points="15.28 7.45 7.48 7.45 7.41 7.4 15.22 7.41 15.28 7.45"/><polygon points="11.94 9.66 11.82 9.62 18.04 8.83 18.16 8.88 11.94 9.66"/><path d="M45.24,9,42,9.18A25.58,25.58,0,0,1,31.19,7.32C28.75,6.1,29.61,5,33.11,4.75l3.28-.18.1,0-3.28.18C29.79,5,29,6.12,31.33,7.31A24.88,24.88,0,0,0,41.86,9.13L45.15,9Z"/><path d="M35.66,7.9l-.23-.09a3.51,3.51,0,0,0,.43-.07l.29.07A2.87,2.87,0,0,1,35.66,7.9Zm.76-.18-.32-.07a.41.41,0,0,0,.17-.14l.34,0A.45.45,0,0,1,36.42,7.72Zm.21-.3-.35,0a.33.33,0,0,0-.12-.17h.32A.36.36,0,0,1,36.63,7.42Zm-.38-.35-.3,0,0,0a2.31,2.31,0,0,0-.38-.15l.24,0a2.57,2.57,0,0,1,.43.17ZM35.16,6.8c-.18,0-.38-.09-.59-.13l.1-.07a6,6,0,0,1,.67.15Zm-1.07-.2c-.22,0-.43,0-.65-.06l-.06-.09a6,6,0,0,1,.74.07ZM33,6.52H32.7l-.16-.09h.31Z"/><path d="M35.38,7.92H35.3a9.15,9.15,0,0,1-3.78-.61c-.81-.41-.43-.8.84-.87h.07Zm-3-1.42c-1.13.08-1.46.44-.71.81a8.33,8.33,0,0,0,3.47.57Z"/><polygon points="32.47 6.5 32.35 6.45 38.57 5.67 38.69 5.71 32.47 6.5"/><polygon points="43.1 7.93 35.29 7.93 35.23 7.88 43.03 7.88 43.1 7.93"/><polygon points="14.15 9.48 14.01 9.49 13.81 9.39 13.96 9.38 14.15 9.48"/><polygon points="15.09 9.37 14.94 9.38 14.74 9.28 14.89 9.27 15.09 9.37"/><polygon points="16.02 9.25 15.88 9.26 15.68 9.16 15.82 9.15 16.02 9.25"/><polygon points="10.04 7.42 9.89 7.43 9.69 7.33 9.84 7.32 10.04 7.42"/><polygon points="11.19 7.42 11.05 7.43 10.85 7.33 10.99 7.32 11.19 7.42"/><polygon points="12.38 7.42 12.24 7.43 12.04 7.33 12.19 7.33 12.38 7.42"/><polygon points="0.51 6.05 14.44 12.93 50 10.95 50 10.09 14.15 12.08 0.51 5.25 0.51 6.05"/><path d="M41.43,4V6.67h.12V2.82l-.06-.07H40.33v.07l0,0Zm0-1.12v.94l-.94-.94Z"/><polygon points="38.65 1.08 38.65 3.01 41.69 4.58 41.69 2.56 38.65 1.08"/><path d="M41.73,4.64,38.61,3V1l3.12,1.52ZM38.69,3l3,1.53V2.59l-3-1.45Z"/><polygon points="40.75 4.06 40.67 4.06 40.68 3.25 39.53 2.72 39.52 3.47 39.44 3.47 39.45 2.6 40.76 3.19 40.75 4.06"/><path d="M39,3.91v0l0,0a3.1,3.1,0,0,1,.1.67h0a2,2,0,0,0,0-.26l.14,0a2.16,2.16,0,0,1,0,.27h0a2.06,2.06,0,0,0,0-.26.62.62,0,0,0,.19,0v.29h0V4.45h.19c0,.14,0,.24,0,.25h0s0-.11,0-.27l.13,0c0,.14,0,.24,0,.25h0a2.75,2.75,0,0,1,0-.29.08.08,0,0,0,0,0,0,0,0,0,0,0,0A1.4,1.4,0,0,1,40.06,4s0,0,0-.06,0,0,0,0a.71.71,0,0,1,.18-.32l0,0a.82.82,0,0,0-.19.32.34.34,0,0,0-.12,0,1.76,1.76,0,0,1,.18-.39l0,0a1.48,1.48,0,0,0-.19.4,1.51,1.51,0,0,0-.32,0v-.4h0v.4a1.58,1.58,0,0,0-.32,0,1.24,1.24,0,0,0-.19-.4l0,0a1.27,1.27,0,0,1,.18.39.38.38,0,0,0-.11.05.77.77,0,0,0-.2-.33l0,0A.79.79,0,0,1,39,3.91Zm.08.1a.4.4,0,0,0,.13,0l0,.14a.34.34,0,0,0-.12.06A2,2,0,0,0,39.1,4Zm.47.07.25,0a.5.5,0,0,1,0,.12.86.86,0,0,0-.23,0Zm0,.08-.23,0a.5.5,0,0,0,0-.12l.25,0Zm-.35-.3a1,1,0,0,1,0,.14.27.27,0,0,1-.14,0v0S39.12,3.88,39.18,3.86Zm.35,0V4a1.7,1.7,0,0,1-.26,0s0-.1,0-.16A1.21,1.21,0,0,1,39.53,3.82Zm.35,0s0,.11-.05.17l-.26,0V3.82A1.3,1.3,0,0,1,39.88,3.85Zm.16,0A.14.14,0,0,0,40,4l-.14,0s0-.1,0-.15ZM40,4a1.6,1.6,0,0,0,0,.21l-.12,0,0-.14Zm-.2.37,0-.16a.33.33,0,0,1,.12,0v.06A.32.32,0,0,1,39.81,4.39Zm-.24,0V4.19a1.17,1.17,0,0,1,.22,0,1.1,1.1,0,0,0,0,.18Zm-.23,0,0-.18.22,0v.21Zm-.19-.08v0a.2.2,0,0,1,.12-.07s0,.11,0,.16A.29.29,0,0,1,39.15,4.32Z"/><path d="M39.55,3.42a1.24,1.24,0,0,1,.72.14,1.39,1.39,0,0,1-.72.13,1.34,1.34,0,0,1-.71-.13,1.2,1.2,0,0,1,.71-.14m0-.09c-.44,0-.8.1-.8.23s.36.22.8.22.81-.1.81-.22-.36-.23-.81-.23Z"/><polygon points="10.61 6.27 10.53 6.26 10.54 5.45 9.38 4.92 9.38 5.68 9.3 5.68 9.3 4.8 10.61 5.4 10.61 6.27"/><path d="M11.36,5.78l0,0a.7.7,0,0,0-.19.33A.33.33,0,0,0,11,6a1.29,1.29,0,0,1,.19-.39l0,0A1.55,1.55,0,0,0,11,6l-.31,0V5.59h-.05V6a1.66,1.66,0,0,0-.32,0,1.22,1.22,0,0,0-.18-.4l0,0a1.11,1.11,0,0,1,.18.38.23.23,0,0,0-.11.05A.82.82,0,0,0,10,5.75l0,0a.71.71,0,0,1,.18.32,0,0,0,0,0,0,0,.08.08,0,0,0,0,.07,2.74,2.74,0,0,1,0,.28v0s0,0,0,0a2.61,2.61,0,0,1,0,.29h0a2,2,0,0,0,0-.26l.14,0a2.18,2.18,0,0,1,0,.26h.05s0-.11,0-.26l.19,0V7h.05V6.66l.19,0c0,.15,0,.25,0,.26h.05a2.41,2.41,0,0,1,0-.27.46.46,0,0,0,.14,0,2.16,2.16,0,0,0,0,.27h0a3.43,3.43,0,0,1,.09-.67.06.06,0,0,0,0,0h0A.74.74,0,0,1,11.36,5.78Zm-.31.67a.23.23,0,0,0-.11,0,.59.59,0,0,1,0-.14l.14,0C11.08,6.29,11.06,6.38,11.05,6.45Zm-.43-.09-.23,0a.52.52,0,0,0,0-.11h.25Zm.05-.08a1.06,1.06,0,0,0,.25,0l0,.13a.83.83,0,0,0-.22,0Zm.46-.16,0,0a.42.42,0,0,1-.14,0,1,1,0,0,0,0-.14A.23.23,0,0,1,11.13,6.12ZM11,6.06a.94.94,0,0,0,0,.16l-.26,0V6A1.26,1.26,0,0,1,11,6.06Zm-.35,0v.21l-.26,0s0-.11,0-.17Zm-.35,0a.83.83,0,0,1,0,.15.33.33,0,0,1-.13,0s0,0,0-.06A.38.38,0,0,1,10.27,6.06Zm.06.2s0,.09,0,.13l-.12.05a2.07,2.07,0,0,0,0-.22Zm-.08.28V6.48a.35.35,0,0,1,.12-.05,1,1,0,0,1,0,.17A.4.4,0,0,1,10.25,6.54Zm.18.06s0-.11,0-.18l.22,0v.22Zm.24,0V6.4l.22,0q0,.11,0,.18Zm.24,0a.77.77,0,0,1,0-.15q.11,0,.12.06v0S11,6.57,10.91,6.59Z"/><path d="M10.64,5.62a1.34,1.34,0,0,1,.72.14,1.24,1.24,0,0,1-.72.14,1.22,1.22,0,0,1-.71-.14,1.32,1.32,0,0,1,.71-.14m0-.08c-.44,0-.8.1-.8.22s.36.22.8.22.81-.1.81-.22-.36-.22-.81-.22Z"/><polygon points="8.5 3.29 8.5 5.22 11.55 6.79 11.55 4.77 8.5 3.29"/><path d="M11.59,6.85,8.46,5.24v-2l3.13,1.52ZM8.54,5.19l3,1.53V4.79l-3-1.44Z"/><path d="M9.91,5.07,9.86,5V5H8.71L8.64,5V8.88h.13V6.21Zm-.2,0L8.77,6V5.09Z"/></g><polygon class="cls-3" points="49.49 9.07 13.64 11.06 0 4.23 35.85 2.24 49.49 9.07"/><g class="cls-4"><polygon points="29.25 10.19 29.31 10.19 39.6 4.12 39.58 4.1 29.25 10.19"/><polygon points="28.4 10.24 28.45 10.24 39.18 3.91 39.16 3.89 28.4 10.24"/><polygon points="30.11 10.14 30.17 10.14 40.02 4.33 40 4.31 30.11 10.14"/><polygon points="27.54 10.29 27.59 10.29 38.76 3.7 38.73 3.68 27.54 10.29"/><polygon points="30.97 10.1 31.03 10.09 40.45 4.54 40.42 4.53 30.97 10.1"/><polygon points="33.6 9.95 41.71 5.17 41.68 5.16 33.55 9.95 33.6 9.95"/><polygon points="32.69 10 32.75 10 41.29 4.96 41.26 4.95 32.69 10"/><polygon points="31.83 10.05 31.89 10.05 40.87 4.75 40.84 4.74 31.83 10.05"/><polygon points="6.55 3.87 3.21 5.83 3.24 5.85 6.61 3.86 6.55 3.87"/><polygon points="14.27 3.44 6.99 7.73 7.02 7.74 14.33 3.43 14.27 3.44"/><polygon points="0.26 4.36 0.29 4.38 0.6 4.2 0.54 4.2 0.26 4.36"/><polygon points="2.79 5.62 2.81 5.64 5.75 3.91 5.69 3.91 2.79 5.62"/><polygon points="1.1 4.78 1.13 4.8 2.31 4.1 2.25 4.1 1.1 4.78"/><polygon points="7.46 3.81 7.41 3.82 3.63 6.04 3.66 6.06 7.46 3.81"/><polygon points="0.68 4.57 0.71 4.59 1.45 4.15 1.4 4.15 0.68 4.57"/><polygon points="2.37 5.41 2.4 5.43 4.89 3.96 4.83 3.96 2.37 5.41"/><polygon points="1.95 5.2 1.97 5.22 4.03 4 3.97 4.01 1.95 5.2"/><polygon points="1.52 4.99 1.55 5.01 3.17 4.05 3.11 4.06 1.52 4.99"/><polygon points="6.57 7.52 6.6 7.53 13.47 3.48 13.41 3.48 6.57 7.52"/><polygon points="44.71 9.33 44.76 9.33 47.17 7.91 47.15 7.89 44.71 9.33"/><polygon points="43.85 9.38 43.91 9.38 46.76 7.7 46.73 7.68 43.85 9.38"/><polygon points="45.62 9.28 47.6 8.12 47.57 8.1 45.56 9.29 45.62 9.28"/><polygon points="42.99 9.43 43.05 9.43 46.33 7.49 46.3 7.47 42.99 9.43"/><polygon points="49 9.1 49.06 9.09 49.28 8.96 49.25 8.95 49 9.1"/><polygon points="48.14 9.14 48.2 9.14 48.86 8.75 48.83 8.74 48.14 9.14"/><polygon points="42.13 9.48 42.19 9.47 45.91 7.28 45.88 7.26 42.13 9.48"/><polygon points="47.34 9.19 48.44 8.54 48.41 8.53 47.28 9.19 47.34 9.19"/><polygon points="46.42 9.24 46.48 9.23 48.02 8.33 47.99 8.31 46.42 9.24"/><polygon points="37.84 9.71 37.9 9.71 43.81 6.22 43.78 6.21 37.84 9.71"/><polygon points="34.41 9.91 34.46 9.9 42.13 5.38 42.1 5.37 34.41 9.91"/><polygon points="36.12 9.81 36.18 9.81 42.97 5.8 42.94 5.79 36.12 9.81"/><polygon points="37.04 9.76 43.39 6.01 43.36 6 36.98 9.76 37.04 9.76"/><polygon points="35.26 9.86 35.32 9.86 42.55 5.59 42.52 5.58 35.26 9.86"/><polygon points="38.7 9.67 38.76 9.66 44.23 6.43 44.2 6.42 38.7 9.67"/><polygon points="40.41 9.57 40.47 9.57 45.07 6.86 45.04 6.84 40.41 9.57"/><polygon points="39.61 9.62 44.65 6.64 44.62 6.63 39.55 9.62 39.61 9.62"/><polygon points="41.33 9.52 45.49 7.07 45.46 7.05 41.27 9.53 41.33 9.52"/><polygon points="10.36 9.41 10.39 9.43 21.2 3.05 21.14 3.05 10.36 9.41"/><polygon points="31.5 2.48 31.44 2.48 17.24 10.86 17.29 10.86 31.5 2.48"/><polygon points="30.64 2.53 30.58 2.53 16.38 10.91 16.44 10.9 30.64 2.53"/><polygon points="32.36 2.43 32.3 2.43 18.09 10.81 18.15 10.81 32.36 2.43"/><polygon points="33.22 2.38 33.16 2.39 18.95 10.77 19.01 10.76 33.22 2.38"/><polygon points="28.07 2.67 28.01 2.67 13.8 11.05 13.86 11.05 28.07 2.67"/><polygon points="34.08 2.33 34.02 2.34 19.81 10.72 19.87 10.71 34.08 2.33"/><polygon points="27.21 2.72 27.15 2.72 13.3 10.89 13.33 10.9 27.21 2.72"/><polygon points="28.92 2.62 28.87 2.62 14.66 11 14.72 11 28.92 2.62"/><polygon points="29.78 2.57 29.72 2.58 15.52 10.96 15.58 10.95 29.78 2.57"/><polygon points="37.5 3.06 37.47 3.05 24.96 10.43 25.02 10.43 37.5 3.06"/><polygon points="37.08 2.85 37.05 2.84 24.1 10.48 24.16 10.48 37.08 2.85"/><polygon points="26.35 2.76 26.29 2.77 12.88 10.68 12.91 10.69 26.35 2.76"/><polygon points="37.92 3.28 37.89 3.26 25.82 10.38 25.88 10.38 37.92 3.28"/><polygon points="38.34 3.49 38.31 3.47 26.68 10.34 26.74 10.33 38.34 3.49"/><polygon points="36.24 2.43 36.21 2.42 22.39 10.57 22.45 10.57 36.24 2.43"/><polygon points="35.79 2.24 35.73 2.24 21.53 10.62 21.59 10.62 35.79 2.24"/><polygon points="34.93 2.29 34.88 2.29 20.67 10.67 20.73 10.67 34.93 2.29"/><polygon points="36.66 2.64 36.63 2.63 23.25 10.53 23.3 10.52 36.66 2.64"/><polygon points="8.68 8.57 8.7 8.59 17.76 3.24 17.71 3.25 8.68 8.57"/><polygon points="15.19 3.38 15.13 3.39 7.41 7.94 7.44 7.96 15.19 3.38"/><polygon points="4.05 6.26 4.08 6.27 8.32 3.77 8.26 3.77 4.05 6.26"/><polygon points="16.91 3.29 16.85 3.29 8.25 8.36 8.28 8.38 16.91 3.29"/><polygon points="4.47 6.47 4.5 6.48 9.18 3.72 9.12 3.72 4.47 6.47"/><polygon points="15.99 3.34 7.83 8.15 7.86 8.16 16.05 3.34 15.99 3.34"/><polygon points="25.49 2.81 25.43 2.81 12.46 10.47 12.49 10.48 25.49 2.81"/><polygon points="5.31 6.89 5.34 6.9 10.9 3.62 10.84 3.63 5.31 6.89"/><polygon points="4.89 6.68 4.92 6.69 10.04 3.67 9.98 3.67 4.89 6.68"/><polygon points="5.73 7.1 5.76 7.11 11.76 3.58 11.7 3.58 5.73 7.1"/><polygon points="11.2 9.84 11.23 9.85 22.91 2.96 22.86 2.96 11.2 9.84"/><polygon points="24.57 2.86 12.04 10.26 12.07 10.27 24.63 2.86 24.57 2.86"/><polygon points="11.62 10.05 11.65 10.06 23.77 2.91 23.71 2.91 11.62 10.05"/><polygon points="10.78 9.63 10.81 9.64 22.06 3 22 3.01 10.78 9.63"/><polygon points="6.15 7.31 6.18 7.32 12.61 3.53 12.56 3.53 6.15 7.31"/><polygon points="9.1 8.78 9.12 8.8 18.62 3.19 18.57 3.2 9.1 8.78"/><polygon points="19.42 3.15 9.52 8.99 9.54 9.01 19.48 3.15 19.42 3.15"/><polygon points="20.34 3.1 20.28 3.1 9.94 9.2 9.96 9.22 20.34 3.1"/></g><path class="cls-5" d="M45.78,8.47,14.45,10.21,3.71,4.83,35,3.09ZM14.5,10.15l31-1.72L35,3.14,4,4.87Z"/><polygon class="cls-5" points="30.14 9.31 29.99 9.32 19.41 4.02 19.56 4.01 30.14 9.31"/><path class="cls-5" d="M16.83,9.53l-3.29.18-.09,0,3.28-.19C20.15,9.29,21,8.17,18.6,7A25,25,0,0,0,8.07,5.15l-3.28.18-.09,0L8,5.1A25.58,25.58,0,0,1,18.75,7C21.19,8.19,20.32,9.34,16.83,9.53Z"/><path class="cls-5" d="M26.22,7.39a9.2,9.2,0,0,1-3.79-.61c-.81-.41-.43-.8.84-.87a9,9,0,0,1,3.79.61C27.87,6.93,27.49,7.31,26.22,7.39ZM23.37,6c-1.2.06-1.55.43-.79.81a8.57,8.57,0,0,0,3.54.57c1.2-.07,1.55-.43.79-.81A8.41,8.41,0,0,0,23.37,6Z"/><path class="cls-5" d="M17.27,7.88l-.71,0,0-.09c.21,0,.42,0,.62,0ZM16,7.81l-.73-.11.1-.07c.21,0,.42.07.64.09Zm-1.24-.22c-.22,0-.42-.11-.6-.17l.24,0a3.55,3.55,0,0,0,.52.15Zm-1-.32,0,0a1.22,1.22,0,0,1-.29-.18h.33a1.57,1.57,0,0,0,.25.16h0ZM13.71,7l-.34,0a.17.17,0,0,1,0-.18l.34,0A.18.18,0,0,0,13.71,7Zm.13-.27-.32-.06a1,1,0,0,1,.33-.13l.29.08A1.46,1.46,0,0,0,13.84,6.68Zm.62-.17-.24-.09.25,0,.21.09Z"/><path class="cls-5" d="M17.64,7.86h-.07l-3-1.48h.08A9,9,0,0,1,18.48,7C19.29,7.4,18.91,7.79,17.64,7.86ZM14.86,6.43l2.76,1.38c1.13-.08,1.46-.43.71-.81A8.5,8.5,0,0,0,14.86,6.43Z"/><polygon class="cls-5" points="14.78 6.43 6.97 6.43 6.9 6.38 14.71 6.39 14.78 6.43"/><polygon class="cls-5" points="11.43 8.65 11.31 8.6 17.53 7.82 17.65 7.86 11.43 8.65"/><path class="cls-5" d="M44.73,8l-3.28.18A25.43,25.43,0,0,1,30.68,6.3C28.24,5.08,29.1,3.93,32.6,3.73l3.29-.18L36,3.6l-3.28.18C29.28,4,28.44,5.1,30.83,6.29A24.82,24.82,0,0,0,41.36,8.12l3.28-.19Z"/><path class="cls-5" d="M35.15,6.89l-.22-.09a3.51,3.51,0,0,0,.42-.08l.29.08Zm.76-.19-.32-.07a.35.35,0,0,0,.17-.14l.34,0A.45.45,0,0,1,35.91,6.7Zm.21-.3-.34,0a.45.45,0,0,0-.13-.17H36A.32.32,0,0,1,36.12,6.4Zm-.38-.35-.3,0,0,0L35,5.9l.23,0A2.53,2.53,0,0,1,35.7,6Zm-1.09-.27c-.18,0-.38-.09-.59-.12l.1-.08a6,6,0,0,1,.67.15Zm-1.07-.2c-.21,0-.43,0-.65-.06l-.06-.09c.25,0,.5,0,.74.07ZM32.46,5.5h-.27L32,5.41h.31Z"/><path class="cls-5" d="M34.87,6.9H34.8A9,9,0,0,1,31,6.3c-.81-.41-.43-.79.84-.87h.08Zm-3-1.41c-1.13.07-1.45.43-.71.8a8.49,8.49,0,0,0,3.47.58Z"/><polygon class="cls-5" points="31.96 5.48 31.84 5.44 38.06 4.65 38.18 4.7 31.96 5.48"/><polygon class="cls-5" points="42.59 6.92 34.78 6.91 34.72 6.86 42.52 6.87 42.59 6.92"/><polygon class="cls-5" points="13.65 8.47 13.5 8.47 13.3 8.38 13.45 8.37 13.65 8.47"/><polygon class="cls-5" points="14.58 8.35 14.43 8.36 14.23 8.26 14.38 8.25 14.58 8.35"/><polygon class="cls-5" points="15.52 8.23 15.37 8.24 15.17 8.14 15.32 8.13 15.52 8.23"/><polygon class="cls-5" points="9.53 6.41 9.38 6.41 9.18 6.31 9.33 6.31 9.53 6.41"/><polygon class="cls-5" points="10.68 6.4 10.54 6.41 10.34 6.31 10.49 6.3 10.68 6.4"/><polygon class="cls-5" points="11.87 6.41 11.73 6.41 11.53 6.32 11.68 6.31 11.87 6.41"/><polygon class="cls-6" points="0 5.03 13.93 11.91 49.49 9.93 49.49 9.07 13.64 11.06 0 4.23 0 5.03"/><path class="cls-7" d="M40.92,3V5.66H41V1.8L41,1.74H39.82V1.8l0,0Zm0-1.12V2.8L40,1.86Z"/><polygon class="cls-5" points="38.14 0.06 38.14 2 41.18 3.56 41.18 1.54 38.14 0.06"/><path class="cls-7" d="M41.22,3.63,38.1,2V0l3.12,1.52ZM38.18,2l3,1.53V1.57l-3-1.44Z"/><polygon class="cls-7" points="40.24 3.04 40.17 3.04 40.17 2.23 39.02 1.7 39.01 2.45 38.93 2.45 38.94 1.58 40.25 2.18 40.24 3.04"/><path class="cls-8" d="M38.52,2.9h0a.05.05,0,0,0,0,0,3.16,3.16,0,0,1,.1.68h0a2,2,0,0,0,0-.27.38.38,0,0,0,.14.05,2.41,2.41,0,0,1,0,.27h0a1.86,1.86,0,0,0,0-.26l.19,0v.28h0V3.44l.19,0c0,.14,0,.24,0,.26h0s0-.11,0-.27a.4.4,0,0,0,.13,0,2.17,2.17,0,0,1,0,.26h.05a2.48,2.48,0,0,1,0-.29.06.06,0,0,0,0,0s0,0,0,0,0-.18.06-.28a.08.08,0,0,0,0-.06.08.08,0,0,0,0,0,.71.71,0,0,1,.18-.32l0,0a.91.91,0,0,0-.19.32l-.12,0a1.35,1.35,0,0,1,.19-.38l0,0a1.48,1.48,0,0,0-.19.4,1.51,1.51,0,0,0-.32,0V2.37h0v.39a1.58,1.58,0,0,0-.32,0,1.06,1.06,0,0,0-.19-.4l0,0a1.11,1.11,0,0,1,.18.38.38.38,0,0,0-.11.05,1,1,0,0,0-.19-.33l0,0A1,1,0,0,1,38.52,2.9Zm.07.09a.4.4,0,0,0,.13,0l0,.14-.12.06A2,2,0,0,0,38.59,3Zm.47.07.26,0,0,.12-.23,0Zm0,.08-.23,0a.5.5,0,0,0,0-.12l.25,0Zm-.34-.3,0,.15a.48.48,0,0,1-.14-.06v0S38.61,2.86,38.68,2.84Zm.34,0V3l-.26,0c0-.06,0-.11,0-.17Zm.35,0a1,1,0,0,0,0,.17l-.27,0V2.8A1.3,1.3,0,0,1,39.37,2.83Zm.16,0a.64.64,0,0,1,0,.07l-.14,0c0-.05,0-.1,0-.15Zm0,.12a1.74,1.74,0,0,0,0,.22l-.11-.05a.59.59,0,0,1,0-.13Zm-.2.37,0-.16a.23.23,0,0,1,.12,0v.06A.32.32,0,0,1,39.3,3.37Zm-.24,0V3.18l.23,0a1.13,1.13,0,0,0,0,.18Zm-.23,0,0-.18.22,0V3.4Zm-.19-.08v0a.2.2,0,0,1,.12-.07,1,1,0,0,1,0,.16A.35.35,0,0,1,38.64,3.3Z"/><path class="cls-3" d="M39,2.4a1.24,1.24,0,0,1,.72.14,1.34,1.34,0,0,1-.72.14,1.32,1.32,0,0,1-.71-.14A1.22,1.22,0,0,1,39,2.4m0-.08c-.44,0-.8.1-.8.22s.36.22.8.22.81-.1.81-.22-.36-.22-.81-.22Z"/><polygon class="cls-7" points="10.1 5.25 10.02 5.25 10.03 4.43 8.87 3.9 8.87 4.66 8.79 4.66 8.79 3.78 10.11 4.38 10.1 5.25"/><path class="cls-8" d="M10.85,4.76l0,0a.8.8,0,0,0-.19.33l-.11,0a1.17,1.17,0,0,1,.18-.39l0,0a1.48,1.48,0,0,0-.19.4,1.48,1.48,0,0,0-.31,0v-.4h-.05V5A1.48,1.48,0,0,0,9.8,5a1.48,1.48,0,0,0-.19-.4l0,0A1.21,1.21,0,0,1,9.75,5l-.11,0a.82.82,0,0,0-.19-.32l0,0a.71.71,0,0,1,.18.32s0,0,0,0a.07.07,0,0,0,0,.06,2.8,2.8,0,0,1,.06.28,0,0,0,0,0,0,0s0,0,0,0a2.75,2.75,0,0,1,0,.29h0a2.06,2.06,0,0,0,0-.26l.14,0a2.18,2.18,0,0,1,0,.26h0s0-.11,0-.25h.19v.29h.05V5.64l.19,0c0,.15,0,.25,0,.26h0a2.41,2.41,0,0,1,0-.27.46.46,0,0,0,.14-.05,2.16,2.16,0,0,0,0,.27h0a3.1,3.1,0,0,1,.1-.67.06.06,0,0,0,0,0v0A.84.84,0,0,1,10.85,4.76Zm-.31.67a.23.23,0,0,0-.11,0,.68.68,0,0,1,0-.14l.14,0C10.57,5.28,10.56,5.36,10.54,5.43Zm-.43-.09a.83.83,0,0,0-.22,0l0-.12.25,0Zm.05-.07.25,0,0,.12a1.3,1.3,0,0,0-.22,0Zm.46-.17v0a.38.38,0,0,1-.14.05l0-.14ZM10.46,5s0,.11,0,.16l-.26,0V5A1.26,1.26,0,0,1,10.46,5Zm-.35,0v.21a1.06,1.06,0,0,1-.26,0,.94.94,0,0,0,0-.16A1.26,1.26,0,0,1,10.11,5Zm-.34,0a.83.83,0,0,0,0,.15l-.14,0,0-.06A.24.24,0,0,1,9.77,5.05Zm.05.19a.68.68,0,0,1,0,.14l-.12,0a2.07,2.07,0,0,0,0-.22Zm-.08.29V5.46l.12,0a1.11,1.11,0,0,1,0,.17Zm.18.06,0-.19.22,0V5.6Zm.24,0V5.38a.73.73,0,0,1,.22,0l0,.17Zm.24,0a.77.77,0,0,1,0-.15q.11,0,.12.06v0S10.47,5.55,10.4,5.57Z"/><path class="cls-3" d="M10.14,4.61a1.37,1.37,0,0,1,.71.13,1.22,1.22,0,0,1-.71.14,1.24,1.24,0,0,1-.72-.14,1.39,1.39,0,0,1,.72-.13m0-.09c-.45,0-.81.1-.81.22s.36.23.81.23.8-.1.8-.23-.36-.22-.8-.22Z"/><polygon class="cls-5" points="7.99 2.27 7.99 4.2 11.04 5.77 11.04 3.75 7.99 2.27"/><path class="cls-7" d="M11.08,5.83,8,4.22v-2l3.13,1.52ZM8,4.18,11,5.7V3.78L8,2.33Z"/><path class="cls-7" d="M9.4,4.05,9.35,4V3.94H8.2L8.13,4V7.86h.13V5.19Zm-.2,0L8.26,5V4.07Z"/></g></g></g></svg>