<svg xmlns="http://www.w3.org/2000/svg" viewBox="0 0 155.6 81.25"><defs><style>.cls-1{fill:#1e1e1c;}</style></defs><title>ICON-restaurierung</title><g id="Ebene_2" data-name="Ebene 2"><g id="Ebene_2-2" data-name="Ebene 2"><path class="cls-1" d="M16.47,37l60,.2h.22l-.11-24.85-60,.31h-.23ZM76.12,12.79l.1,24-59.31-.21-.1-23.44Z"/><path class="cls-1" d="M20.88,33.94h0l51.24-.11.1-16.26-51.72.11V33.94Zm49.59-2.07.1-11.95,1.21-1.45-.1,14.61ZM23,31.43,22.91,20l47.21-.21L70,31.63Zm47.47-12.1-47.71.21-1.49-1.42L71.57,18Zm-48,.52.1,11.72-1.63,1.67V18.41Zm.43,12L70,32.08l1.32,1.31-50,.1Z"/><path class="cls-1" d="M51.53,16.88s-.39-3.15-5.19-3.26-5.21,3.15-5.21,3.18l0,.25,10.46.08Zm-7.64-.26c.06-.22.45-1.27,2.4-1.27s2.36,1,2.44,1.31Zm5.16.05.13,0c0-.07-.36-1.73-2.89-1.73s-2.84,1.61-2.85,1.68l.17,0h-2c.18-.7,1-2.64,4.71-2.55S50.84,16,51,16.68Z"/><path class="cls-1" d="M16.47,41.26l.11,24.32,60,.21h.23L76.67,41l-60,.31Zm59.76.13.1,24L17,65.14l-.1-23.44Z"/><path class="cls-1" d="M21,62.55h0l51.24-.1.1-16.26-51.72.1V62.54H21Zm49.58-2.07.1-12,1.21-1.45-.09,14.62ZM23.12,60,23,48.59l47.21-.21-.1,11.86ZM70.59,47.94l-47.71.2-1.49-1.42,50.29-.1Zm-48,.52.11,11.72-1.63,1.67V47Zm.44,12,47.14.2L71.47,62l-50,.1Z"/><path class="cls-1" d="M51.64,45.49s-.39-3.15-5.2-3.26-5.2,3.15-5.2,3.18l0,.24,10.45.09ZM44,45.23c.06-.23.44-1.27,2.4-1.27s2.35,1,2.44,1.31Zm5.16,0,.13,0c0-.07-.36-1.74-2.89-1.74s-2.84,1.62-2.85,1.69l.17,0-2,0a2.91,2.91,0,0,1,.64-1.16,5,5,0,0,1,4.06-1.38c3.66.09,4.52,1.93,4.71,2.62Z"/><path class="cls-1" d="M140.57,65.68h.22l-.1-24.84-60,.31h-.22l.1,24.33Zm-.33-24.4.11,24L81,65l-.1-23.44Z"/><path class="cls-1" d="M85,62.44h0l51.23-.11.11-16.26-51.73.1V62.44Zm49.59-2.07.1-11.95L135.9,47l-.1,14.61Zm-47.46-.45L87,48.48l47.22-.21-.1,11.86ZM134.6,47.83,86.9,48l-1.5-1.41,50.29-.1Zm-48,.52.1,11.72-1.62,1.67V46.91Zm.43,12,47.14.2,1.32,1.32-50,.1Z"/><path class="cls-1" d="M115.65,45.38s-.38-3.15-5.19-3.26-5.21,3.15-5.21,3.18l0,.25,10.46.08ZM108,45.12c.06-.22.45-1.27,2.4-1.27s2.36,1,2.44,1.31Zm5.16,0,.13,0c0-.07-.36-1.73-2.89-1.73s-2.84,1.61-2.85,1.68l.17,0h-2c.18-.7,1-2.64,4.71-2.55s4.52,1.94,4.71,2.62Z"/><path class="cls-1" d="M140.68,37.18h.22l-.11-24.85-60,.31h-.23L80.7,37Zm-.33-24.39.1,24-59.31-.21L81,13.09Z"/><path class="cls-1" d="M85.11,33.94h0l51.24-.11.1-16.26-51.72.11V33.94Zm49.59-2.07.1-11.95L136,18.47l-.1,14.61Zm-47.46-.44L87.14,20l47.21-.21-.1,11.86Zm47.47-12.1L87,19.54l-1.49-1.42L135.8,18Zm-48,.52.1,11.72-1.63,1.67V18.41Zm.43,12,47.14.21,1.32,1.31-50,.1Z"/><path class="cls-1" d="M115.76,16.88s-.39-3.15-5.19-3.26-5.21,3.15-5.21,3.18l0,.25,10.46.08Zm-7.64-.26c.06-.22.45-1.27,2.4-1.27s2.36,1,2.44,1.31Zm5.16.05.13,0c0-.07-.36-1.73-2.89-1.73s-2.84,1.61-2.85,1.68l.17,0h-2c.18-.7,1-2.64,4.71-2.55s4.51,1.94,4.71,2.62Z"/><path class="cls-1" d="M155.43,4l-9.16-4L14.34.18h0L.2,3.85H0L.2,8.5H4.08v.16h.34l0,72.18h8.22l4.4-.1v-.06l1.94-.62,0-.19a1.9,1.9,0,0,1,.38-1.42,3.44,3.44,0,0,1,2.71-1,3.39,3.39,0,0,0,2.66-1.1,4.29,4.29,0,0,0,.8-3l106.28.17c.18,1,1,4.49,3,4.56A3.6,3.6,0,0,1,137.6,80l0,.08,2.49,1v.06h4.11v-.45H140.5a5.2,5.2,0,0,0-4.5-3.82,4.2,4.2,0,0,1-3.83-3.28v-.06l12.15,0,.08,7.46v.21l8,0,0-73.08v0h3.16V4ZM136,77.29a4.64,4.64,0,0,1,4,3.24l-2-.81a3.91,3.91,0,0,0-3.22-2.09c-.85,0-1.46-.89-1.88-1.84A4.63,4.63,0,0,0,136,77.29ZM14.36.63,146.17.44,154.32,4,2,3.85Zm129.28,8,.63,60.73L12.6,69.06l.07-60.41ZM4.82,80.39l0-71.72,7.37.13-.07,61.25L12,73.32h.11v7.07Zm14.09-2.23a2.32,2.32,0,0,0-.49,1.59L17,80.2A3.63,3.63,0,0,1,17.93,78a3.9,3.9,0,0,1,2.89-1H21a5.65,5.65,0,0,0,.84.07A3.77,3.77,0,0,0,18.91,78.16ZM24,75.93a4,4,0,0,1-2.95.6h0a4.43,4.43,0,0,0-3.44,1.15,4,4,0,0,0-1.08,2.62l-3.94.09V73.32l12.37,0A3.14,3.14,0,0,1,24,75.93ZM144.3,73.09,12.6,72.88V70.06l0-.56,131.65.32,0,3.11Zm.53,7.67-.08-7.83V69.38h0l-.62-60.73H152l0,72.15ZM143.64,8.21H126.47l17.17,0Zm11.52-.52L.63,8.06.46,4.29l154.7.18Z"/></g></g></svg>