<?xml version="1.0" encoding="utf-8"?>
<!-- Generator: Adobe Illustrator 25.2.0, SVG Export Plug-In . SVG Version: 6.00 Build 0)  -->
<svg version="1.1" id="Ebene_1" xmlns="http://www.w3.org/2000/svg" xmlns:xlink="http://www.w3.org/1999/xlink" x="0px" y="0px"
	 viewBox="0 0 681.5 959.1" style="enable-background:new 0 0 681.5 959.1;" xml:space="preserve">
<style type="text/css">
	.st0{fill:none;stroke:#000000;stroke-width:4;stroke-linecap:round;stroke-linejoin:round;}
</style>
<g id="Ebene_2_1_">
	<g id="Bulle">
		<g>
			<path d="M502.6,110.1c5.3-1.2,9.6-1.1,12.8,0.3c3.2,1.4,5.7,3.9,7,7.1c1.6,4,2.3,8.2,2,12.5c-0.1,5.4-0.7,10.9-1.6,16.2
				c-1.2,5.9-3,11.6-5.4,17.1c-2.3,5.2-5.2,10.2-8.6,14.9c-3,4.1-6.5,7.8-10.5,11c-3.3,2.7-7.2,4.6-11.3,5.6
				c-5.3,1.2-9.6,1.1-12.8-0.3c-3.2-1.4-5.7-3.9-7-7.1c-1.6-4-2.3-8.2-2.1-12.5c0.1-5.4,0.7-10.9,1.6-16.2c1-5.9,2.7-11.6,5.1-17
				c2.3-5.2,5.1-10.2,8.5-14.8c3-4.1,6.6-7.8,10.6-11C494.3,113.1,498.3,111.2,502.6,110.1z M506.2,83.6c0.3,3-0.6,6.1-2.5,8.4
				c-1.7,2.5-4.3,4.2-7.2,4.9c-2.8,0.8-5.9,0.2-8.2-1.5c-2.2-1.7-3.6-4.2-3.8-7c-0.4-3,0.4-6.1,2.3-8.5c1.9-2.4,4.6-4.1,7.6-4.7
				c2.7-0.6,5.5-0.2,7.8,1.3C504.6,78.1,506.1,80.8,506.2,83.6z M489.4,185.1c1.7-0.4,3.4-2.2,5-5.6c1.8-4,3.3-8.2,4.5-12.4
				c1.4-4.9,2.6-10.1,3.5-15.6c0.9-5,1.5-10.1,1.9-15.2c0.3-3.8,0.1-7.6-0.5-11.3c-0.6-2.9-1.8-4.1-3.6-3.7
				c-1.8,0.4-3.6,2.3-5.3,5.7c-1.9,4-3.4,8.2-4.5,12.4c-1.4,5.1-2.4,10.3-3.2,15.5c-0.8,5-1.3,10-1.5,15.1
				c-0.2,3.8-0.1,7.6,0.6,11.3C486.8,184.2,487.9,185.5,489.4,185.1z M531.1,78.1c0.3,3-0.6,6.1-2.5,8.4c-1.7,2.5-4.3,4.2-7.2,4.9
				c-2.8,0.8-5.9,0.3-8.2-1.5c-2.2-1.7-3.6-4.2-3.8-7c-0.4-3,0.4-6.1,2.3-8.5c1.9-2.4,4.6-4.1,7.6-4.7c2.7-0.7,5.5-0.2,7.8,1.2
				C529.5,72.6,531,75.2,531.1,78.1z"/>
		</g>
		<g>
			<path d="M556.9,98.1l-2,10.2l17-16.1c-0.3,5.3,0,9.2,1,11.7s2.4,4.3,4.3,5.1c1.9,0.8,4.1,0.9,6.1,0.2c2.3-0.7,4.4-1.8,6.4-3.2
				c-3.3,5.5-7.3,10.5-11.9,14.8c-4,3.5-7.6,5.8-10.9,6.7c-2.9,1-6,0.6-8.5-1.1c-2.4-1.7-4.1-4.7-5.1-9.1l-12.4,66.6l-19.2,4.3
				l16.2-85.8L556.9,98.1z"/>
		</g>
		<g>
			<path d="M601.9,88.1l-2.7,14.4c2.1-4.3,4.8-8.3,8-11.8c2.6-3,6-5.1,9.9-6c4.5-1,7.4,0,8.8,3c1.4,3,1.8,7,1.4,12
				c-0.6,5.6-1.6,11.2-3,16.7c-1.6,6.2-3,11.8-4.3,17c-1.1,4.2-1.9,8.5-2.3,12.8c-0.2,3.3,0.7,4.8,2.8,4.3c2.1-0.6,4-1.7,5.6-3.2
				c2.2-1.8,4-4.7,5.3-8.7l3.4-0.8c-1.1,4.3-2.7,8.5-4.8,12.4c-1.7,3.2-3.9,6.3-6.3,9c-2,2.2-4.3,4.1-6.8,5.7
				c-1.9,1.2-3.9,2.1-6.1,2.6c-3.7,0.8-6.4,0.5-8.2-1c-2-1.8-3.2-4.2-3.5-6.8c-0.5-3.5-0.5-7.1-0.1-10.7c0.5-4.1,1.2-8.3,2.1-12.7
				s2-8.7,3-12.9c1.1-4.2,2-8,2.7-11.3c0.6-2.6,0.9-5.2,1.1-7.8c0-1.9-0.5-2.7-1.6-2.4c-1.1,0.2-2.2,1.4-3.4,3.5
				c-1.3,2.4-2.5,4.9-3.5,7.5c-1.2,2.9-2.2,6-3.2,9.2c-1,3.2-1.8,6.2-2.6,9l-15.5,81.8l-19,4.2l23.8-125L601.9,88.1z"/>
		</g>
		<g>
			<path d="M339.5,244l-0.6-2.9c0.1,0,16.4-5.1,29.2-62.3c3.8-16.8,15.6-56.4,18.4-62.5c0.4-0.9,0.8-1.8,1.3-2.8
				c4.5-10.4,12.1-27.6,33.3-28.8l0.2,2.3l0.1,0.6c-0.1,0-6.9,1.7-18.5,22.8c-10.3,18.9-15.8,42.8-18.8,55.6c-0.5,2.4-1,4.4-1.4,6.1
				c-2.5,10.1-14.8,48.4-23.3,59.3S340,243.9,339.5,244z M414.7,88.6c-14.5,3.8-20.2,16.9-24.2,26c-0.5,1-0.9,2-1.3,2.9
				c-2.4,5.3-14.3,44.6-18.2,61.9c-7.7,34.6-16.8,50.7-23.2,58.2c3.5-2.1,6.6-4.8,9.2-8c7.9-10.1,20-47.2,22.8-58.2
				c0.4-1.6,0.9-3.6,1.4-6c3-13,8.6-37.1,19.1-56.4C406.3,97.9,411.2,91.9,414.7,88.6L414.7,88.6z"/>
		</g>
		<g>
			<path d="M74.3,202.1c3.5-0.8,6.5-3.3,9-7.4c2.8-5,5.1-10.3,6.7-15.8c2-6.4,3.8-13.5,5.5-21.5c1.7-8,3.4-16.1,5.3-24.4
				c1.9-8.3,4-16.6,6.4-24.8c2.2-7.7,5-15.2,8.5-22.4c3-6.3,7-12.2,11.8-17.3c4.3-4.6,9.9-7.9,16-9.5c-4.3-3.2-9.4-5.4-14.7-6.3
				c-6-1.2-13.1-0.8-21.4,1c-11.2,2.5-20.5,7-27.9,13.5c-7.1,6.2-12.9,13.7-17.1,22.2c-4,8-6.5,16.7-7.6,25.5
				c-1.1,7.9-1,15.9,0.3,23.8c1.2,7.1,3.5,12.7,6.7,16.8c3.2,4.2,7.2,5.7,11.9,4.7c2-0.4,3.8-1.6,4.9-3.3c1.1-1.5,1.6-3.4,1.4-5.2
				c-0.3-1.8-1.5-3.4-3.2-4.2c-1.9-1.1-4.8-1.1-8.9-0.2c-0.3-3.4,0.9-6.7,3.4-9c2.4-2.4,5.4-4.2,8.7-5c3.1-0.8,6.4-0.5,9.2,0.9
				c2.9,1.4,4.6,4.4,5,8.9c0.3,3-0.2,5.9-1.3,8.7c-1.2,2.8-2.8,5.4-4.9,7.6c-4.5,4.8-10.4,8.1-16.8,9.5c-7.7,1.7-14.2,1.5-19.5-0.6
				c-5.1-1.9-9.5-5.5-12.3-10.2c-3.1-5.3-4.8-11.3-5.2-17.4c-0.5-7.2,0.1-14.5,1.8-21.5c2-8,4.9-15.8,8.8-23.1
				c4.3-8.1,9.6-15.5,15.9-22.1c6.7-7.1,14.4-13.2,22.7-18.1c9.2-5.4,19.1-9.3,29.5-11.5c14.4-3.2,26.2-3.8,35.2-1.6
				c9,2.2,15.7,5.9,20.1,11.2c4.4,5.4,6.9,12.1,7,19c0.3,7.4-1.1,14.7-4.1,21.5c-3.1,7.1-7.6,13.4-13.2,18.6
				c-5.6,5.4-12.6,9.1-20.2,10.8h-0.2c1.7,0.3,3.4,0.5,5.1,0.9c1.6,0.3,3.3,0.8,5.1,1.3c3.2,2.6,5.8,6,7.5,9.8
				c1.7,3.8,3,7.7,3.9,11.8c0.9,4,1.6,8,2.2,11.8c0.4,3.4,1.2,6.7,2.3,9.9c0.7,2.4,2.2,4.5,4.2,6c1.8,1.2,4.5,1.2,8,0
				c-0.4,1.8-1.1,3.4-2.1,4.9c-1.2,1.8-2.7,3.5-4.4,4.9c-1.8,1.4-3.8,2.6-6,3.5c-2.2,0.9-4.5,1.2-6.9,1c-4.3-0.5-7.4-2.2-9.3-5.2
				c-2.1-3.4-3.5-7.3-4.2-11.2c-0.9-4.8-1.5-9.6-1.8-14.4c-0.3-4.9-1-9.8-1.9-14.6c-0.8-4.3-2.4-8.4-4.7-12.1
				c-2.2-3.4-5.6-5.6-10.2-6.5c-2.2,9.4-4.6,18.7-7.2,28c-2.4,8.9-5.7,17.5-9.7,25.7c-3.6,7.4-8.2,14.1-13.9,20
				c-5.4,5.5-12.3,9.3-19.8,10.9c-3.2,0.7-6.6,1-9.9,0.9c-2.9-0.1-5.8-1-8.3-2.5c-2.4-1.6-4.2-3.9-5.1-6.6
				c-1.1-2.9-1.2-6.8-0.5-11.6c0.4-3.1,1.8-5.9,3.9-8.1c2-2.2,4.5-3.9,7.2-5.1c2.5-1.1,5.3-1.8,8.1-1.9c2.4-0.2,4.8,0.3,6.9,1.4
				c1.9,1,3.1,2.9,3.4,5c0.4,2.3-0.4,5.2-2.3,8.7c-1.5-1-3.3-1.3-5-1c-1.4,0.3-2.8,1-3.8,2.1c-1,1.1-1.8,2.4-2.2,3.8
				c-0.5,1.3-0.5,2.7,0,4c0.5,1.2,1.4,2.2,2.6,2.8C70,202.6,71.9,202.6,74.3,202.1z M146.6,61.7c-2.7,2.6-4.9,5.7-6.6,9.1
				c-2.1,4.1-3.8,8.4-5.2,12.8c-1.5,4.9-3,10.1-4.3,15.7c-1.3,5.6-2.7,11.5-4.2,17.6c3.7,0.9,7.6,1,11.4,0.2c4.4-1,8.1-3.6,11.1-7.9
				c3.1-4.5,5.1-9.5,6-14.8c1-5.7,0.9-11.6-0.4-17.3C153.2,71.3,150.5,66,146.6,61.7z"/>
		</g>
		<g>
			<path d="M206.7,69.1c5-1,8.9-0.9,11.8,0.4c2.9,1.3,5.2,3.6,6.4,6.5c1.4,3.6,2.1,7.5,1.8,11.4c-0.2,5-0.7,9.9-1.7,14.8
				c-1.1,5.4-2.9,10.6-5.2,15.5c-2.2,4.8-4.9,9.3-8.1,13.5c-2.8,3.7-6.1,7.1-9.8,9.9c-3.1,2.4-6.7,4.2-10.6,5.1
				c-5,1-8.9,0.9-11.8-0.4c-2.9-1.3-5.2-3.6-6.4-6.5c-1.4-3.6-2.1-7.5-1.8-11.4c0.2-5,0.7-9.9,1.7-14.8c1-5.3,2.7-10.5,4.9-15.5
				c2.2-4.8,4.8-9.3,8-13.5c2.8-3.8,6.2-7.1,9.9-9.9C199.1,71.7,202.8,70,206.7,69.1z M193.8,137.4c1.6-0.3,3.1-2,4.6-5.1
				c1.8-3.7,3.2-7.4,4.3-11.3c1.4-4.7,2.5-9.4,3.4-14.2c0.9-4.6,1.5-9.2,1.9-13.8c0.3-3.5,0.2-6.9-0.3-10.3
				c-0.5-2.7-1.6-3.8-3.3-3.4c-1.7,0.4-3.3,2.1-4.9,5.2c-1.8,3.6-3.2,7.4-4.3,11.3c-1.3,4.6-2.4,9.4-3.1,14.1
				c-0.8,4.6-1.3,9.2-1.6,13.8c-0.3,3.4-0.1,6.9,0.4,10.3C191.4,136.6,192.4,137.7,193.8,137.4z"/>
		</g>
		<g>
			<path d="M267.6,69.6c-0.7,0.7-1.1,1.7-1.2,2.7c-0.1,0.9,0.1,1.8,0.4,2.7c0.3,0.8,0.9,1.4,1.6,1.8c0.7,0.4,1.5,0.6,2.2,0.4
				c1-0.2,1.7-1.2,2-2.8c0.3-1.7,0.3-3.5-0.2-5.2c-0.4-1.8-1.4-3.4-2.8-4.6c-1.4-1.3-3.4-1.6-5.9-1.1c-3,0.6-5.6,2.6-7.9,5.9
				c-2.4,3.6-4.2,7.6-5.4,11.8c-1.4,4.7-2.4,9.5-2.8,14.3c-0.5,4.6-0.4,9.2,0.1,13.7c0.4,3.5,1.4,6.9,3.2,9.9
				c1.2,2.3,3.9,3.5,6.5,2.9c4.5-1,8.6-3.2,11.8-6.5c3.5-3.3,6.6-7,9.4-10.9c3.2-4.7,6-9.7,8.3-14.9l3.3-0.7
				c-2.3,7.1-5.4,13.9-9.4,20.2c-1.7,2.8-3.5,5.4-5.5,7.9c-2,2.6-4.3,5-6.8,7.2c-2.5,2.2-5.2,4.2-8.1,5.8c-3,1.7-6.2,2.9-9.5,3.6
				c-6.2,1.3-11.1,0.5-14.7-2.4c-3.8-3.1-6.3-7.4-7.3-12.1c-1.2-5.8-1.3-11.9-0.3-17.7C231,87.8,237.7,75.2,248,66
				c5.4-4.8,11.9-8.1,19-9.5c3.8-0.8,6.9-0.6,9.4,0.5c2.4,1,4.3,2.8,5.5,5c1.2,2.4,1.7,5,1.5,7.7c-0.2,2.9-0.9,5.8-2.2,8.4
				c-1.4,2.8-3.3,5.3-5.6,7.4c-2.5,2.2-5.6,3.7-8.9,4.3c-3.9,0.8-6.7,0.2-8.4-1.8c-1.7-2-2.4-4.6-2.1-7.2c0.3-2.9,1.4-5.6,3.4-7.8
				C261.5,70.7,264.5,69.4,267.6,69.6z"/>
		</g>
		<g>
			<path d="M321.1,0l-12.2,60.5c2-3.9,4.6-7.5,7.5-10.8c2.4-2.7,5.6-4.7,9.2-5.5c4.1-0.8,6.9,0.4,8.6,3.7c1.7,3.3,2.2,7.5,1.4,12.5
				c-0.9,5.5-2.9,10.7-5.8,15.5c-3.1,5.3-7.6,9.6-12.9,12.6c0.2,2.1,0.6,4.3,1.1,6.4c0.5,2.1,1.2,4.1,2.2,5.9c0.8,1.6,2,3,3.4,4.1
				c1.2,1,2.8,1.3,4.3,1c1.6-0.3,3.4-1.5,5.4-3.6c2.3-2.5,4-5.4,5.1-8.6l3.1-0.7c-1.1,4-2.6,7.8-4.7,11.3c-1.7,2.9-3.7,5.7-6.1,8.2
				c-1.9,2-4,3.7-6.3,5.2c-1.8,1.1-3.7,1.9-5.7,2.4c-2.4,0.6-5,0.1-7-1.5c-2.1-1.7-3.8-3.8-5-6.2c-1.4-2.7-2.5-5.5-3.2-8.5
				c-0.8-3-1.5-5.8-1.9-8.3l-5.9,29.9l-17.9,3.7L303.1,3.8L321.1,0z M315.9,60.1c-1.4,0.4-2.6,1.4-3.4,2.8c-1.2,1.9-2.2,3.8-3.1,5.8
				c-1,2.3-1.9,4.8-2.8,7.5s-1.7,5.2-2.4,7.6l-1,4.3c3.6-1.3,6.6-3.7,8.8-6.8c2.2-3,4-6.3,5.3-9.8c1.1-2.7,1.6-5.6,1.4-8.5
				C318.6,60.7,317.6,59.7,315.9,60.1z"/>
		</g>
		<g>
			<path d="M231.5,241.3c-0.6,0-1.2-0.1-1.8-0.1c-1.8-0.3-3.5-1.3-4.6-2.9c-1.2-1.6-1.9-3.8-2.2-7c-0.2-3.9,0.2-7.9,1-11.8l8.7-45.3
				l18.3-5l-0.4,2.4c-1.3,7.1-2.5,13.2-3.5,18.6c-1,5-1.9,9.9-2.8,14.8c-0.9,4.9-1.6,8.5-2,10.9l0,0c-0.4,1.7-0.6,3.5-0.8,5.2
				c-0.1,0.8-0.1,1.6,0.1,2.4c0,0.1,0.1,0.3,0.2,0.4c0.2,0.1,0.4,0.1,0.7,0.1h0.1c0.2,0,1-0.1,3.2-2.1c1.6-1.5,2.2-2.8,3.2-5.9
				l2.9,0.8c-0.4,1.6-0.7,3.3-0.9,4.9c-0.2,1.5-0.5,3.1-0.9,4.6c-0.7,2.3-1.9,4.5-3.6,6.2l-0.6,0.7c-1.6,1.9-3.6,3.7-5.7,5.1
				c-1.7,1.1-3.5,2-5.5,2.6C233.6,241.1,232.6,241.3,231.5,241.3z M235.3,176.7l-8.4,43.5c-0.8,3.6-1.1,7.3-0.9,10.9
				c0,1.9,0.6,3.8,1.6,5.4c0.6,0.9,1.6,1.5,2.6,1.7c1.2,0.2,2.5,0.1,3.6-0.2c1.7-0.5,3.2-1.3,4.7-2.2c1.9-1.3,3.5-2.8,5-4.5l0.6-0.7
				c1.4-1.4,2.5-3.1,3-5c0.1-0.4,0.2-0.8,0.3-1.1c-2,1.8-3.6,2.6-5,2.6c-0.6,0-1.3-0.1-1.9-0.3c-0.9-0.4-1.6-1.2-1.8-2.1
				c-0.3-1.2-0.5-2.4-0.3-3.6c0.2-1.9,0.4-3.7,0.8-5.6c0.4-2.4,1.1-6,2-10.9c0.9-4.9,1.8-9.8,2.8-14.8c0.9-4.8,1.9-10.1,3.1-16.2
				L235.3,176.7z M241.6,223.8L241.6,223.8z M244,160.1c-5.1,0-9.4-3.9-9.8-9c-0.4-3.2,0.5-6.4,2.4-8.9c1.9-2.6,4.6-4.5,7.8-5.4
				c2.8-0.9,5.9-0.5,8.5,1c2.6,1.6,4.3,4.3,4.5,7.4l0,0c0.3,3.2-0.6,6.4-2.5,8.9c-1.8,2.7-4.5,4.6-7.5,5.5
				C246.3,159.9,245.2,160.1,244,160.1z M247.7,139.3c-0.8,0-1.6,0.1-2.4,0.4c-2.5,0.7-4.7,2.2-6.2,4.3c-1.5,2-2.2,4.4-1.9,6.9
				c0.1,2.1,1.2,4,3,5.2c1.9,1.2,4.2,1.5,6.4,0.7c2.4-0.7,4.5-2.2,5.9-4.3c1.5-2,2.2-4.4,2-6.9c-0.1-2.1-1.2-4-3-5.1
				C250.3,139.7,249,139.3,247.7,139.3L247.7,139.3z"/>
		</g>
		<g>
			<path d="M463.1,108.3c-2.4-9.1-6.9-17.6-13.1-24.8c-6.2-7-14.5-12-25.1-15c-5.4-1.4-10.9-2.2-16.5-2.4
				c-7.1-0.3-14.1,0.2-21.1,1.3c-11.1,1.6-21.8,5.1-31.8,10.4c-17.9,9.5-32.7,23.9-42.6,41.6c-4.5,7.9-8,16.3-10.5,25.1
				c-2.2,7.8-3.2,15.8-2.9,23.9c0.1,6.9,1.7,13.6,4.8,19.8c2.7,5.4,7.1,9.8,12.5,12.5c5.6,2.6,11.7,4,17.9,4.1
				c-2.3-3.8-3.1-8.4-2.2-12.7c-2.7-1.9-4.9-4.4-6.5-7.2c-3.1-5-3.3-8.9-4.3-16.9c-0.9-8.9-0.7-17.8,0.8-26.6
				c1.5-9.8,4.6-19.2,9.3-27.9c4.8-9,11.3-16.9,19.2-23.3c8.1-6.7,18.2-10.9,30.1-12.8c8.4-1.3,15.7-1,22.1,0.8
				c5.4,1.5,10.7,3.6,15.6,6.4l2.2,1.7h0.1v-0.1l-0.1-0.1c-0.2,0-7.4,1.4-19.5,23.6c-12.2,22.5-17.6,51.3-20.3,62.1
				s-14.9,48.2-23.1,58.7c-4.7,6.1-11.4,10.4-18.9,12c0,0,17-4,30.3-63.5c3.8-17.1,15.7-56.6,18.3-62.2c1-2.3,2.2-5,3.6-8
				c-0.7,1.1-1.4,2.2-2,3.4c-4.2,7.8-7.7,16-10.4,24.4c-3,9-5.7,18.1-8.1,27.4c-2.4,9.3-4.7,18.4-6.9,27.2c-2.2,8.9-4.4,16.9-6.8,24
				c-2,6.1-4.6,12-7.9,17.5c-2.9,4.6-6.2,7.2-10,7.8c-2.7,0.4-4.6,0.2-5.8-0.7c-1.2-0.8-2-2-2.4-3.4c-0.3-1.5-0.2-3.1,0.4-4.5
				c0.6-1.5,1.5-2.9,2.6-4c2.6-2.6,6.7-2.8,9.6-0.5c2.1-3.7,2.9-6.9,2.5-9.5c-0.3-2.4-1.5-4.5-3.5-5.9c-2.2-1.4-4.7-2.2-7.3-2.2
				c-3-0.1-6,0.4-8.8,1.5c-2.9,1.1-5.6,2.8-7.9,5.1c-2.4,2.4-4.1,5.4-4.7,8.8c-1,5.3-1,9.6,0,13c0.8,3.1,2.6,5.8,5.1,7.8
				c2.5,1.9,5.5,3.1,8.6,3.5c3.5,0.5,7,0.4,10.4-0.1c5.1-0.8,10-2.6,14.3-5.3c4.4-2.8,8.4-6.2,11.8-10.2c3.7,2.8,7.8,5,12.1,6.5
				c8.6,2.9,17.9,2.9,26.5,0.1c8.8-3,16.9-7.8,23.6-14.1c7.6-7.1,14.1-15.3,19.3-24.3c5.7-9.6,10.2-19.8,13.6-30.5
				c3.4-10.6,5.5-21.5,6.2-32.6C466.6,128.6,465.7,118.3,463.1,108.3z M312.7,146.7l-7.9,2.2l9.4-21.2l12.3-3.4L312.7,146.7z
				 M441.8,154.2c-1,8.9-2.8,17.6-5.2,26.2c-2.3,8.2-5.6,16-9.6,23.5c-3.5,6.7-8,12.8-13.2,18.2c-4.5,4.6-9.9,8.1-16,10.3
				c-5.9,2-12.3,1.8-18.1-0.5c-1.7-0.6-3.4-1.3-5-2.1c-1.6-0.8-3.2-1.7-4.7-2.8c4.9-7.2,8.9-15,12-23.2c3.4-8.7,6.5-17.8,9.2-27.2
				s5.2-18.8,7.5-28.1c2.3-9.3,4.7-18,7.2-26c2.2-7.2,4.8-14.3,8-21.2c2.9-6.1,6.3-10.4,10.2-13c5.4,4.7,9.6,10.5,12.3,17.2
				c3,7.3,4.9,15,5.7,22.8C442.9,136.9,442.8,145.6,441.8,154.2z"/>
		</g>
		<g>
			<path d="M244.8,238.5l13-71.3l18.4-5.1l-1,5.7c0.7-1,1.5-1.9,2.2-2.8c2.2-2.7,5.2-4.6,8.5-5.6c5.4-1.5,7.8,0.6,8.8,2.7
				c1.2,2.5,1.6,5.9,1.2,10.1c-0.5,4.5-1.3,9.1-2.4,13.5l-0.8,3.4c-0.9,3.6-1.7,7-2.5,10.1c-0.8,3.2-1.4,6.6-1.7,9.9
				c-0.1,0.6,0,1.2,0.1,1.7c0.1,0,0.2,0,0.4-0.1c0.3-0.1,1.3-0.5,3.5-2.4c1.9-1.7,3.2-4,3.9-6.4l0.2-0.8l5.6-1.6l-0.6,2.5
				c-0.9,3.6-2.2,7-3.9,10.3c-1.4,2.7-3.2,5.3-5.2,7.6c-1.7,1.9-3.6,3.6-5.6,5c-1.6,1.1-3.4,2-5.2,2.6c-5.6,1.6-8.2-0.5-9.3-2.5
				c-1.4-2.5-2-5.9-1.9-10c0.2-4.5,0.8-8.9,1.9-13.2c1.1-5,2.2-9.4,3.1-13.4s1.7-7.5,2.1-10.1c0.1-0.5,0.1-1.1,0.1-1.6
				c-0.5,0.4-1,0.9-1.3,1.5c-0.9,1.4-1.7,2.9-2.3,4.4c-0.7,1.8-1.4,3.8-2.1,6c-0.7,2.3-1.3,4.4-1.9,6.4l-7,38.3L244.8,238.5z
				 M260.4,169.7l-11.8,64.7l12-3.4l6.7-36.7c0.5-2,1.2-4.1,1.9-6.5s1.4-4.3,2.1-6.2c0.7-1.8,1.5-3.4,2.6-5c0.8-1.4,2-2.5,3.5-3l0,0
				c0.8-0.3,1.7-0.1,2.3,0.4c0.9,0.8,1.2,2.3,0.8,4.8c-0.4,2.7-1.1,6.1-2.1,10.4c-1,4-2,8.4-3.1,13.4c-1,4.2-1.6,8.5-1.9,12.8
				c-0.1,3.6,0.3,6.4,1.5,8.4c0.3,0.6,1.3,2.3,5.9,1.1c1.6-0.5,3.1-1.2,4.4-2.2c1.9-1.3,3.6-2.8,5-4.5c1.9-2.1,3.5-4.5,4.8-7
				c0.3-0.6,0.6-1.2,0.9-1.8c-0.5,0.6-1,1.1-1.5,1.5c-1.3,1.3-2.9,2.3-4.7,3c-1,0.4-2.2,0.2-3.1-0.5c-1-0.8-1.4-2.2-1.2-4.3
				c0.3-3.5,0.9-7,1.8-10.4c0.8-3.1,1.6-6.5,2.5-10.1l0.8-3.4c1.1-4.3,1.9-8.7,2.3-13.1c0.4-3.6,0-6.5-0.9-8.6
				c-0.3-0.6-1.1-2.3-5.2-1.1c-2.8,0.8-5.2,2.5-7.1,4.7c-2.4,2.8-4.4,5.9-6.1,9.2l-4.6,9l3.5-18.9L260.4,169.7z"/>
		</g>
		<g>
			<path d="M344.7,209.7c-3.8,0-6.8-1.9-8.7-5.6c-2.4-4.6-2.6-11.7-0.7-21.8l5.1-26.6l-5.4,1.5l-1.1-10.4l8.7-2.4L348,115l18.3-5.1
				l-2.1,11.3c-0.5,2.7-1.1,5.9-1.7,9.3c-0.5,2.6-1,5.5-1.6,8.6l9.9-2.8l1.1,10.5l-13,3.6l-5.2,28c-1.3,6-1.7,10.3-1.4,12.9
				c0.2,1.8,0.4,1.8,2,2.1c0.9,0.2,3.2-0.6,4.6-2.7l0.8-1.3c1.5-2.1,2.9-4.4,4-6.7c0.5-1.1,1-2.1,1.5-3.1c0.9-1.8,1.8-3.6,2.5-5.5
				c0.5-1.3,1.2-3.1,1.9-4.9c1-2.6,2-5.2,2.3-6.1l2.9,0.8c-0.7,2.9-1.9,6.8-3.5,11.5c-1.6,4.8-3.5,9.5-5.8,14
				c-2.1,4.4-4.7,8.5-7.6,12.4c-2.9,3.8-6.1,6.3-9.5,7.2C347.3,209.5,346,209.7,344.7,209.7z M344.2,151.5l-6,31.4
				c-1.8,9.3-1.6,16,0.4,19.9c1.9,3.6,4.8,4.7,9.1,3.5c2.8-0.8,5.5-2.8,8-6.1c1.3-1.6,2.5-3.4,3.6-5.3c-1.6,1.3-3.6,1.9-5.6,1.7
				c-2.2-0.4-3.9-1.1-4.4-4.7c-0.4-3,0.1-7.5,1.4-13.9l5.5-29.8l12.4-3.4l-0.5-4.4l-11.2,3.1l0.5-2.4c0.8-4.1,1.5-7.7,2-10.9
				c0.6-3.5,1.2-6.6,1.7-9.4l1.2-6.6l-11.8,3.3l-5.5,29.3l-8,2.2l0.5,4.4L344.2,151.5z"/>
		</g>
		<g>
			<line x1="332.5" y1="203.9" x2="334.6" y2="203.8"/>
		</g>
		<g>
			<path d="M204.3,649.5c-0.4,0-0.8-0.1-1.2-0.4c-6.7-5-8.3-12.7-4.5-21c0.5-1,1.6-1.4,2.7-1c1,0.5,1.4,1.6,1,2.7
				c-2.1,4.6-3.3,11.2,3.3,16.1c0.9,0.7,1.1,1.9,0.4,2.8C205.5,649.2,204.9,649.5,204.3,649.5z"/>
		</g>
		<g>
			<path d="M226.6,656.1c-2.1,0-4.3-0.2-6.6-0.6c-7.3-1.3-13-3.5-17-6.5c-0.9-0.7-1.1-1.9-0.4-2.8c0.7-0.9,1.9-1.1,2.8-0.4
				c3.4,2.6,8.5,4.5,15.2,5.7c7.6,1.4,14.2,0.1,17.4-3.2c1.7-1.8,2.2-4.1,1.5-6.8c-1-4-4.2-8.5-8.4-12c-0.9-0.7-1-2-0.3-2.8
				c0.7-0.8,2-1,2.8-0.3c4.8,4,8.5,9.3,9.7,14c1,4,0.2,7.7-2.5,10.6C238,654.4,232.8,656.1,226.6,656.1z"/>
		</g>
		<g>
			<path d="M224.6,650.7c-1.5,0-3.1-0.1-4.8-0.4c-8.9-1.6-14.3-4.9-16.3-9.8c-2.6-6.4,2-12.8,2.2-13c0.2-0.2,0.4-0.4,0.6-0.5
				c0,0,0.1-0.1,0.2-0.1c0.9-0.6,2.1-0.4,2.8,0.5s0.4,2.1-0.4,2.8c0,0-0.1,0-0.1,0.1c-0.7,1.1-3,5.2-1.5,8.9c1.4,3.5,6,6,13.3,7.4
				c5.2,0.9,9.7,0.1,11.8-2.1c1.1-1.2,1.4-2.6,0.9-4.3c-0.9-3.7-4.7-8-9.1-10.5c-1-0.5-1.3-1.7-0.8-2.7c0.5-1,1.7-1.3,2.7-0.8
				c5.5,3,9.8,8.1,11,13c0.8,3,0.1,5.8-1.9,8C233,649.4,229.2,650.7,224.6,650.7z"/>
		</g>
		<g>
			<path d="M234.8,630.2c-0.1,0-0.2,0-0.2,0c-0.7-0.1-1.5-0.2-2.2-0.2c-1.1-0.1-1.9-1-1.8-2.1c0.1-1.1,1-1.9,2.1-1.8
				c0.8,0.1,1.6,0.1,2.4,0.2c1.1,0.1,1.9,1.1,1.7,2.2C236.7,629.5,235.8,630.2,234.8,630.2z"/>
		</g>
		<g>
			<path d="M232.5,630c0,0-0.1,0-0.2,0c-2.6-0.2-4.9-0.3-7.2-0.3c-1.1,0-2-0.9-2-2s0.9-2,2-2c2.4,0,4.8,0.1,7.5,0.3
				c1.1,0.1,1.9,1,1.8,2.1C234.4,629.2,233.5,630,232.5,630z"/>
		</g>
		<g>
			<path d="M477.3,649.5c-0.6,0-1.2-0.3-1.6-0.8c-0.7-0.9-0.5-2.1,0.4-2.8c6.6-4.9,5.4-11.5,3.3-16.1c-0.5-1,0-2.2,1-2.7
				c1-0.5,2.2,0,2.7,1c3.8,8.3,2.1,15.9-4.5,21C478.1,649.4,477.7,649.5,477.3,649.5z"/>
		</g>
		<g>
			<path d="M454.9,656.2c-6.2,0-11.3-1.8-14.4-5.1c-2.6-2.8-3.5-6.6-2.5-10.6c1.3-4.9,4.8-10,9.8-14c0.9-0.7,2.1-0.6,2.8,0.3
				c0.7,0.9,0.6,2.1-0.3,2.8c-4.2,3.5-7.4,7.9-8.4,12c-0.7,2.7-0.2,5,1.5,6.9c3.1,3.4,9.8,4.6,17.4,3.2c6.7-1.2,11.8-3.1,15.2-5.7
				c0.9-0.7,2.1-0.5,2.8,0.4c0.7,0.9,0.5,2.1-0.4,2.8c-3.9,3-9.6,5.2-17,6.5C459.2,656,457,656.2,454.9,656.2z"/>
		</g>
		<g>
			<path d="M456.9,650.7c-4.5,0-8.3-1.3-10.6-3.8c-2-2.2-2.7-5-1.9-8c1.2-4.9,5.6-9.9,11-13c1-0.5,2.2-0.2,2.7,0.8
				c0.5,1,0.2,2.2-0.8,2.7c-4.4,2.4-8.1,6.7-9.1,10.4c-0.4,1.7-0.1,3.1,0.9,4.3c2.1,2.2,6.6,3.1,11.8,2.1c7.3-1.3,11.9-3.9,13.3-7.4
				c1.5-3.7-0.8-7.8-1.5-8.9c0,0-0.1,0-0.1-0.1c-0.9-0.7-1.1-1.9-0.4-2.8c0.7-0.9,1.9-1.1,2.8-0.4c0.1,0,0.2,0.1,0.2,0.1
				c0.2,0.1,0.4,0.3,0.6,0.5c0.2,0.3,4.7,6.6,2.2,13c-2,4.9-7.5,8.2-16.3,9.8C460.1,650.5,458.4,650.7,456.9,650.7z"/>
		</g>
		<g>
			<path d="M446.7,630.2c-1,0-1.9-0.7-2-1.8c-0.1-1.1,0.7-2.1,1.7-2.2c0.8-0.1,1.6-0.2,2.4-0.2c1.1-0.1,2.1,0.7,2.1,1.8
				c0.1,1.1-0.7,2.1-1.8,2.1c-0.8,0.1-1.5,0.1-2.2,0.2C446.9,630.2,446.8,630.2,446.7,630.2z"/>
		</g>
		<g>
			<path d="M240.3,680.3c-0.8,0-1.5-0.4-1.8-1.2c-0.5-1,0-2.2,1-2.6c18.4-8.3,34-10.6,46.1-6.7c1.1,0.3,1.6,1.5,1.3,2.5
				c-0.3,1.1-1.5,1.6-2.5,1.3c-14-4.4-31.2,1.1-43.3,6.6C240.8,680.3,240.6,680.3,240.3,680.3z"/>
		</g>
		<g>
			<path d="M291.1,669.7c-0.1,0-0.2,0-0.3,0c-1.1-0.2-1.8-1.2-1.6-2.3c1-5.9,0.2-17.6-2.3-33.9c-0.2-1.1,0.6-2.1,1.7-2.3
				c1.1-0.2,2.1,0.6,2.3,1.7c2.6,17,3.4,28.8,2.3,35.2C292.9,669,292.1,669.7,291.1,669.7z"/>
		</g>
		<g>
			<path class="st0" d="M340.1,591.9"/>
		</g>
		<g>
			<path class="st0" d="M341.4,592"/>
		</g>
		<g>
			<path d="M286,618.8c-0.9,0-1.7-0.6-1.9-1.5c-3.8-15.4-11.4-29.7-21.2-40.3c-0.8-0.8-0.7-2.1,0.1-2.8c0.8-0.8,2.1-0.7,2.8,0.1
				c10.3,11.1,18.1,26,22.1,42c0.3,1.1-0.4,2.2-1.5,2.4C286.3,618.8,286.1,618.8,286,618.8z"/>
		</g>
		<g>
			<path d="M288.6,633.5c-1,0-1.9-0.8-2-1.8c-0.5-4.6-1.3-9.2-2.4-13.7c-0.3-1.1,0.4-2.2,1.5-2.4c1.1-0.3,2.2,0.4,2.4,1.5
				c1.2,4.7,2,9.5,2.5,14.3c0.1,1.1-0.7,2.1-1.8,2.2C288.7,633.5,288.6,633.5,288.6,633.5z"/>
		</g>
		<g>
			<path d="M346.5,691.4c-0.7,0-1.3-0.2-1.8-0.4c-0.8-0.3-2.5-1.1-3.9-5.1c-1.2,3.4-2.7,4.5-4,5c-1.3,0.6-3.5,0.7-6.3-1.6
				c-0.8-0.7-0.9-2-0.2-2.8c0.7-0.8,2-0.9,2.8-0.2c0.9,0.8,1.7,1.2,2.2,1c0.3-0.1,2.6-1.4,3.4-12.4v-2.4c0-1.1,0.9-2,2-2
				c1.1-0.1,2,0.8,2,1.9c0.5,10.8,2.5,14.5,3.5,14.9c0.4,0.2,1.2-0.2,2.2-1c0.8-0.7,2.1-0.6,2.8,0.2c0.7,0.8,0.6,2.1-0.2,2.8
				C349.2,690.9,347.7,691.4,346.5,691.4z"/>
		</g>
		<g>
			<path d="M334.1,674.9c-0.2,0-0.4,0-0.6-0.1c-1-0.3-1.6-1.5-1.3-2.5c1.9-5.7,5.4-19.2-3-22.5l-0.7-0.3c-8.2-3.8-9.9-13.5-10-20.9
				c-5.5,4.7-15.6,7-29.7,6.6c-1.1,0-2-1-1.9-2.1c0-1.1,1-2,2.1-1.9c10.5,0.3,28-0.7,30.1-10.8c0.1-0.5,0.1-0.8,0.2-0.9
				c0.2-1.1,1.2-1.8,2.3-1.6c1.1,0.2,1.8,1.2,1.7,2.2c0,0.3-0.1,0.6-0.1,0.9c-0.6,3.9-2.4,20.5,7.1,24.8l0.6,0.3
				c8.2,3.2,10.1,13,5.3,27.5C335.7,674.4,334.9,674.9,334.1,674.9z"/>
		</g>
		<g>
			<path d="M322.2,618.6c-0.4,0-0.8-0.1-1.2-0.4c-0.7-0.5-1-1.3-0.8-2.1c2.3-9.7-17-22.1-24.7-26.1c-1-0.5-1.4-1.7-0.9-2.7
				c0.5-1,1.6-1.4,2.6-0.9c10.3,4.7,37.9,11.8,43.4,13.1c1.1,0.3,1.7,1.4,1.5,2.4c-0.3,1.1-1.4,1.7-2.4,1.5
				c-3.6-0.9-16.5-4.2-28.1-7.7c0,0,0.1,0.1,0.1,0.1c7.7,6.1,11.9,11.9,12.6,17.2c4-2.2,10.5-5.2,14.6-4c1.5,0.4,2.6,1.3,3.2,2.7
				c0.5,1,0.1,2.2-0.9,2.7c-1,0.5-2.2,0.1-2.7-0.9c-0.1-0.2-0.3-0.4-0.7-0.6c-2.9-0.8-10.2,2.7-14.6,5.5
				C322.9,618.5,322.5,618.6,322.2,618.6z"/>
		</g>
		<g>
			<path d="M395.6,618.9c-0.2,0-0.3,0-0.5-0.1c-1.1-0.3-1.7-1.4-1.5-2.4c4-16,11.8-30.9,22.1-42c0.8-0.8,2-0.9,2.8-0.1
				c0.8,0.8,0.9,2,0.1,2.8c-9.8,10.6-17.4,24.9-21.2,40.3C397.3,618.3,396.5,618.9,395.6,618.9z"/>
		</g>
		<g>
			<path d="M393,633.5c-0.1,0-0.1,0-0.2,0c-1.1-0.1-1.9-1.1-1.8-2.2c0.5-4.8,1.3-9.6,2.5-14.3c0.3-1.1,1.4-1.7,2.4-1.5
				c1.1,0.3,1.7,1.4,1.5,2.4c-1.1,4.5-1.9,9.1-2.4,13.7C394.9,632.8,394,633.5,393,633.5z"/>
		</g>
		<g>
			<path d="M346,701.5c-1.2,0-2.3-0.3-3.2-0.8c-3.5-1.9-3.9-6.3-3.9-6.8c-0.1-1.1,0.7-2.1,1.9-2.1c1.1-0.1,2.1,0.7,2.1,1.9
				c0.1,0.7,0.5,2.8,1.9,3.6c1.4,0.8,3.7-0.1,5.3-0.9c1-0.5,2.2-0.1,2.7,0.8c0.5,1,0.1,2.2-0.8,2.7
				C349.7,700.9,347.8,701.5,346,701.5z"/>
		</g>
		<g>
			<path d="M335.5,701.5c-1.7,0-3.7-0.6-5.8-1.7c-1-0.5-1.3-1.7-0.8-2.7c0.5-1,1.7-1.3,2.7-0.8c1.6,0.9,3.8,1.7,5.3,0.9
				c1.3-0.7,1.8-2.8,1.9-3.6c0.1-1.1,1.1-1.9,2.1-1.8c1.1,0.1,1.9,1,1.8,2.1c0,0.5-0.4,4.9-3.9,6.8
				C337.8,701.2,336.7,701.5,335.5,701.5z"/>
		</g>
		<g>
			<path d="M347.5,674.9c-0.8,0-1.6-0.5-1.9-1.4c-4.8-14.5-2.9-24.3,5.3-27.5l0.6-0.3c9.5-4.3,7.6-20.9,7.1-24.8
				c-0.1-0.3-0.1-0.6-0.2-0.9c-0.1-1.1,0.6-2.1,1.7-2.2c1.1-0.2,2.1,0.5,2.3,1.6c0,0.1,0.1,0.4,0.2,0.9c2.1,10,19.7,11.1,30.1,10.8
				c1.1-0.1,2,0.8,2.1,1.9c0,1.1-0.8,2-1.9,2.1c-14.1,0.4-24.2-1.9-29.7-6.6c-0.1,7.4-1.8,17.2-10,20.9l-0.7,0.3
				c-8.4,3.3-4.9,16.9-3.1,22.5c0.3,1-0.2,2.2-1.3,2.5C347.9,674.9,347.7,674.9,347.5,674.9z"/>
		</g>
		<g>
			<path d="M340.8,595.5c-0.2,0-0.4,0-0.7-0.1c-1-0.4-1.6-1.5-1.2-2.6c0.2-0.5,0.4-1,0.6-1.5l0.1-0.2c0.4-1,1.6-1.5,2.6-1.1
				c1,0.4,1.5,1.6,1.1,2.6l-0.1,0.2c-0.2,0.4-0.3,0.8-0.5,1.3C342.4,595,341.7,595.5,340.8,595.5z"/>
		</g>
		<g>
			<path d="M340.7,595.5c-0.8,0-1.6-0.5-1.9-1.4c-0.1-0.3-0.2-0.7-0.4-1l-0.2-0.5c-0.4-1,0.1-2.2,1.1-2.6c1-0.4,2.2,0.1,2.6,1.1
				l0.2,0.5c0.2,0.4,0.3,0.8,0.4,1.2c0.3,1-0.2,2.2-1.3,2.5C341.1,595.5,340.9,595.5,340.7,595.5z"/>
		</g>
		<g>
			<path d="M390.4,669.7c-1,0-1.8-0.7-2-1.7c-1.4-7.9,0.5-23.5,2.3-35.2c0.2-1.1,1.2-1.8,2.3-1.7c1.1,0.2,1.8,1.2,1.7,2.3
				c-2.5,16.3-3.3,28-2.3,33.9c0.2,1.1-0.5,2.1-1.6,2.3C390.7,669.7,390.5,669.7,390.4,669.7z"/>
		</g>
		<g>
			<path d="M441.2,680.4c-0.3,0-0.6-0.1-0.8-0.2c-12-5.4-29.3-11-43.3-6.6c-1.1,0.3-2.2-0.2-2.5-1.3c-0.3-1.1,0.2-2.2,1.3-2.5
				c12.2-3.9,27.7-1.6,46.1,6.7c1,0.5,1.5,1.6,1,2.6C442.7,679.9,442,680.3,441.2,680.4z"/>
		</g>
		<g>
			<path d="M359.4,618.6c-0.4,0-0.7-0.1-1.1-0.3c-4.3-2.8-11.7-6.3-14.6-5.5c-0.5,0.1-0.6,0.3-0.7,0.6c-0.5,1-1.7,1.4-2.7,0.9
				c-1-0.5-1.4-1.7-0.9-2.7c0.6-1.3,1.8-2.2,3.2-2.7c0.9-0.2,5.4-1.1,14.6,4c0.7-5.3,4.9-11,12.6-17.1c0,0,0.1-0.1,0.1-0.1
				c-11.6,3.5-24.5,6.8-28.1,7.7c-1.1,0.3-2.2-0.4-2.4-1.5c-0.3-1.1,0.4-2.2,1.5-2.4c5.4-1.4,33.1-8.4,43.4-13.1
				c1-0.5,2.2,0,2.6,0.9s0.1,2.2-0.9,2.7c-7.6,4-27,16.3-24.7,26.1c0.2,0.8-0.1,1.6-0.8,2.1C360.2,618.5,359.8,618.6,359.4,618.6z"
				/>
		</g>
		<g>
			<path d="M288.6,633.5c-1,0-1.8-0.7-2-1.7c-1.1-6.8-2.1-12.1-2.4-13.9l3.9-0.8l-2,0.4l2-0.3c0.3,1.8,1.4,7.2,2.5,14
				c0.2,1.1-0.6,2.1-1.7,2.3C288.8,633.5,288.7,633.5,288.6,633.5z"/>
		</g>
		<g>
			<path d="M393,633.5c-0.1,0-0.2,0-0.3,0c-1.1-0.2-1.8-1.2-1.7-2.3c1.1-6.9,2.1-12.3,2.5-14c0.2-1.1,1.3-1.8,2.3-1.6
				c1.1,0.2,1.8,1.2,1.6,2.3c-0.3,1.8-1.4,7.1-2.4,13.9C394.8,632.8,394,633.5,393,633.5z"/>
		</g>
		<g>
			<path d="M203.9,550c-0.5,0-1-0.2-1.4-0.6c-8.4-8.2-16.3-13.5-23.4-15.5c-1.1-0.3-1.7-1.4-1.4-2.5c0.3-1.1,1.4-1.7,2.5-1.4
				c7.8,2.2,16.3,7.8,25.1,16.5c0.8,0.8,0.8,2,0,2.8C204.9,549.8,204.4,550,203.9,550z"/>
		</g>
		<g>
			<path d="M247.7,536.2c-0.7,0-1.4-0.4-1.8-1c-0.5-1-0.2-2.2,0.8-2.7c21.1-11.6,38.7-24.2,52.2-37.3c0.8-0.8,2.1-0.7,2.8,0
				s0.7,2.1,0,2.8c-13.8,13.4-31.7,26.1-53.1,37.9C248.4,536.1,248.1,536.2,247.7,536.2z"/>
		</g>
		<g>
			<path d="M264.3,577.7c-0.5,0-1.1-0.2-1.5-0.6c-10.9-11.8-23.6-18-32.5-15.9c-6.7,1.6-11.8,5.8-15.1,12.5c-0.3,0.6-0.9,1-1.6,1.1
				c-0.7,0.1-1.3-0.2-1.8-0.7c-1.8-2.2-3.2-4.6-4.2-7.3c-2.3-5.9-4.3-12-5.8-18.2c-0.3-1.1,0.4-2.2,1.5-2.4c1.1-0.3,2.2,0.4,2.4,1.5
				c1.5,6,3.4,12,5.7,17.7c0.5,1.3,1.1,2.5,1.7,3.7c3.8-6.1,9.2-10.1,16.2-11.8c10.4-2.5,24.3,4.1,36.4,17.1
				c0.8,0.8,0.7,2.1-0.1,2.8C265.3,577.5,264.8,577.7,264.3,577.7z"/>
		</g>
		<g>
			<path d="M268.8,567.1c-0.7,0-1.3-0.3-1.7-0.9c-10.9-16.1-27.4-12.3-28.1-12.1c-0.1,0-0.3,0.1-0.5,0.1c-6.4,0.1-12.1-2.6-17.1-8.1
				c-0.3,0.8-0.7,1.5-1.4,2c-2.5,1.7-5.9-0.5-9.4-2.8c-1.5-1-4.2-2.7-5.2-2.9c-0.1,0.4-0.3,1.8,0.4,5.2c0.2,1.1-0.5,2.1-1.5,2.4
				c-1.1,0.2-2.1-0.5-2.4-1.5c-0.8-3.7-1.3-7.8,1.2-9.5c2.6-1.8,6.1,0.5,9.7,2.9c1.5,1,3.8,2.5,4.9,2.8c0.1-0.5,0.1-1.7-0.4-4.3
				c-0.2-0.9,0.3-1.9,1.2-2.3c0.9-0.4,1.9-0.1,2.4,0.7c5,7.5,10.8,11.4,17.3,11.4c0,0,0,0,0,0c2.3-0.5,18.5-3.2,30.2,11.2
				c4.4-7.5,18.2-26.7,45-27.3c-1.8-1.2-4.1-2.6-6.8-3.8c-9.5-4.1-19.7-4.4-30.4-0.8c-1,0.3-2.2-0.2-2.5-1.3c-0.3-1,0.2-2.2,1.3-2.5
				c14.6-4.8,26.3-2.1,33.4,1c7.8,3.4,12.1,8,12.3,8.2c0.6,0.6,0.7,1.5,0.3,2.2c-0.4,0.7-1.1,1.2-2,1.1c-34.6-2.7-48,26.4-48.5,27.6
				c-0.3,0.7-0.9,1.1-1.7,1.2C268.9,567.1,268.8,567.1,268.8,567.1z"/>
		</g>
		<g>
			<path d="M275.6,529.6c-0.7,0-1.4-0.4-1.8-1.1c-0.5-1-0.1-2.2,0.9-2.7c19.3-10,43.4-20.7,57.6-15.4c2.5,0.9,4.6,2.3,6.3,4.2
				l0-16.8c0-1.1,0.9-2,2-2c0,0,0,0,0,0c1.1,0,2,0.9,2,2l0.1,23.8c0,1-0.7,1.8-1.6,2c-0.9,0.2-1.9-0.3-2.2-1.2
				c-1.6-4.1-4.2-6.7-7.9-8.1c-12.9-4.9-37.2,6.3-54.3,15.2C276.3,529.5,276,529.6,275.6,529.6z"/>
		</g>
		<g>
			<path d="M275.4,571.5c-0.5,0-1-0.2-1.4-0.5c-0.6-0.6-0.8-1.6-0.4-2.4c0.7-1.3,1.3-2.6,1.9-3.8c5-10.1,8.9-18.1,27-24.8l0,0
				c12.5-4.6,21.8-1,27.4,2.9c0.1,0,5.7,4.1,5.7,6.1c0,0.7-0.4,1.4-1,1.8c-0.6,0.4-1.4,0.3-2-0.1c-7.5-4.7-38.5,10.1-56.2,20.5
				C276.1,571.4,275.7,571.5,275.4,571.5z M313.8,541.8c-3,0-6.3,0.5-9.9,1.9l0,0c-15.4,5.7-19.5,12.1-23.8,20.8
				c10.9-6,33.7-17.8,47.1-18.6C324.1,543.8,319.6,541.8,313.8,541.8z M303.2,541.8L303.2,541.8L303.2,541.8z"/>
		</g>
		<g>
			<path d="M417.2,577.7c-0.5,0-1-0.2-1.4-0.5c-0.8-0.8-0.9-2-0.1-2.8c12-13,26-19.5,36.4-17.1c6.9,1.6,12.4,5.6,16.2,11.8
				c0.7-1.1,1.3-2.4,1.7-3.6c2.3-5.8,4.2-11.8,5.7-17.8c0.3-1.1,1.3-1.7,2.4-1.5c1.1,0.3,1.7,1.3,1.5,2.4
				c-1.5,6.2-3.5,12.3-5.8,18.3c-0.9,2.6-2.3,5.1-4.1,7.2c-0.4,0.5-1.1,0.8-1.8,0.7c-0.7-0.1-1.3-0.5-1.6-1.1
				c-3.3-6.7-8.4-10.9-15.1-12.5c-8.9-2.1-21.6,4.1-32.5,15.9C418.3,577.5,417.8,577.7,417.2,577.7z"/>
		</g>
		<g>
			<path d="M341.4,594c-0.2,0-0.5,0-0.7-0.1c-1-0.4-1.5-1.6-1.1-2.6c12.5-31.9,46-24.5,75.7-18l2.4,0.5c1.1,0.2,1.8,1.3,1.5,2.4
				c-0.2,1.1-1.3,1.8-2.4,1.5l-2.4-0.5c-29.4-6.5-59.9-13.2-71.1,15.5C343,593.5,342.2,594,341.4,594z"/>
		</g>
		<g>
			<path d="M340.1,593.9c-0.8,0-1.6-0.5-1.9-1.3c-11.2-28.7-41.6-22-71.1-15.5l-2.4,0.5c-1.1,0.2-2.1-0.4-2.4-1.5
				c-0.2-1.1,0.4-2.1,1.5-2.4l2.4-0.5c29.6-6.5,63.2-13.9,75.7,18c0.4,1-0.1,2.2-1.1,2.6C340.6,593.9,340.4,593.9,340.1,593.9z"/>
		</g>
		<g>
			<path d="M412.8,567.1c-0.1,0-0.1,0-0.2,0c-0.7-0.1-1.4-0.5-1.7-1.2c-0.6-1.2-13.9-30.4-48.5-27.6c-0.8,0.1-1.6-0.4-2-1.1
				c-0.4-0.7-0.2-1.6,0.3-2.2c0.2-0.2,17.7-18.5,45.7-9.2c1,0.3,1.6,1.5,1.3,2.5s-1.5,1.6-2.5,1.3c-10.7-3.6-20.9-3.3-30.4,0.8
				c-2.8,1.2-5,2.6-6.8,3.8c26.8,0.6,40.6,19.8,45,27.3c11.7-14.4,27.9-11.7,30.2-11.2c0,0,0,0,0,0c6.6,0,12.4-3.8,17.3-11.4
				c0.5-0.8,1.6-1.1,2.4-0.8c0.9,0.4,1.4,1.3,1.2,2.3c-0.6,2.6-0.5,3.8-0.4,4.3c1.1-0.2,3.5-1.8,4.9-2.8c3.7-2.4,7.1-4.7,9.7-2.9
				c2.4,1.7,2,5.7,1.2,9.5c-0.2,1.1-1.3,1.8-2.4,1.5c-1.1-0.2-1.8-1.3-1.5-2.4c0.7-3.5,0.6-4.8,0.4-5.2c-1.1,0.1-3.8,1.9-5.2,2.9
				c-3.6,2.3-7,4.5-9.5,2.8c-0.7-0.5-1.2-1.2-1.4-2c-5,5.5-10.7,8.2-17.1,8.1c-0.2,0-0.3,0-0.5-0.1c-0.7-0.2-17.1-4-28.1,12.1
				C414.1,566.8,413.4,567.1,412.8,567.1z"/>
		</g>
		<g>
			<path d="M179.6,534c-0.8,0-1.6-0.5-1.9-1.3c-0.4-1,0.1-2.2,1.2-2.6c8.1-3,15.6-7.2,22.3-12.5c0.5-0.4,1.1-0.5,1.6-0.4
				c1.8,0.4,3.6,0.8,5.4,1.4c-0.5-1.9-1-3.9-1.3-5.9c-0.2-0.8,0.2-1.7,1-2.1c0.8-0.4,1.7-0.3,2.3,0.3c0.1,0.1,12.6,11.4,26.8,17.6
				c1,0.4,1.5,1.6,1,2.6c-0.4,1-1.6,1.5-2.6,1c-9.6-4.2-18.3-10.5-23.3-14.5c0.3,1.2,0.7,2.4,1,3.6c0.2,0.7,0,1.6-0.6,2.1
				c-0.6,0.5-1.4,0.7-2.1,0.3c-2.4-1.1-4.9-1.9-7.5-2.5c-6.9,5.3-14.5,9.5-22.7,12.5C180.1,534,179.8,534,179.6,534z"/>
		</g>
		<g>
			<path d="M236.2,532.4C236.2,532.4,236.2,532.4,236.2,532.4c-1.2,0-2-1-2-2.1c0.1-3.4,0.5-6.9,1-10.3c0.2-1.1,1.2-1.8,2.3-1.6
				c1.1,0.2,1.8,1.2,1.6,2.3c-0.5,3.2-0.9,6.5-1,9.7C238.2,531.6,237.3,532.4,236.2,532.4z"/>
		</g>
		<g>
			<path d="M501.9,534c-0.2,0-0.5,0-0.7-0.1c-8.2-3-15.8-7.2-22.7-12.5c-2.6,0.6-5.1,1.4-7.5,2.5c-0.7,0.3-1.6,0.2-2.1-0.3
				c-0.6-0.5-0.8-1.3-0.6-2.1c0.4-1.2,0.7-2.4,1-3.6c-5,4-13.7,10.3-23.3,14.5c-1,0.4-2.2,0-2.6-1c-0.4-1,0-2.2,1-2.6
				c14.2-6.3,26.7-17.6,26.8-17.7c0.6-0.6,1.6-0.7,2.3-0.3c0.8,0.4,1.1,1.3,1,2.1c-0.4,2-0.8,3.9-1.3,5.9c1.8-0.6,3.6-1.1,5.4-1.4
				c0.6-0.1,1.2,0,1.6,0.4c6.7,5.3,14.3,9.5,22.3,12.5c1,0.4,1.6,1.5,1.2,2.6C503.5,533.5,502.7,534,501.9,534z"/>
		</g>
		<g>
			<path d="M405.9,529.6c-0.3,0-0.6-0.1-0.9-0.2c-17.3-8.9-41.7-20.2-54.5-15.1c-3.8,1.5-6.4,4.3-7.9,8.6c-0.4,1-1.5,1.6-2.6,1.2
				c-1-0.4-1.6-1.5-1.2-2.6c1.9-5.4,5.3-9.1,10.2-11c14.2-5.6,38.4,5.2,57.9,15.3c1,0.5,1.4,1.7,0.9,2.7
				C407.3,529.2,406.6,529.6,405.9,529.6z"/>
		</g>
		<g>
			<path d="M445.3,532.5c-1.1,0-2-0.9-2-1.9c-0.1-3.2-0.4-6.5-1-9.7c-0.2-1.1,0.6-2.1,1.6-2.3c1.1-0.2,2.1,0.6,2.3,1.6
				c0.6,3.4,0.9,6.8,1,10.3C447.3,531.5,446.5,532.5,445.3,532.5C445.3,532.5,445.3,532.5,445.3,532.5z"/>
		</g>
		<g>
			<path d="M433.8,536.2c-0.3,0-0.7-0.1-1-0.2c-21.4-11.7-39.3-24.5-53.1-37.9c-0.8-0.8-0.8-2,0-2.8c0.8-0.8,2-0.8,2.8,0
				c13.6,13.2,31.1,25.7,52.2,37.3c1,0.5,1.3,1.7,0.8,2.7C435.2,535.8,434.5,536.2,433.8,536.2z"/>
		</g>
		<g>
			<path d="M406.2,571.5c-0.3,0-0.7-0.1-1-0.3c-17.8-10.4-48.7-25.2-56.2-20.5c-0.8,0.5-1.9,0.4-2.5-0.3c-0.7-0.7-0.7-1.8-0.1-2.6
				c0.1-0.2,12.1-15.4,32.8-7.7c18.1,6.7,22,14.7,27,24.7c0.6,1.2,1.2,2.5,1.9,3.8c0.4,0.8,0.2,1.8-0.4,2.4
				C407.2,571.3,406.7,571.5,406.2,571.5z M354.3,545.9c13.4,0.8,36.3,12.5,47.2,18.6c-4.3-8.6-8.4-15.1-23.8-20.7
				C366.8,539.8,358.9,542.8,354.3,545.9z"/>
		</g>
		<g>
			<path d="M254.1,536.8c-2.1,0-4.4-0.2-6.7-0.7c-1.1-0.2-1.8-1.3-1.6-2.3c0.2-1.1,1.3-1.8,2.3-1.6c6.3,1.2,11.7,0.6,16-1.8
				c3.5-1.9,7.1-3.5,10.9-4.7c1-0.3,2.2,0.2,2.5,1.3c0.3,1-0.2,2.2-1.3,2.5c-3.5,1.2-6.9,2.7-10.2,4.5
				C262.6,535.9,258.5,536.8,254.1,536.8z"/>
		</g>
		<g>
			<path d="M247.7,536.2c-0.1,0-0.3,0-0.4,0c-4.1-0.8-8.1-2.1-11.9-3.9c-1-0.5-1.5-1.6-1-2.6c0.5-1,1.6-1.5,2.6-1
				c3.5,1.6,7.3,2.8,11.1,3.6c1.1,0.2,1.8,1.3,1.6,2.4C249.5,535.5,248.7,536.2,247.7,536.2z"/>
		</g>
		<g>
			<path d="M427.4,536.9c-4.4,0-8.4-1-12-2.9c-3.3-1.8-6.7-3.3-10.2-4.5c-1-0.3-1.6-1.5-1.3-2.5c0.3-1,1.5-1.6,2.5-1.3
				c3.7,1.2,7.4,2.8,10.9,4.7c4.4,2.4,9.8,3,16,1.8c1.1-0.2,2.1,0.5,2.3,1.6c0.2,1.1-0.5,2.1-1.6,2.3
				C431.8,536.6,429.6,536.9,427.4,536.9z"/>
		</g>
		<g>
			<path d="M433.8,536.2c-0.9,0-1.8-0.7-2-1.6c-0.2-1.1,0.5-2.1,1.6-2.4c3.8-0.8,7.5-2,11.1-3.6c1-0.5,2.2,0,2.6,1
				c0.5,1,0,2.2-1,2.6c-3.8,1.7-7.8,3-11.9,3.9C434.1,536.2,433.9,536.2,433.8,536.2z"/>
		</g>
		<g>
			<path d="M340.5,499.8c-0.1,0-0.2,0-0.3,0c-13.1-1.7-26.5-2.1-39.7-1.3c-1.1,0.1-2.1-0.8-2.1-1.9c-0.1-1.1,0.8-2.1,1.9-2.1
				c13.5-0.9,27.1-0.4,40.5,1.3c1.1,0.1,1.9,1.1,1.7,2.2C342.4,499.1,341.5,499.8,340.5,499.8z"/>
		</g>
		<g>
			<path d="M304.3,475c-7,0-14.2-4.6-20.5-8.5c-4.9-3.1-9.5-6-13.4-6.7c-5.2-0.9-8,1.3-12.3,4.6c-3.3,2.6-7.5,5.8-13.9,8.1
				c-1,0.4-2.2-0.2-2.6-1.2s0.2-2.2,1.2-2.6c5.8-2.1,9.5-4.9,12.8-7.5c4.5-3.5,8.5-6.6,15.4-5.4c4.7,0.8,9.6,3.9,14.8,7.2
				c12,7.6,20.4,11.9,27.8,2.8c2.5-3.1,5.2-5.9,8.3-8.5c0.8-0.7,2.1-0.6,2.8,0.2c0.7,0.8,0.6,2.1-0.2,2.8c-2.8,2.4-5.4,5.1-7.7,8
				C313,473.2,308.7,475,304.3,475z"/>
		</g>
		<g>
			<path d="M237.2,522.4c-1.1,0-2-0.9-2-2c0-1.1,0.9-2,2-2c3.4-0.1,9.6-1.9,19.8-10.3c9.2-7.6,23.8-12.2,43.2-13.6
				c1.1-0.1,2.1,0.8,2.1,1.9s-0.7,2.1-1.9,2.1c-18.6,1.3-32.4,5.6-41,12.7C250.7,518.5,243.2,522.3,237.2,522.4
				C237.3,522.4,237.3,522.4,237.2,522.4z"/>
		</g>
		<g>
			<path d="M459.3,450.8c-0.5,0-0.9-0.2-1.3-0.5c-17.6-9.4-33.4-4.1-33.5-4c-0.5,0.2-1.1,0.1-1.6-0.1c-0.2-0.1-24.4-12.6-40-6
				c-17.1,7.3-41.7,7.6-42,7.6c-1.1,0-25.3-0.4-42.2-7.6c-15.7-6.6-39.8,5.9-40,6c-0.5,0.3-1.1,0.3-1.6,0.1c-0.2-0.1-16-5.3-33.6,4
				c-0.8,0.7-2,0.6-2.7-0.1c-0.8-0.8-0.8-2,0-2.8l0.1-0.1c0.1-0.1,0.3-0.3,0.5-0.3c17.1-9.2,32.4-5.8,36.2-4.7
				c4.4-2.2,26.7-12.5,42.7-5.8c16.2,6.8,40.4,7.3,40.7,7.3c4.9,0,26.2-1.2,40.4-7.3c15.9-6.8,38.2,3.6,42.7,5.8
				c3.7-1.1,19.1-4.6,36.2,4.7c0.2,0.1,0.4,0.3,0.5,0.4l0.1,0.1c0.7,0.8,0.7,2.1-0.1,2.8C460.2,450.6,459.8,450.8,459.3,450.8z"/>
		</g>
		<g>
			<path d="M243.6,472.6c-0.3,0-0.5,0-0.8-0.2c-5-2.1-7.3-5.8-6.2-10.1c2.2-8.9,18.2-17.8,36.3-16.3c0.2,0,0.4,0.1,0.5,0.1
				c0.3,0.1,31.3,11.3,49.8,10.7c1.1,0,2,0.8,2.1,1.9c0,1.1-0.8,2-1.9,2.1c-18.5,0.6-47.8-9.7-51-10.9c-16.9-1.3-30.4,7.1-31.9,13.3
				c-0.6,2.3,0.7,4.1,3.9,5.4c1,0.4,1.5,1.6,1.1,2.6C245.1,472.1,244.4,472.6,243.6,472.6z"/>
		</g>
		<g>
			<path d="M340.5,499.7c-0.3,0-0.5-0.1-0.8-0.2c-7.5-3.2-12-8.1-13.6-14.5c-2.7-11.5,5-24.6,9.8-31.4c-2.9,1-6.9,2.9-11.4,6.7
				c-0.8,0.7-2.1,0.6-2.8-0.2c-0.7-0.8-0.6-2.1,0.2-2.8c10-8.4,17.8-8.6,18.6-8.6c1.1,0,2,0.9,2,2v0.2c0,0.5-0.2,0.9-0.5,1.3
				c-1.6,1.9-15.3,18.8-12.1,31.9c1.2,5.1,5,9.1,11.3,11.8c1,0.4,1.5,1.6,1,2.6C342,499.3,341.3,499.7,340.5,499.7z"/>
		</g>
		<g>
			<path d="M237,522.4c-6.1,0-9.1-4.1-9.9-6.4c-0.2-0.5-2.1-3.9-6.1-5.4c-3.5-1.3-7.9-0.8-12.8,1.6c-0.8,0.4-1.7,0.2-2.3-0.4
				c-0.6-0.6-0.7-1.5-0.3-2.3c1-1.9,9.3-17.7,19.5-18.8c-0.6-4.1-1.3-11.9,1.9-16.4c1.3-1.9,3.2-3,5.5-3.2c3.6-0.4,7.2-1.2,10.6-2.4
				c1-0.4,2.2,0.2,2.6,1.2s-0.2,2.2-1.2,2.6c-3.7,1.3-7.5,2.2-11.4,2.6c-1.1,0.1-2,0.6-2.7,1.6c-2.7,3.7-1.4,12.6-0.8,15.7
				c0.1,0.7,0,1.3-0.5,1.8c-0.5,0.5-1.1,0.7-1.8,0.6c-5.5-0.9-11.6,6.2-15.3,11.9c3.9-1,7.4-0.9,10.6,0.3c5.9,2.2,8.2,7.4,8.3,7.6
				c0,0.1,0.1,0.1,0.1,0.2c0.1,0.4,1.4,3.7,6.2,3.7c0.1,0,0.2,0,0.3,0c1.1,0,2,0.9,2,2c0,1.1-0.9,2-2,2
				C237.2,522.4,237.1,522.4,237,522.4z"/>
		</g>
		<g>
			<path d="M437.9,472.6c-0.8,0-1.5-0.5-1.8-1.2c-0.4-1,0.1-2.2,1.1-2.6c3.1-1.3,4.4-3.1,3.9-5.4c-1.5-6.2-14.9-14.6-31.9-13.3
				c-3.3,1.2-32.5,11.4-51,10.9c-1.1,0-2-1-1.9-2.1s1-2,2.1-1.9c18.5,0.6,49.5-10.6,49.8-10.7c0.2-0.1,0.3-0.1,0.5-0.1
				c18.2-1.5,34.2,7.4,36.3,16.3c1,4.3-1.2,8-6.2,10.1C438.5,472.6,438.2,472.6,437.9,472.6z"/>
		</g>
		<g>
			<path d="M340.7,499.9c-0.9,0-1.7-0.6-1.9-1.5c-0.3-1,0.2-2,1.2-2.4c6.5-2.7,10.3-6.7,11.6-12c3.2-13.8-12.2-31.9-12.3-32.1
				c-0.5-0.6-0.6-1.4-0.3-2.1s1-1.2,1.8-1.2c0.3,0,8.5,0,18.8,8.6c0.8,0.7,1,2,0.2,2.8s-2,1-2.8,0.2c-4.5-3.8-8.5-5.7-11.4-6.7
				c4.7,6.7,12.5,19.9,9.8,31.3c-0.9,3.9-2.9,7.2-6,9.9c10.6-0.9,21.3-1,31.9-0.4c1.1,0.1,1.9,1,1.9,2.1c-0.1,1.1-1,1.9-2.1,1.9
				c-13.3-0.9-26.8-0.4-40,1.3C340.9,499.9,340.8,499.9,340.7,499.9z"/>
		</g>
		<g>
			<path d="M444.6,522.5c-0.1,0-0.2,0-0.3,0c-1.1,0-2-0.9-2-2c0-1.1,1-2,2-2c0.1,0,0.1,0,0.2,0c4.9,0,6.2-3.7,6.2-3.7
				c0-0.1,0-0.1,0.1-0.2c0.1-0.2,2.4-5.4,8.3-7.6c3.2-1.2,6.7-1.3,10.6-0.3c-3.7-5.7-9.8-12.8-15.3-11.9c-0.7,0.1-1.3-0.1-1.8-0.6
				c-0.5-0.5-0.6-1.2-0.5-1.8c0.7-3.1,1.9-12-0.8-15.7c-0.7-0.9-1.5-1.4-2.7-1.6c-3.9-0.4-7.7-1.3-11.4-2.6c-1-0.4-1.6-1.5-1.2-2.6
				c0.4-1,1.5-1.6,2.6-1.2c3.4,1.2,7,2,10.6,2.4c2.3,0.3,4.2,1.4,5.5,3.2c3.2,4.5,2.5,12.3,1.9,16.4c10.2,1.1,18.5,16.9,19.5,18.8
				c0.4,0.8,0.2,1.7-0.3,2.3c-0.6,0.6-1.5,0.8-2.3,0.4c-5-2.3-9.3-2.9-12.8-1.6c-4,1.5-5.8,4.9-6.1,5.4
				C453.7,518.4,450.7,522.5,444.6,522.5z"/>
		</g>
		<g>
			<path d="M377.2,475c-4.4,0-8.7-1.8-12.6-6.6c-2.3-2.9-4.9-5.6-7.7-8c-0.8-0.7-0.9-2-0.2-2.8c0.7-0.8,2-0.9,2.8-0.2
				c3,2.6,5.8,5.4,8.3,8.5c7.4,9.1,15.8,4.8,27.8-2.8c5.2-3.3,10.2-6.4,14.8-7.2c6.9-1.2,10.8,1.9,15.4,5.4c3.3,2.5,7,5.4,12.8,7.5
				c1,0.4,1.6,1.5,1.2,2.6c-0.4,1-1.5,1.6-2.6,1.2c-6.4-2.3-10.5-5.5-13.9-8.1c-4.3-3.3-7.1-5.5-12.3-4.6c-3.9,0.7-8.5,3.6-13.4,6.7
				C391.5,470.4,384.2,475,377.2,475z"/>
		</g>
		<g>
			<path d="M444.3,522.5C444.3,522.5,444.3,522.5,444.3,522.5c-5.9-0.1-13.4-3.9-22.3-11.2c-8.6-7.1-22.4-11.3-41-12.7
				c-1.1-0.1-1.9-1-1.9-2.1s1-1.9,2.1-1.9c19.5,1.4,34,6,43.2,13.6c10.1,8.4,16.4,10.2,19.8,10.3c1.1,0,2,0.9,2,2
				C446.3,521.6,445.4,522.5,444.3,522.5z"/>
		</g>
		<g>
			<path d="M261.9,781.6c-0.3,0-0.5-0.1-0.8-0.2c-1-0.4-1.5-1.6-1.1-2.6c3.2-7.6,6.8-13.9,9.8-17.1c3.5-3.7,7.4-7,11.5-9.8
				c0.9-0.6,2.2-0.4,2.8,0.5c0.6,0.9,0.4,2.2-0.5,2.8c-3.9,2.7-7.6,5.8-10.9,9.2c-2.7,2.8-6.1,8.8-9,15.9
				C263.4,781.1,262.7,781.6,261.9,781.6z"/>
		</g>
		<g>
			<path d="M311,831.8c-0.6,0-1.2-0.3-1.6-0.8c-27.9-35.3-40.8-39.7-40.9-39.7c-0.7-0.2-1.2-0.7-1.4-1.4
				c-4.1-15.8,22.1-34.5,23.3-35.3c0.8-0.5,1.8-0.5,2.5,0.2c11.2,10.4,10,13.7,6.7,18c-1,1.3-1.9,2.5-2.3,4.4
				c-0.6,3,4.2,16.6,19.5,45.9c0.5,1,0.1,2.2-0.9,2.7c-1,0.5-2.2,0.1-2.7-0.9c-14.2-27.3-20.9-43.6-19.8-48.6c0.6-2.8,2-4.6,3.1-6.1
				c1.9-2.5,3-3.9-5.1-11.5c-2.2,1.7-6.8,5.3-11.1,9.9c-4.9,5.2-10.5,12.7-9.5,19.2c3.9,1.8,17.2,9.6,41.7,40.6
				c0.7,0.9,0.5,2.1-0.3,2.8C311.9,831.7,311.4,831.8,311,831.8z"/>
		</g>
		<g>
			<path d="M298.2,860.2c-1.9,0-3.8-0.8-5.3-2.2c-1.8-1.7-3.4-4.2-5.4-7c-4.4-6.3-9.8-14.2-18.4-16.5c-1.1-0.3-1.7-1.4-1.4-2.4
				c0.3-1.1,1.4-1.7,2.4-1.4c10.1,2.7,16,11.2,20.7,18.1c1.8,2.6,3.4,4.9,4.9,6.4c1.2,1.1,2.7,1.4,4.1,0.7c1.7-0.8,3.5-3.3,3-7.5
				c-0.7-5.3,1.5-12,6.5-19.6c0.6-0.9,1.8-1.2,2.8-0.6c0.9,0.6,1.2,1.8,0.6,2.8c-4.4,6.9-6.4,12.6-5.9,17c0.6,5.2-1.5,9.7-5.2,11.5
				C300.5,860,299.3,860.2,298.2,860.2z"/>
		</g>
		<g>
			<path d="M315,826.1c-0.4,0-0.9-0.1-1.2-0.4c-0.9-0.7-1-1.9-0.4-2.8c8.3-10.9,19.3-20.8,24.7-25.5c0-0.3,0-0.6,0.2-0.9
				c0.4-1,1.6-1.5,2.6-1l0.5,0.2c0.7,0.3,1.2,1,1.2,1.8v0.4c0,0.6-0.3,1.1-0.7,1.5c-4.7,4-16.5,14.5-25.3,26
				C316.2,825.9,315.6,826.1,315,826.1z"/>
		</g>
		<g>
			<path d="M336,864.2c-0.4,0-0.9-0.2-1.2-0.4c-0.4-0.3-0.7-0.9-0.8-1.4c-0.2-2.8-10.1-14.1-19.1-22.8c-0.6-0.5-0.8-1.4-0.5-2.1
				c0.3-0.7,0.9-1.3,1.7-1.3c2.1-0.2,2.5-1,3-2.1c0.3-0.6,0.9-1,1.5-1.1c0.7-0.1,1.3,0.2,1.8,0.7c3.8,4.5,13.3,6.9,18.5,7.4
				c5.2-0.5,14.6-3,18.3-7.4c0.4-0.5,1.1-0.8,1.8-0.7c0.7,0.1,1.3,0.5,1.5,1.1c0.5,1,0.9,1.8,3,2c0.8,0.1,1.4,0.6,1.7,1.3
				c0.3,0.7,0.1,1.5-0.5,2.1c-9,8.8-18.9,20-19.1,22.8c0,0.6-0.3,1.1-0.7,1.4c-0.4,0.3-1,0.5-1.5,0.4c-1.4-0.2-2.9-0.3-4.4-0.1
				c-0.1,0-0.3,0-0.4,0c-1.4-0.1-2.8-0.1-4.2,0.1C336.2,864.2,336.1,864.2,336,864.2z M338.8,860c0.6,0,1.3,0,1.9,0.1
				c1.1-0.1,2.3-0.1,3.5,0c2.4-5.7,12-15.7,17.4-21.1c-0.5-0.3-0.9-0.6-1.2-0.9c-5.5,4.6-14.9,6.6-19.5,7c-0.2,0-0.5,0-0.7-0.1
				c-4.7-0.5-13.6-2.5-19-6.9c-0.3,0.3-0.7,0.7-1.2,1c5.4,5.4,15,15.4,17.4,21.1C337.9,860,338.3,860,338.8,860z"/>
		</g>
		<g>
			<path d="M340.1,799.3c-0.3,0-0.5,0-0.8-0.2c-9.8-4.1-15.7-13.4-16.9-27c-0.7-8.1,0.4-15.4,0.9-18c-10.5-11.9-27.2-7.3-39.6,1.1
				c-0.9,0.6-2.2,0.4-2.8-0.5c-0.6-0.9-0.4-2.2,0.5-2.8c21.5-14.6,37.6-9.3,45.6,0.4c0.4,0.5,0.5,1.1,0.4,1.7
				c-0.1,0.3-7,32.9,13.5,41.4c1,0.4,1.5,1.6,1.1,2.6C341.6,798.8,340.9,799.3,340.1,799.3z"/>
		</g>
		<g>
			<path d="M366.5,826.2c-0.6,0-1.2-0.3-1.6-0.8c-10.4-13.6-25.4-26.1-25.6-26.2c-0.6-0.5-0.8-1.2-0.7-1.9c0.1-0.7,0.6-1.3,1.3-1.5
				c0.1,0,0.3-0.1,0.4-0.2l0.3-0.1c1-0.4,2.2,0,2.6,1c0.1,0.3,0.2,0.6,0.2,0.9c4.2,3.6,15.8,14,24.7,25.5c0.7,0.9,0.5,2.1-0.4,2.8
				C367.4,826,367,826.2,366.5,826.2z"/>
		</g>
		<g>
			<path d="M383.4,860.2c-1.1,0-2.3-0.3-3.4-0.8c-3.8-1.9-5.8-6.4-5.2-11.5c0.5-4.4-1.4-10.2-5.9-17c-0.6-0.9-0.3-2.2,0.6-2.8
				c0.9-0.6,2.2-0.3,2.8,0.6c5,7.7,7.2,14.3,6.5,19.7c-0.5,4.2,1.3,6.6,3,7.4c1.4,0.7,2.9,0.5,4.1-0.7c1.5-1.5,3.1-3.7,4.9-6.4
				c4.7-6.9,10.6-15.4,20.7-18.1c1.1-0.3,2.2,0.3,2.5,1.4s-0.3,2.2-1.4,2.5c-8.6,2.3-14.1,10.2-18.4,16.5c-1.9,2.8-3.6,5.3-5.4,7
				C387.2,859.5,385.3,860.2,383.4,860.2z"/>
		</g>
		<g>
			<path d="M341.5,799.3c-0.8,0-1.5-0.5-1.8-1.2c-0.4-1,0.1-2.2,1.1-2.6c20.5-8.5,13.6-41.1,13.5-41.4c-0.1-0.6,0-1.2,0.4-1.7
				c7.9-9.7,24.1-14.9,45.6-0.4c0.9,0.6,1.2,1.9,0.5,2.8c-0.6,0.9-1.9,1.2-2.8,0.5c-12.4-8.4-29.2-13-39.6-1.1
				c0.5,2.6,1.6,9.9,0.9,18c-1.2,13.6-7.1,22.9-16.9,27C342,799.3,341.7,799.3,341.5,799.3z"/>
		</g>
		<g>
			<path d="M419.6,781.6c-0.8,0-1.5-0.5-1.8-1.2c-3-7.1-6.4-13-9.1-15.9c-3.3-3.4-6.9-6.6-10.9-9.2c-0.9-0.6-1.1-1.9-0.5-2.8
				c0.6-0.9,1.9-1.1,2.8-0.5c4.2,2.8,8,6.1,11.5,9.8c3,3.2,6.6,9.4,9.8,17.1c0.4,1,0,2.2-1.1,2.6
				C420.2,781.5,419.9,781.6,419.6,781.6z"/>
		</g>
		<g>
			<path d="M370.5,831.9c-0.4,0-0.9-0.1-1.2-0.4c-0.9-0.7-1-1.9-0.3-2.8c24.6-31.1,37.9-38.9,41.7-40.6c1-6.5-4.5-14-9.5-19.2
				c-4.3-4.6-8.9-8.2-11.1-9.9c-8,7.6-7,9-5.1,11.5c1.1,1.5,2.5,3.3,3.1,6.1c1,5-5.6,21.3-19.8,48.6c-0.5,1-1.7,1.4-2.7,0.9
				c-1-0.5-1.4-1.7-0.9-2.7c15.3-29.4,20.1-43,19.5-45.9c-0.4-1.9-1.4-3.2-2.3-4.5c-3.3-4.3-4.5-7.6,6.7-18c0.7-0.6,1.7-0.7,2.5-0.2
				c1.1,0.8,27.4,19.4,23.3,35.3c-0.2,0.7-0.7,1.2-1.4,1.4c-0.1,0-12.9,4.4-40.9,39.7C371.7,831.6,371.1,831.9,370.5,831.9z"/>
		</g>
		<g>
			<path d="M429.9,801.2c-0.9,0-1.7-0.6-1.9-1.5c-1.7-6.1-4.8-16.5-6.2-18.5c-0.6-0.8-0.5-1.8,0.1-2.5l8.7-9.7
				c0.6-0.7,1.6-0.9,2.4-0.4c0.8,0.4,1.2,1.3,1,2.2c-2.1,9.3-2.8,18.8-2.1,28.3c0.1,1-0.6,1.9-1.7,2.1
				C430.1,801.2,430,801.2,429.9,801.2z M425.8,780.3c0.6,1.3,1.3,3.2,2,5.2c0.2-2.8,0.5-5.7,0.9-8.5L425.8,780.3z"/>
		</g>
		<g>
			<path d="M251.7,801.2c-0.1,0-0.2,0-0.3,0c-1-0.2-1.7-1.1-1.7-2.1c0.7-9.5,0-19-2.1-28.3c-0.2-0.9,0.2-1.8,1-2.2
				c0.8-0.4,1.8-0.2,2.4,0.4l8.7,9.7c0.6,0.7,0.7,1.8,0.1,2.5c-1.4,2-4.6,12.4-6.2,18.5C253.4,800.6,252.6,801.2,251.7,801.2z
				 M252.8,777c0.4,2.8,0.7,5.6,0.9,8.4c0.7-2,1.4-3.8,2-5.1L252.8,777z"/>
		</g>
		<g>
			<path d="M315.1,836.5c-0.4,0-0.7,0-1-0.1c-0.4-0.1-0.8-0.4-1.1-0.7l-1.3-1.6c-0.8-1-1.5-2-2.3-2.9c-0.7-0.9-0.5-2.1,0.3-2.8
				c0.9-0.7,2.1-0.5,2.8,0.3c0.8,1,1.5,1.9,2.3,2.9l0.7,0.9c0.3-0.1,0.7-0.4,1.1-1c-0.6-1.2-1.8-3.4-3.3-6.3c-0.5-1-0.1-2.2,0.8-2.7
				c1-0.5,2.2-0.1,2.7,0.8c2.3,4.3,3.8,7.1,3.8,7.1c0.3,0.5,0.3,1.1,0.1,1.7C319.4,835.6,316.8,836.5,315.1,836.5z"/>
		</g>
		<g>
			<path d="M366.5,836.5c-1.7,0-4.3-0.9-5.6-4.4c-0.2-0.5-0.2-1.1,0.1-1.7c0,0,1.5-2.8,3.8-7.1c0.5-1,1.7-1.4,2.7-0.8
				c1,0.5,1.4,1.7,0.8,2.7c-1.5,2.9-2.7,5.2-3.3,6.3c0.4,0.6,0.7,0.9,1.1,1c1-1.3,2-2.5,3-3.8c0.7-0.9,1.9-1,2.8-0.3
				c0.9,0.7,1,1.9,0.3,2.8c-1.2,1.5-2.3,3-3.5,4.5c-0.3,0.4-0.7,0.6-1.1,0.7C367.2,836.5,366.9,836.5,366.5,836.5z"/>
		</g>
		<g>
			<path d="M330.6,700c-0.1,0-0.1,0-0.2,0c-1.1-0.1-1.9-1.1-1.8-2.2c0.4-3.4,0.8-6.9,1.2-10.2c0.1-1.1,1.1-1.9,2.2-1.7
				c1.1,0.1,1.9,1.1,1.7,2.2c-0.4,3.3-0.8,6.8-1.2,10.2C332.5,699.2,331.6,700,330.6,700z"/>
		</g>
		<g>
			<path d="M268.4,758.1c-0.3,0-0.5-0.1-0.8-0.2c-0.7-0.3-1.1-1-1.2-1.7l-4.7-66.5c-0.1-1.1,0.8-2.1,1.9-2.1
				c1.1-0.1,2.1,0.8,2.1,1.9l4.4,62.7c3.6-2.7,7.4-5.2,11.3-7.4c1-0.5,2.2-0.2,2.7,0.8s0.2,2.2-0.8,2.7c-4.8,2.7-9.4,5.9-13.7,9.4
				C269.3,758,268.9,758.1,268.4,758.1z"/>
		</g>
		<g>
			<path d="M277.1,697.4c-0.2,0-0.4,0-0.6-0.1c-4.1-1.3-8.1-3-11.9-5c-1-0.5-1.3-1.7-0.8-2.7c0.5-1,1.7-1.3,2.7-0.8
				c3.6,1.9,7.3,3.5,11.2,4.7c1.1,0.3,1.6,1.5,1.3,2.5C278.7,696.9,277.9,697.4,277.1,697.4z"/>
		</g>
		<g>
			<path d="M277.6,697.6c-0.2,0-0.4,0-0.5-0.1l-0.6-0.2c-1-0.3-1.6-1.3-1.4-2.3c-5-9.5-5.9-15.5-3-18.7c2.6-2.9,7.3-2.2,10-1.5
				c0.3-1.1,0.7-2.3,1.1-3.8c0.3-1.1,1.4-1.7,2.5-1.4s1.7,1.4,1.4,2.5c-0.6,2.3-1.2,4.1-1.7,5.9c-0.2,0.5-0.6,1-1.1,1.2
				c-0.5,0.2-1.1,0.2-1.6,0c-1.8-0.7-6.2-1.8-7.5-0.2c-0.6,0.7-2.1,3.8,4.3,15.6c0.4,0.7,0.3,1.6-0.2,2.2
				C278.8,697.3,278.2,697.6,277.6,697.6z"/>
		</g>
		<g>
			<path d="M296,700.9c-5.5,0-12.3-1.2-19.5-3.6c-1-0.3-1.6-1.5-1.3-2.5c0.3-1,1.5-1.6,2.5-1.3c10.8,3.6,20.9,4.4,25.8,2.1
				c1.4-0.7,2.3-1.6,2.7-2.9c0.6-2.1,0.2-6.4-5.1-14.6c-0.6-0.9-0.3-2.2,0.6-2.8c0.9-0.6,2.2-0.3,2.8,0.6c5,7.7,6.8,13.6,5.6,17.9
				c-0.7,2.4-2.3,4.3-4.8,5.4C302.8,700.4,299.7,700.9,296,700.9z"/>
		</g>
		<g>
			<path d="M265.5,692.6c-0.3,0-0.6-0.1-0.9-0.2c-0.6-0.3-1.1-0.6-1.6-0.9c-0.1,0-0.1,0-0.1-0.1c-2-1.1-4-2.4-5.9-3.8
				c-0.9-0.7-1.1-1.9-0.4-2.8c0.6-0.9,1.9-1.1,2.8-0.4c2.3,1.6,4.7,3.1,7.2,4.4c1,0.5,1.3,1.7,0.8,2.7
				C266.9,692.2,266.3,692.6,265.5,692.6z"/>
		</g>
		<g>
			<path d="M303.7,680c-0.6,0-1.1-0.2-1.5-0.7c0,0-0.3-0.4-0.9-0.9c-0.8-0.8-0.7-2.1,0-2.8c0.1-0.1,0.2-0.2,0.3-0.2
				c0-9.1,0.8-24.8,6.5-26.3c3.8-1,6.9,3.8,8.9,7.5c8.2,14.9,12.6,17.7,14.1,18.3c0.2-0.6,0.6-1.5,0.9-2.6c0.3-1,1.5-1.6,2.5-1.3
				c1,0.3,1.6,1.5,1.3,2.5c-0.8,2.4-1.5,4-1.5,4c-0.1,0.3-0.4,0.6-0.7,0.8c-0.3,0.2-1.3,0.8-3.1,0.4c-4.5-1-10.2-7.9-17.1-20.3
				c-2.9-5.4-4.4-5.5-4.4-5.5c-1.6,0.6-3.8,10.4-3.5,25.1c0,0.8-0.5,1.6-1.3,1.9C304.2,680,304,680,303.7,680z"/>
		</g>
		<g>
			<path d="M302.8,679c-0.5,0-1-0.2-1.4-0.6c-3.4-3.5-7.2-6.5-11.3-9.1c-0.9-0.6-1.2-1.8-0.6-2.8c0.6-0.9,1.8-1.2,2.8-0.6
				c4.4,2.7,8.5,6,12.1,9.7c0.8,0.8,0.8,2.1,0,2.8C303.8,678.8,303.3,679,302.8,679z"/>
		</g>
		<g>
			<path d="M287.9,674.5c-0.5,0-1.1-0.1-1.8-0.4c-0.4-0.2-0.8-0.3-1.2-0.4l-0.5-0.2c-1-0.3-1.6-1.5-1.3-2.5c0.3-1,1.5-1.6,2.5-1.3
				l0.5,0.1c0.5,0.2,1,0.3,1.5,0.5c0.2,0.1,0.3,0.1,0.4,0.1c0,0,0.7-0.4,1.2-3.2c0.2-1.1,1.2-1.8,2.3-1.6c1.1,0.2,1.8,1.2,1.6,2.3
				c-0.5,3.2-1.5,5.1-3.1,6C289.4,674.3,288.8,674.5,287.9,674.5z"/>
		</g>
		<g>
			<path d="M259.7,772.2c-1.3,0-2.2-0.9-4.6-6c-1.7-3.5-3.5-7.9-5.2-12.4c-2.7-7.2-7.3-21.1-7.9-32.3c0,0,0,0,0,0
				c-0.7-12.9-0.6-25.9,0.2-38.8c0-0.5,0.2-0.9,0.5-1.2c0.2-0.2,4.5-4.9,9.6-3.1c0.3,0.1,0.5,0.2,0.7,0.4l8.5,7.7
				c0.4,0.3,0.6,0.8,0.7,1.3l4.9,71.7c0,0.5-0.1,0.9-0.4,1.3c-2.3,3.2-4.8,7.7-4.8,9.2C261.9,771.4,260.8,772.1,259.7,772.2
				C259.8,772.2,259.8,772.2,259.7,772.2z M246,721.2c0.8,14.9,9.2,36.1,13.2,44.2c1.2-2.5,2.9-5.1,3.8-6.4l-4.8-70.2l-7.5-6.8
				c-1.9-0.4-3.7,0.9-4.5,1.7C245.4,696.1,245.3,708.8,246,721.2L246,721.2z"/>
		</g>
		<g>
			<path d="M331.8,689.8c-0.1,0-0.2,0-0.3,0c-1.1-0.1-1.9-1.1-1.7-2.2c0.8-5.8,1.5-10.8,2.3-15c0.2-1.1,1.2-1.8,2.3-1.6
				c1.1,0.2,1.8,1.2,1.6,2.3c-0.7,4.1-1.5,9.1-2.2,14.8C333.7,689.1,332.8,689.8,331.8,689.8z"/>
		</g>
		<g>
			<path d="M282.5,755.6c-1.1,0-2-0.9-2-2c0-1.1,0-2.3,0-3.4c0-1.2,0-2.4,0-3.6c0-1.1,0.9-2,2-2s2,0.9,2,2c0,1.2,0,2.4,0,3.5
				c0,1.2,0,2.3,0,3.5C284.5,754.7,283.6,755.6,282.5,755.6z"/>
		</g>
		<g>
			<path d="M326.2,749.7c-0.6,0-1.2-0.3-1.6-0.8c-10.6-13.7-28.3-7.9-41.2-0.6c-1,0.5-2.2,0.2-2.7-0.8s-0.2-2.2,0.8-2.7
				c18.4-10.3,33.1-10.9,43.1-1.9c0.6-8.5,2.1-27.5,4.1-45.2c0.1-1.1,1.1-1.9,2.2-1.8c1.1,0.1,1.9,1.1,1.8,2.2
				c-2.6,23.5-4.4,49.4-4.4,49.6c-0.1,0.8-0.6,1.5-1.4,1.8C326.6,749.7,326.4,749.7,326.2,749.7z"/>
		</g>
		<g>
			<path d="M350.9,700c-1,0-1.9-0.8-2-1.8c-0.4-3.4-0.8-6.8-1.2-10.2c-0.1-1.1,0.6-2.1,1.7-2.2c1.1-0.1,2.1,0.6,2.2,1.7
				c0.4,3.3,0.8,6.8,1.2,10.2c0.1,1.1-0.7,2.1-1.8,2.2C351.1,700,351,700,350.9,700z"/>
		</g>
		<g>
			<path d="M349.7,689.8c-1,0-1.8-0.7-2-1.7c-0.8-6-1.5-10.8-2.2-14.8c-0.2-1.1,0.5-2.1,1.6-2.3c1.1-0.2,2.1,0.5,2.3,1.6
				c0.7,4.1,1.5,9,2.3,15c0.1,1.1-0.6,2.1-1.7,2.2C349.9,689.8,349.8,689.8,349.7,689.8z"/>
		</g>
		<g>
			<path d="M355.3,749.7c-0.2,0-0.4,0-0.6-0.1c-0.8-0.2-1.4-1-1.4-1.8c0-0.3-1.7-26.1-4.4-49.6c-0.1-1.1,0.7-2.1,1.8-2.2
				c1.1-0.1,2.1,0.7,2.2,1.8c2,17.7,3.4,36.6,4.1,45.2c9.9-9.1,24.7-8.5,43.1,1.9c1,0.5,1.3,1.8,0.8,2.7c-0.5,1-1.8,1.3-2.7,0.8
				c-12.9-7.3-30.6-13.1-41.2,0.6C356.5,749.4,355.9,749.7,355.3,749.7z"/>
		</g>
		<g>
			<path d="M385.6,701c-3.7,0-6.8-0.5-9.2-1.7c-2.5-1.2-4.2-3-4.9-5.5c-1.2-4.3,0.6-10.3,5.6-17.9c0.6-0.9,1.8-1.2,2.8-0.6
				c0.9,0.6,1.2,1.8,0.6,2.8c-4.1,6.4-6,11.6-5.1,14.6c0.4,1.3,1.3,2.3,2.7,2.9c4.9,2.3,15,1.4,25.8-2.1c1-0.3,2.2,0.2,2.5,1.3
				c0.3,1-0.2,2.2-1.3,2.5C397.9,699.8,391.1,701,385.6,701z"/>
		</g>
		<g>
			<path d="M377.8,680.1c-0.2,0-0.5,0-0.7-0.1c-0.8-0.3-1.3-1.1-1.3-1.9c0.3-14.7-1.9-24.5-3.5-25.1c0,0-1.5,0.2-4.4,5.5
				c-6.9,12.5-12.6,19.3-17.1,20.3c-1.8,0.4-2.8-0.2-3.1-0.4c-0.3-0.2-0.5-0.5-0.7-0.8c0-0.1-0.7-1.6-1.5-4c-0.3-1,0.2-2.2,1.3-2.5
				c1-0.3,2.2,0.2,2.5,1.3c0.3,1,0.7,1.9,0.9,2.6c1.5-0.5,6-3.4,14.1-18.3c2-3.7,5.2-8.5,8.9-7.5c5.7,1.5,6.5,17.2,6.5,26.3
				c0.1,0.1,0.2,0.1,0.3,0.2c0.8,0.8,0.8,2,0.1,2.8c-0.6,0.6-0.9,0.9-0.9,1C378.9,679.8,378.4,680.1,377.8,680.1z"/>
		</g>
		<g>
			<path d="M378.7,679.1c-0.5,0-1-0.2-1.4-0.6c-0.8-0.8-0.8-2,0-2.8c3.6-3.7,7.7-7,12.1-9.7c0.9-0.6,2.2-0.3,2.8,0.6
				c0.6,0.9,0.3,2.2-0.6,2.8c-4.1,2.6-7.9,5.6-11.3,9.1C379.8,678.9,379.3,679.1,378.7,679.1z"/>
		</g>
		<g>
			<path d="M399,755.6c-1.1,0-2-0.9-2-2c0-2.3,0-4.7,0-7c0-1.1,0.9-2,2-2c0,0,0,0,0,0c1.1,0,2,0.9,2,2c0,2.3,0,4.7,0,7
				C401,754.7,400.1,755.6,399,755.6z"/>
		</g>
		<g>
			<path d="M404.5,697.5c-0.9,0-1.6-0.5-1.9-1.4c-0.3-1.1,0.3-2.2,1.3-2.5c3.9-1.2,7.6-2.8,11.2-4.7c1-0.5,2.2-0.2,2.7,0.8
				c0.5,1,0.2,2.2-0.8,2.7c-3.8,2-7.8,3.7-11.9,5C404.9,697.4,404.7,697.5,404.5,697.5z"/>
		</g>
		<g>
			<path d="M413.1,758.2c-0.5,0-0.9-0.2-1.3-0.5c-4.3-3.5-8.9-6.7-13.7-9.4c-1-0.5-1.3-1.8-0.8-2.7s1.8-1.3,2.7-0.8
				c3.9,2.2,7.7,4.7,11.3,7.4l4.4-62.7c0.1-1.1,1-1.9,2.1-1.9c1.1,0.1,1.9,1,1.9,2.1l-4.7,66.5c-0.1,0.7-0.5,1.4-1.2,1.7
				C413.6,758.1,413.3,758.2,413.1,758.2z"/>
		</g>
		<g>
			<path d="M416,692.6c-0.7,0-1.4-0.4-1.8-1.1c-0.5-1-0.1-2.2,0.8-2.7c2.5-1.3,4.9-2.8,7.2-4.4c0.9-0.6,2.1-0.4,2.8,0.4
				c0.6,0.9,0.5,2.1-0.4,2.8c-1.9,1.4-3.8,2.7-5.8,3.8c-0.1,0.1-0.3,0.1-0.4,0.2c-0.5,0.3-0.9,0.5-1.4,0.8
				C416.6,692.5,416.3,692.6,416,692.6z"/>
		</g>
		<g>
			<path d="M403.9,697.6c-0.6,0-1.2-0.3-1.6-0.8c-0.5-0.6-0.6-1.5-0.2-2.2c6.4-11.8,4.9-14.9,4.3-15.6c-1.4-1.5-5.7-0.5-7.5,0.2
				c-0.5,0.2-1.1,0.2-1.6,0c-0.5-0.2-0.9-0.7-1.1-1.2c-0.6-1.7-1.1-3.6-1.7-5.9c-0.3-1.1,0.3-2.2,1.4-2.5c1.1-0.3,2.2,0.3,2.5,1.4
				c0.4,1.4,0.7,2.6,1.1,3.8c2.7-0.7,7.4-1.4,10,1.5c2.9,3.3,1.9,9.2-3,18.7c0.2,1-0.4,2-1.4,2.3l-0.6,0.2
				C404.3,697.6,404.1,697.6,403.9,697.6z"/>
		</g>
		<g>
			<path d="M393.6,674.5c-0.9,0-1.5-0.3-2-0.5c-1.6-0.9-2.6-2.9-3.1-6c-0.2-1.1,0.5-2.1,1.6-2.3c1.1-0.2,2.1,0.5,2.3,1.6
				c0.5,2.8,1.2,3.2,1.2,3.2l0,0c0,0,0.1,0,0.4-0.1c0.6-0.2,1.2-0.4,1.8-0.6l0.2,0c1-0.3,2.2,0.3,2.5,1.3c0.3,1.1-0.3,2.2-1.3,2.5
				l-0.2,0c-0.5,0.2-1,0.3-1.6,0.5C394.7,674.4,394.1,674.5,393.6,674.5z"/>
		</g>
		<g>
			<path d="M421.8,772.2C421.8,772.2,421.8,772.2,421.8,772.2c-1.1,0-2.1-0.8-2.1-2.2c0-1.5-2.5-5.9-4.8-9.2
				c-0.3-0.4-0.4-0.8-0.4-1.3l4.9-71.7c0-0.5,0.3-1,0.7-1.3l8.4-7.7c0.2-0.2,0.4-0.3,0.7-0.4c5.1-1.8,9.4,2.9,9.6,3.1
				c0.3,0.3,0.5,0.8,0.5,1.2c0.8,12.9,0.9,25.9,0.2,38.8c-0.6,11.2-5.2,25.1-7.9,32.3c-1.7,4.5-3.5,8.9-5.2,12.4
				C424,771.3,423.2,772.2,421.8,772.2z M418.6,759.1c0.9,1.3,2.6,3.9,3.8,6.4c4-8.2,12.4-29.3,13.2-44.2
				c0.7-12.5,0.6-25.1-0.1-37.5c-0.8-0.7-2.7-2.1-4.5-1.7l-7.5,6.8L418.6,759.1z"/>
		</g>
		<g>
			<path d="M296.3,903.3c-7.7,0-15.6-3.8-17.9-6.5c-2.8-3.3-8-16.4-3.8-28c0.3-0.9,1.2-1.4,2.1-1.3c0.9,0.1,1.6,0.8,1.8,1.7
				c0,0.3,4.2,26.3,19.3,24.9c0.2,0,0.5,0,0.7,0.1c7,2,6.9,4.3,6.9,5.1c0,2.5-3.2,3.3-4.5,3.6C299.4,903.1,297.8,903.3,296.3,903.3z
				 M277,879.5c0.3,6.9,3,13,4.4,14.6c1.9,2.3,11.6,6.4,18.5,4.7c-0.7-0.3-1.5-0.6-2.3-0.8c-7.7,0.6-14.2-4.2-18.8-13.8
				C278.2,882.6,277.5,881,277,879.5z"/>
		</g>
		<g>
			<path d="M296.5,905.8c-2.9,0-6.3-0.6-10.2-1.9c-9.7-3.2-15.2-12.7-16-27.3c-0.6-10.7,1.6-20.3,1.6-20.7c0-0.1,0.1-0.2,0.1-0.3
				c1.1-2.9,2.8-3.5,4-3.6c3.3-0.1,5.8,5,6.7,7.2c0.1,0.1,0.1,0.3,0.1,0.4c0,0.2,1.3,6.2,11,10.1c12,4.8,14.6,22,14.7,22.7
				c0,0,0,0,0,0.1c0,0.3,0.8,6.9-4,10.7C302.6,905,299.8,905.8,296.5,905.8z M275.9,856.9c-0.5,2.5-7.3,36.9,11.7,43.2
				c6.8,2.3,11.8,2.3,14.5,0.1c2.9-2.3,2.6-6.8,2.6-7.2c-0.1-0.9-2.7-15.7-12.3-19.6c-10.9-4.4-13.1-11.4-13.4-12.9
				c-0.8-1.9-2-3.8-2.7-4.4C276.1,856.4,276,856.6,275.9,856.9z"/>
		</g>
		<g>
			<path d="M340.6,895.5c-0.3,0-0.6-0.1-0.8-0.2c-0.4-0.2-0.8-0.5-1-1c-7.4-5.3-22-0.1-22.1,0c-0.8,0.3-1.7,0-2.2-0.6
				c-0.5-0.7-0.6-1.6-0.2-2.3c2.8-4.5-4.3-15.4-18-27.9c-0.5-0.4-1.4-1.2-0.9-2.5c0.3-0.8,1-1.3,1.9-1.3c0.1,0,0.2,0,0.2,0
				c2.3,0,4.1-0.6,5.3-1.8c1.9-1.9,1.9-4.8,1.9-4.8c0-1,0.8-1.9,1.8-2c1-0.1,2,0.6,2.2,1.6c0.7,3.3,12.2,9.3,32.2,14.2
				c20-4.9,31.4-10.9,32.1-14.2c0.2-1,1.2-1.7,2.2-1.6c1,0.1,1.8,1,1.8,2c0,0,0,2.9,1.9,4.8c1.2,1.2,3.1,1.8,5.5,1.8
				c0.8,0,1.6,0.5,1.9,1.3c0.3,0.8,0.1,1.7-0.6,2.2c-0.1,0.1-6.1,5.3-11.4,11.7c-6.4,7.7-8.9,13.6-7,16.6c0.4,0.7,0.4,1.7-0.2,2.3
				c-0.5,0.7-1.4,0.9-2.2,0.6c-0.2-0.1-15.9-5.7-23,0.6C341.6,895.4,341.1,895.5,340.6,895.5z M329.7,888.1c3.9,0,7.9,0.7,11.1,2.8
				c6.7-4.4,16.7-2.7,22-1.3c-0.3-8.8,11.2-20.9,17.2-26.5c-1.5-0.5-2.8-1.3-3.9-2.4c-0.9-0.9-1.5-1.9-2-2.9
				c-7.4,6.5-26.2,11.5-32.7,13.1c-0.5,0.1-1,0.1-1.4-0.2c-6.8-1.7-25-6.6-32.2-13c-0.4,1-1.1,2-2,2.9c-1.1,1.1-2.4,1.9-4,2.4
				c7.8,7.5,17.4,18.4,17.1,26.4C321.6,888.9,325.6,888.1,329.7,888.1z"/>
		</g>
		<g>
			<path d="M273.8,934.6c-5.6,0-10-4.1-18.7-18.5c-6-9.9-6.1-24.5-0.3-43.5c4.3-13.9,10.2-24.8,10.4-25.3c0.5-0.9,1.6-1.3,2.5-0.9
				c0.9,0.4,1.4,1.5,1.1,2.4c-5.1,16.3-6.5,46.3,2.8,56.1c2.9,3,6.5,5.9,10,8.7c6.7,5.3,11.5,9.2,10.7,13.2
				c-0.7,3.2-4.7,4.3-6.1,4.7c-1.7,0.4-3.2,0.9-4.5,1.3C278.6,933.9,276.1,934.6,273.8,934.6z M261.5,865.2
				c-5.5,14.6-11.1,35.7-3.1,48.8c11.2,18.4,13.1,17.8,22,15.1c1.4-0.4,2.9-0.9,4.7-1.4c3-0.8,3.2-1.6,3.2-1.6
				c0.3-1.6-5.7-6.4-9.2-9.3c-3.4-2.7-7.3-5.8-10.4-9.1l0,0c-6.2-6.5-7.7-18.8-7.9-28C260.7,875,261,870.1,261.5,865.2z"/>
		</g>
		<g>
			<path d="M385,905.8c-3.3,0-6.1-0.8-8.1-2.5c-4.7-3.8-4-10.5-4-10.7c0.1-0.8,2.8-18,14.7-22.8c9.7-3.9,11-9.9,11-10.2
				c0-0.1,0.1-0.3,0.1-0.4c0.9-2.2,3.3-7.2,6.6-7.2c0,0,0,0,0,0c1.2,0,2.8,0.6,4,3.6c0,0.1,0.1,0.2,0.1,0.3c0.1,0.4,2.2,10,1.7,20.7
				c-0.8,14.7-6.3,24.1-16,27.3l0,0C391.3,905.2,387.9,905.8,385,905.8z M376.9,893.1c0,0-0.5,4.7,2.5,7.1c2.7,2.2,7.7,2.1,14.5-0.1
				c0,0,0,0,0,0c19-6.3,12.2-40.7,11.7-43.2c-0.1-0.3-0.2-0.5-0.3-0.7c-0.7,0.6-1.9,2.5-2.7,4.4c-0.4,1.5-2.6,8.5-13.4,12.9
				C379.3,877.5,376.9,892.9,376.9,893.1L376.9,893.1z"/>
		</g>
		<g>
			<path d="M385.3,903.3c-1.6,0-3.1-0.2-4.6-0.5l0,0c-3.2-0.8-4.7-2.1-4.4-4.1c0.5-3.1,6.8-4.7,7.6-4.7c0,0,0,0,0,0
				c15.1,1.4,19.3-24.6,19.3-24.9c0.1-0.9,0.9-1.6,1.8-1.7c0.9-0.1,1.8,0.4,2.1,1.3c4.1,11.3-1.4,24.6-4.3,28
				C400.4,899.5,392.8,903.3,385.3,903.3z M381.6,898.9c7.2,1.7,16.2-2.4,18.1-4.7c1.4-1.6,4.1-7.6,4.7-14.2
				c-0.5,1.4-1.1,2.8-1.7,4.2c-4.5,9.6-11,14.4-18.8,13.8C383.2,898.2,382.4,898.5,381.6,898.9C381.6,898.9,381.6,898.9,381.6,898.9
				L381.6,898.9z"/>
		</g>
		<g>
			<path d="M407.8,934.6c-2.3,0-4.8-0.7-7.9-1.7c-1.3-0.4-2.9-0.9-4.5-1.3c0,0,0,0,0,0c-1.3-0.4-5.4-1.5-6.1-4.7
				c-0.8-4,4-7.9,10.7-13.2c3.5-2.8,7.1-5.7,10-8.7c9.3-9.8,7.9-39.8,2.8-56.1c-0.3-1,0.2-2,1.1-2.4c0.9-0.4,2,0,2.5,0.9
				c1,1.8,24.4,45.5,10.1,68.8C417.7,930.5,413.4,934.6,407.8,934.6z M396.4,927.7c1.7,0.5,3.3,1,4.7,1.4c8.9,2.8,10.8,3.4,22-15.1
				c8-13.1,2.5-34.2-3.1-48.8c0.5,4.9,0.8,9.8,0.7,14.5c-0.2,9.2-1.7,21.4-7.9,28c-3.1,3.2-6.9,6.3-10.4,9.1
				c-3.8,3.1-9.6,7.7-9.2,9.3C393.2,926.1,393.4,926.9,396.4,927.7z"/>
		</g>
		<g>
			<path d="M332.2,958.9C332.2,958.9,332.2,958.9,332.2,958.9c-24-0.3-39-3.2-69.9-20.4c-15.2-8.4-22.2-24.9-20.2-47.5
				c1.3-14.7,5.9-27.4,7.2-30.7c-0.2-0.8,0.2-1.7,0.9-2.1c0.9-0.6,2.2-0.3,2.7,0.7l0.2,0.4c0.3,0.5,0.4,1.2,0.1,1.8
				c-0.2,0.6-22.4,55.5,10.9,74c31.6,17.5,45.6,19.6,68,19.9c1.1,0,2,0.9,2,2C334.2,958,333.3,958.9,332.2,958.9z"/>
		</g>
		<g>
			<path d="M349.3,958.9c-1.1,0-2-0.9-2-2c0-1.1,0.9-2,2-2c22.4-0.3,36.4-2.3,68-19.9c33.3-18.5,11.1-73.5,10.9-74
				c-0.2-0.6-0.2-1.2,0.1-1.8l0.2-0.4c0.6-0.9,1.8-1.3,2.7-0.7c0.8,0.5,1.1,1.3,0.9,2.1c1.3,3.3,5.9,16,7.2,30.7
				c2,22.7-5,39.1-20.2,47.5C388.3,955.7,373.3,958.6,349.3,958.9C349.3,958.9,349.3,958.9,349.3,958.9z"/>
		</g>
		<path class="st0" d="M340.7,936.4l53-0.5c19.5,1.1-46.6,14.4-48.9,17c-2.1,2.4,3.4,3.8,4.5,4"/>
		<path class="st0" d="M332.2,956.9c1-0.2,6.5-1.6,4.5-4c-2.3-2.6-68.4-16-48.9-17l52.9,0.5"/>
		<g>
			<path d="M397.2,935c-0.4,0-0.9,0-1.3-0.1c-0.9-0.1-2.2-0.2-3.7-0.4c-37.9-4.2-48.2-3.8-50.1-2.7c-0.5,0.6-1.4,0.8-2.1,0.5
				c-0.4-0.1-0.7-0.4-0.9-0.7c-2.7-1-13.8-1.1-49.1,2.8c-1.7,0.2-3.1,0.3-4.1,0.4c-1.7,0.2-3.4,0.3-3.7-1.6c0-0.1-0.3-1.9,1.8-2.3
				c7.7-1.6,8.7-3.8,8.8-4.4c0.3-1.6-2.2-3.9-3.4-4.8c-0.8-0.5-1.1-1.5-0.7-2.4c0.4-0.9,1.3-1.4,2.2-1.2c0.1,0,14.8,2.8,22.4-1.1
				c6.6-3.4,1.6-18.1,1.5-18.2c-0.3-0.9,0.1-2,0.9-2.4c12.4-6.7,21.7-2.2,25.2,0c3.6-2.3,13-6.6,25.1,0c0.9,0.5,1.3,1.5,0.9,2.4
				c-0.1,0.1-5.1,14.9,1.5,18.3c7.6,3.9,22.3,1.2,22.4,1.1c0.9-0.2,1.9,0.3,2.2,1.2c0.4,0.9,0.1,1.9-0.7,2.4
				c-1.2,0.8-3.7,3.1-3.4,4.8c0.1,0.6,1.1,2.8,8.8,4.4c2.1,0.4,1.8,2.2,1.8,2.3C399.3,934.7,398.3,935,397.2,935z M342.2,931.8
				C342.2,931.8,342.2,931.8,342.2,931.8C342.2,931.8,342.2,931.8,342.2,931.8z M350,927.1c7,0,18.2,0.8,36.1,2.7
				c-0.6-0.7-0.9-1.5-1.1-2.4c-0.3-1.6,0.1-3.1,0.9-4.4c-5.5,0.5-13.7,0.6-19.3-2.3c-8.1-4.2-5.3-16.9-4-21.5
				c-11.2-5.3-19.1,0.1-20.6,1.3c-0.6,0.5-1.4,0.6-2.1,0.2c-0.3-0.2-0.6-0.4-0.8-0.7c-2.2-1.6-9.7-5.8-20.1-0.9
				c1.3,4.6,4.2,17.2-4,21.5c-5.6,2.9-13.8,2.8-19.3,2.3c0.7,1.3,1.2,2.8,0.9,4.4c-0.2,0.9-0.5,1.7-1.1,2.4
				c27.6-2.9,40.9-3.4,45.4-1.7C342.5,927.5,345.3,927.1,350,927.1z"/>
		</g>
		<path class="st0" d="M332.2,956.9h-0.2l8.4,0.1l0,0l9-0.2h-0.2"/>
		<g>
			<path d="M251.2,861.8c-0.7,0-1.3-0.3-1.7-1c-12.2-19.9-18.8-40.7-19.5-61.8c0-1.1,0.8-2,1.9-2.1c1.1-0.1,2,0.8,2.1,1.9
				c0.7,20.4,7,40.5,18.9,59.8c0.6,0.9,0.3,2.2-0.7,2.8C251.9,861.7,251.5,861.8,251.2,861.8z"/>
		</g>
		<g>
			<path d="M232.1,801c-0.8,0-1.5-0.4-1.8-1.2l-0.3-0.8c-13.9-30.6-18.1-83.3-17.8-90c0.2-5.7-3.9-17.1-7.1-26.2
				c-1-2.7-1.9-5.3-2.6-7.6c-2.9-8.7-1.4-12.2,0.3-13.6c0.9-0.7,2.1-0.5,2.8,0.3c0.7,0.9,0.5,2.1-0.3,2.8c0,0-1.5,1.7,1,9.2
				c0.8,2.3,1.7,4.8,2.6,7.5c3.5,10,7.6,21.3,7.3,27.7c-0.3,8.8,4.8,60.1,17.5,88.2l0.4,0.8c0.5,1,0,2.2-1,2.6
				C232.6,800.9,232.3,801,232.1,801z"/>
		</g>
		<g>
			<path d="M251.2,861.8c-0.9,0-1.8-0.7-2-1.6c-0.7-3.3-6.8-33-19.1-60.4c-0.5-1,0-2.2,1-2.6c1-0.5,2.2,0,2.6,1
				c12.4,27.7,18.7,57.9,19.3,61.2c0.2,1.1-0.5,2.1-1.6,2.4C251.5,861.8,251.3,861.8,251.2,861.8z"/>
		</g>
		<g>
			<path d="M261.9,781.5c-0.6,0-1.2-0.3-1.6-0.8c-3.6-4.8-7.6-9.4-11.8-13.6c-0.2-0.2-0.3-0.3-0.4-0.5
				c-17.7-35.4-13.7-70.8-9.8-88.8c0.2-1.1,1.3-1.8,2.4-1.5c1.1,0.2,1.8,1.3,1.5,2.4c-3.8,17.4-7.7,51.6,9.3,85.8
				c4.3,4.3,8.3,8.9,12,13.8c0.7,0.9,0.5,2.1-0.4,2.8C262.8,781.4,262.3,781.5,261.9,781.5z"/>
		</g>
		<g>
			<path d="M269.6,834.5c-0.2,0-0.3,0-0.5-0.1c-0.8-0.2-1.6-0.4-2.5-0.5c-5.2-0.7-9.1-3.3-11.5-7.6c-4.2-7.4-5.1-23.7,5-47.6
				c0.4-1,1.6-1.5,2.6-1.1c1,0.4,1.5,1.6,1.1,2.6c-9.5,22.6-8.7,37.8-5.2,44.1c1.8,3.2,4.7,5.1,8.6,5.6c1,0.1,2,0.3,3,0.6
				c1.1,0.3,1.7,1.4,1.4,2.5C271.3,834,270.5,834.5,269.6,834.5z"/>
		</g>
		<g>
			<path d="M217,693.5c-0.2,0-0.4,0-0.6-0.1c-0.6-0.2-1.1-0.6-1.3-1.2c-4.1-10.4-8.9-20-13.1-28.1c-0.5-1-0.1-2.2,0.9-2.7
				c1-0.5,2.2-0.1,2.7,0.9c3.9,7.6,8.4,16.5,12.3,26.1c6.8-4.6,14.1-8.6,21.6-12c1-0.5,2.2,0,2.6,1c0.5,1,0,2.2-1,2.6
				c-8,3.6-15.8,8-23,13C217.8,693.4,217.4,693.5,217,693.5z"/>
		</g>
		<g>
			<path d="M430.3,861.8c-0.4,0-0.7-0.1-1-0.3c-0.9-0.6-1.2-1.8-0.7-2.8c11.9-19.4,18.3-39.5,18.9-59.8c0-1.1,0.9-2,2.1-1.9
				c1.1,0,2,1,1.9,2.1c-0.6,21-7.2,41.8-19.5,61.8C431.6,861.4,431,861.8,430.3,861.8z"/>
		</g>
		<g>
			<path d="M253.1,860.7l-3.6-1.7c0.9-1.9,9.1-19,18.7-28c0.8-0.8,2.1-0.7,2.8,0.1c0.8,0.8,0.7,2.1-0.1,2.8
				C261.9,842.5,254,858.9,253.1,860.7z"/>
		</g>
		<g>
			<path d="M449.5,801c-0.3,0-0.6-0.1-0.8-0.2c-1-0.5-1.5-1.6-1-2.6l0.3-0.8c12.7-28.1,17.8-79.4,17.5-88.2
				c-0.2-6.4,3.8-17.7,7.3-27.7c1-2.7,1.9-5.2,2.6-7.5c2.5-7.5,1-9.2,1-9.2c-0.9-0.7-1-1.9-0.3-2.8c0.7-0.9,1.9-1,2.8-0.3
				c1.8,1.4,3.2,4.8,0.3,13.6c-0.8,2.3-1.7,4.8-2.6,7.6c-3.3,9.2-7.3,20.6-7.1,26.2c0.2,6.7-4,59.4-17.8,90l-0.3,0.8
				C451,800.6,450.3,801,449.5,801z"/>
		</g>
		<g>
			<path d="M430.3,861.8c-0.1,0-0.3,0-0.4,0c-1.1-0.2-1.8-1.3-1.6-2.4c0.7-3.3,6.9-33.5,19.3-61.2c0.5-1,1.6-1.5,2.6-1
				c1,0.5,1.5,1.6,1,2.6c-12.2,27.3-18.4,57.1-19.1,60.4C432.1,861.1,431.2,861.8,430.3,861.8z"/>
		</g>
		<g>
			<path d="M430.3,861.9c-0.7,0-1.5-0.4-1.8-1.1c-0.9-1.9-8.8-18.3-17.8-26.7c-0.8-0.8-0.9-2-0.1-2.8s2-0.9,2.8-0.1
				c9.6,9,17.8,26,18.7,27.9c0.5,1,0,2.2-1,2.7C430.9,861.8,430.6,861.9,430.3,861.9z"/>
		</g>
		<g>
			<path d="M419.6,781.6c-0.4,0-0.8-0.1-1.2-0.4c-0.9-0.7-1.1-1.9-0.4-2.8c3.6-4.9,7.7-9.5,12-13.8c17-34.2,13.1-68.4,9.3-85.8
				c-0.2-1.1,0.4-2.1,1.5-2.4c1.1-0.2,2.1,0.4,2.4,1.5c4,17.9,8,53.3-9.8,88.8c-0.1,0.2-0.2,0.4-0.4,0.5c-4.2,4.2-8.2,8.8-11.8,13.6
				C420.9,781.3,420.3,781.6,419.6,781.6z"/>
		</g>
		<g>
			<path d="M412,834.6c-0.9,0-1.7-0.6-1.9-1.5c-0.3-1.1,0.3-2.2,1.4-2.5c1-0.3,2-0.5,3-0.6c3.9-0.5,6.8-2.4,8.6-5.6
				c3.5-6.2,4.3-21.5-5.2-44.1c-0.4-1,0.1-2.2,1.1-2.6c1-0.4,2.2,0.1,2.6,1.1c10,23.9,9.1,40.2,5,47.6c-2.5,4.3-6.3,6.9-11.5,7.6
				c-0.8,0.1-1.7,0.3-2.5,0.5C412.3,834.5,412.2,834.6,412,834.6z"/>
		</g>
		<g>
			<path d="M464.5,693.5c-0.4,0-0.8-0.1-1.1-0.4c-7.3-5-15-9.4-23-13c-1-0.5-1.5-1.6-1-2.6c0.5-1,1.6-1.5,2.6-1
				c7.5,3.4,14.7,7.4,21.6,12c3.9-9.7,8.4-18.5,12.3-26.1c0.5-1,1.7-1.4,2.7-0.9c1,0.5,1.4,1.7,0.9,2.7c-4.2,8.1-9,17.7-13.1,28.1
				c-0.2,0.6-0.7,1-1.3,1.2C464.9,693.5,464.7,693.5,464.5,693.5z"/>
		</g>
		<g>
			<path d="M246.3,660.5c-0.1,0-0.2,0-0.4,0c-1.1-0.2-1.8-1.2-1.6-2.3c0.7-3.9,0.9-8,0.4-11.9c-0.4-3.6-1.3-7.1-2.8-10.4
				c-0.5-1,0-2.2,1-2.7c1-0.5,2.2,0,2.7,1c1.7,3.7,2.8,7.6,3.2,11.6c0.5,4.4,0.3,8.8-0.5,13.1C248.1,659.8,247.2,660.5,246.3,660.5z
				"/>
		</g>
		<g>
			<path d="M185.3,632.5c-0.7,0-1.4-0.4-1.8-1.1c-0.4-0.8-0.2-1.7,0.4-2.3l12.8-13.2c0.8-0.8,2-0.8,2.8,0c0.8,0.8,0.8,2,0,2.8
				l-8.8,9.1c2.6-0.3,5.8-0.6,9.5-1c1.1-0.1,2.1,0.7,2.2,1.8c0.1,1.1-0.7,2.1-1.8,2.2c-8.4,0.8-14.9,1.6-14.9,1.6
				C185.5,632.5,185.4,632.5,185.3,632.5z"/>
		</g>
		<g>
			<path d="M200.3,630.9c-1,0-1.9-0.8-2-1.8c-0.1-1.1,0.7-2.1,1.8-2.2c2.4-0.2,4.8-0.4,7.3-0.6c1.1-0.1,2.1,0.8,2.1,1.9
				c0.1,1.1-0.8,2.1-1.9,2.1c-2.5,0.2-4.9,0.4-7.2,0.6C200.5,630.9,200.4,630.9,200.3,630.9z"/>
		</g>
		<g>
			<path d="M207.6,630.3c-1,0-1.9-0.8-2-1.9c-0.1-1.1,0.8-2.1,1.9-2.1c6-0.4,12.1-0.7,17.6-0.7c1.1,0,2,0.9,2,2s-0.9,2-2,2
				c-5.4,0-11.4,0.2-17.4,0.6C207.7,630.3,207.7,630.3,207.6,630.3z"/>
		</g>
		<g>
			<path d="M203.9,665.2c-0.7,0-1.4-0.4-1.8-1.1l-0.8-1.5c-5.6-11-7.2-13.9-5-15.6c1.8-1.4,4,0,9.2,4.6c0.1,0.1,0.3,0.3,0.5,0.4
				c0.9,0.6,1.1,1.9,0.5,2.8c-0.6,0.9-1.9,1.1-2.8,0.5c-0.3-0.2-0.6-0.4-0.9-0.7c-0.8-0.7-1.5-1.3-2-1.8c1.1,2.2,2.5,5.1,4,8
				l0.8,1.5c0.5,1,0.1,2.2-0.9,2.7C204.5,665.2,204.2,665.2,203.9,665.2z"/>
		</g>
		<g>
			<path d="M286,618.8c-0.4,0-0.9-0.1-1.2-0.4c0,0,0,0,0,0c-1-0.8-10.6-8.4-22.2-15.4c-15-9.1-26.8-13.4-34.1-12.4
				c-2.7,1.5-21.6,12.8-24.7,23.5c-0.3,1.1-1.4,1.7-2.5,1.4c-1.1-0.3-1.7-1.4-1.4-2.5c3.8-13,26-25.5,26.9-26
				c0.2-0.1,0.4-0.2,0.7-0.2c19.3-3.1,55.7,25.4,59.8,28.6c0.9,0.7,1,2,0.3,2.8C287.2,618.6,286.6,618.8,286,618.8z"/>
		</g>
		<g>
			<path d="M246.3,660.4c-0.9,0-1.7-0.6-1.9-1.5c-0.3-1.1,0.4-2.2,1.4-2.4c2.6-0.7,6-2.1,6.8-4.5c0.7-2.1-0.5-5.1-3.4-8.6
				c-2-2.5-4.3-4.8-6.8-7c-0.8-0.7-0.9-2-0.2-2.8s2-0.9,2.8-0.2c2.6,2.3,5,4.8,7.2,7.4c3.8,4.7,5.2,8.9,4.1,12.4
				c-1.1,3.3-4.3,5.7-9.5,7.1C246.7,660.4,246.5,660.4,246.3,660.4z"/>
		</g>
		<g>
			<path d="M243.7,636.9c-0.5,0-0.9-0.2-1.3-0.5c-2.7-2.4-5.7-4.6-8.7-6.6c-0.9-0.6-1.2-1.8-0.6-2.8c0.6-0.9,1.8-1.2,2.8-0.6
				c3.2,2.1,6.3,4.4,9.2,6.9c0.8,0.7,0.9,2,0.2,2.8C244.8,636.7,244.3,636.9,243.7,636.9z"/>
		</g>
		<g>
			<path d="M234.1,661.7c-11.2,0-24.5-2.2-30.3-6.4c-0.9-0.6-1.1-1.9-0.5-2.8c0.6-0.9,1.9-1.1,2.8-0.5c6.3,4.5,27.9,7.6,39.7,4.5
				c1.1-0.3,2.2,0.4,2.4,1.4c0.3,1.1-0.4,2.2-1.4,2.4C243.5,661.3,239,661.7,234.1,661.7z"/>
		</g>
		<g>
			<path d="M234.8,630.2c-0.4,0-0.7-0.1-1.1-0.3c-10.1-6.4-21.1-11.2-32.6-14.3c-1.1-0.3-1.7-1.4-1.4-2.4c0.3-1.1,1.4-1.7,2.4-1.4
				c11.9,3.2,23.3,8.1,33.7,14.7c0.9,0.6,1.2,1.8,0.6,2.8C236.1,629.9,235.5,630.2,234.8,630.2z"/>
		</g>
		<g>
			<path d="M435.3,660.5c-0.9,0-1.8-0.7-2-1.6c-0.8-4.3-1-8.7-0.5-13.1c0.4-4,1.5-7.9,3.2-11.6c0.5-1,1.6-1.4,2.7-1
				c1,0.5,1.4,1.6,1,2.7c-1.5,3.3-2.5,6.8-2.8,10.4c-0.4,4-0.3,8,0.4,12c0.2,1.1-0.5,2.1-1.6,2.3
				C435.5,660.5,435.4,660.5,435.3,660.5z"/>
		</g>
		<g>
			<path d="M496.2,632.6c-0.1,0-0.2,0-0.3,0c-0.1,0-6.5-0.9-14.9-1.6c-1.1-0.1-1.9-1.1-1.8-2.2c0.1-1.1,1.1-1.9,2.2-1.8
				c3.6,0.3,6.9,0.7,9.5,1l-8.8-9.1c-0.8-0.8-0.7-2.1,0-2.8c0.8-0.8,2.1-0.8,2.8,0l12.8,13.2c0.6,0.6,0.7,1.5,0.3,2.3
				C497.7,632.2,497,632.6,496.2,632.6z"/>
		</g>
		<g>
			<path d="M481.2,631c-0.1,0-0.1,0-0.2,0c-2.3-0.2-4.8-0.4-7.2-0.6c-1.1-0.1-1.9-1-1.9-2.1s1-1.9,2.1-1.9c2.5,0.2,5,0.4,7.3,0.6
				c1.1,0.1,1.9,1.1,1.8,2.2C483.1,630.2,482.2,631,481.2,631z"/>
		</g>
		<g>
			<path d="M449.1,630c-1,0-1.9-0.8-2-1.9c-0.1-1.1,0.7-2.1,1.8-2.1c2.7-0.2,5.1-0.3,7.5-0.3c1.1,0,2,0.9,2,2s-0.9,2-2,2
				c-2.3,0-4.6,0.1-7.2,0.3C449.2,630,449.1,630,449.1,630z"/>
		</g>
		<g>
			<path d="M473.9,630.4c0,0-0.1,0-0.1,0c-5.9-0.4-11.9-0.6-17.4-0.6c-1.1,0-2-0.9-2-2s0.9-2,2-2c5.5,0,11.6,0.2,17.6,0.7
				c1.1,0.1,1.9,1,1.9,2.1C475.8,629.6,475,630.4,473.9,630.4z"/>
		</g>
		<g>
			<path d="M477.7,665.3c-0.3,0-0.6-0.1-0.9-0.2c-1-0.5-1.4-1.7-0.9-2.7l0.8-1.5c1.5-2.8,2.9-5.7,4-8c-0.6,0.5-1.2,1.1-2,1.7
				c-0.3,0.3-0.6,0.5-0.9,0.7c-0.9,0.6-2.2,0.4-2.8-0.5c-0.6-0.9-0.4-2.2,0.5-2.8c0.2-0.1,0.4-0.3,0.6-0.4c5.1-4.6,7.3-6,9.1-4.6
				c2.2,1.7,0.7,4.7-5,15.6l-0.8,1.5C479.1,664.9,478.4,665.3,477.7,665.3z"/>
		</g>
		<g>
			<path d="M396.8,618.4l-2.5-3.1c4.1-3.3,40.5-31.7,59.8-28.6c0.2,0,0.5,0.1,0.7,0.2c0.9,0.5,23.2,13,26.9,26
				c0.3,1.1-0.3,2.2-1.4,2.5c-1.1,0.3-2.2-0.3-2.5-1.4c-3.1-10.7-22.1-22-24.7-23.5c-7.3-1-19.1,3.3-34.1,12.4
				C407.4,610.1,397.9,617.6,396.8,618.4z M395.6,616.9L395.6,616.9L395.6,616.9z"/>
		</g>
		<g>
			<path d="M435.2,660.5c-0.2,0-0.3,0-0.5-0.1c-5.2-1.4-8.4-3.8-9.5-7.1c-1.1-3.5,0.2-7.7,4.1-12.4c2.2-2.7,4.6-5.2,7.2-7.5
				c0.8-0.7,2.1-0.6,2.8,0.2c0.7,0.8,0.6,2.1-0.2,2.8c-2.4,2.1-4.7,4.5-6.8,7c-2.9,3.6-4,6.5-3.4,8.6c0.8,2.4,4.1,3.8,6.8,4.5
				c1.1,0.3,1.7,1.4,1.4,2.4C436.9,659.9,436.1,660.5,435.2,660.5z"/>
		</g>
		<g>
			<path d="M437.8,637c-0.6,0-1.1-0.2-1.5-0.7c-0.7-0.8-0.6-2.1,0.2-2.8c2.9-2.5,6-4.8,9.2-6.9c0.9-0.6,2.2-0.3,2.8,0.6
				s0.3,2.2-0.6,2.8c-3,2-6,4.2-8.7,6.6C438.8,636.8,438.3,637,437.8,637z"/>
		</g>
		<g>
			<path d="M447.5,661.7c-4.9,0-9.4-0.4-12.7-1.3c-1.1-0.3-1.7-1.4-1.4-2.4c0.3-1.1,1.4-1.7,2.4-1.4c11.7,3.1,33.3,0,39.7-4.5
				c0.9-0.6,2.2-0.4,2.8,0.5c0.6,0.9,0.4,2.1-0.5,2.8C471.9,659.5,458.7,661.7,447.5,661.7z"/>
		</g>
		<g>
			<path d="M446.8,630.2c-0.7,0-1.3-0.3-1.7-0.9c-0.6-0.9-0.3-2.2,0.6-2.8c10.4-6.6,21.8-11.6,33.7-14.7c1.1-0.3,2.2,0.4,2.4,1.4
				c0.3,1.1-0.3,2.2-1.4,2.4c-11.5,3.1-22.5,7.9-32.6,14.3C447.5,630.1,447.1,630.2,446.8,630.2z"/>
		</g>
		<g>
			<path d="M204.9,655.7c-0.9,0-1.8-0.7-2-1.6c-0.4-2.1-0.6-4.3-0.7-6.5c0-1.1,0.8-2,1.9-2.1c1.1-0.1,2,0.8,2.1,1.9
				c0.1,2,0.3,4,0.6,5.9c0.2,1.1-0.5,2.1-1.6,2.3C205.2,655.6,205.1,655.7,204.9,655.7z"/>
		</g>
		<g>
			<path d="M198.1,619.4c-0.5,0-1-0.2-1.4-0.6c-0.8-0.8-0.8-2,0-2.8l3.6-3.7c0.8-0.8,2-0.8,2.8,0c0.8,0.8,0.8,2,0,2.8l-3.6,3.7
				C199.1,619.2,198.6,619.4,198.1,619.4z"/>
		</g>
		<g>
			<path d="M476.6,655.7c-0.1,0-0.2,0-0.4,0c-1.1-0.2-1.8-1.2-1.6-2.3c0.4-1.9,0.6-3.9,0.6-5.9c0-1.1,1-2,2.1-1.9c1.1,0,2,1,1.9,2.1
				c-0.1,2.2-0.3,4.4-0.7,6.5C478.4,655,477.6,655.7,476.6,655.7z"/>
		</g>
		<g>
			<path d="M483.5,619.4c-0.5,0-1-0.2-1.4-0.6l-3.6-3.7c-0.8-0.8-0.7-2.1,0-2.8c0.8-0.8,2.1-0.7,2.8,0l3.6,3.7
				c0.8,0.8,0.7,2.1,0,2.8C484.5,619.2,484,619.4,483.5,619.4z"/>
		</g>
		<g>
			<path d="M479.9,615.7c-0.9,0-1.7-0.6-1.9-1.4c0-0.1-0.1-0.2-0.1-0.3c-0.3-1.1,0.4-2.2,1.5-2.4c1-0.2,2,0.3,2.3,1.2
				c0.1,0.2,0.2,0.5,0.2,0.9C481.9,614.8,481,615.7,479.9,615.7z M477.9,613.7C477.9,613.7,477.9,613.7,477.9,613.7
				C477.9,613.7,477.9,613.7,477.9,613.7z M477.9,613.7C477.9,613.7,477.9,613.7,477.9,613.7C477.9,613.7,477.9,613.7,477.9,613.7z"
				/>
		</g>
		<g>
			<path d="M97.4,636c-6.1,0-12.5-0.5-19.2-1.5c-20.5-3-36.4-9.4-37.1-9.7c-0.1,0-0.2-0.1-0.3-0.2c-0.3-0.2-7.7-4.9-9.2-14.1
				c-1.2-7.1,1.3-14.7,7.6-22.6c10.5-13.4,32.2-18.4,48.5-20.2c1.1-0.1,2.1,0.7,2.2,1.8s-0.7,2.1-1.8,2.2
				c-15.6,1.7-36.1,6.4-45.8,18.7c-5.5,7-7.8,13.5-6.8,19.4c1.1,6.8,6.4,10.7,7.3,11.4c3.8,1.5,64.6,24.7,97.2-2
				c0.9-0.7,2.1-0.6,2.8,0.3c0.7,0.9,0.6,2.1-0.3,2.8C131.5,631.4,116.1,636,97.4,636z"/>
		</g>
		<g>
			<path d="M141.3,622.8c-0.1,0-0.2,0-0.3,0c-1.1-0.2-1.8-1.2-1.6-2.3c1.5-8.8,0.5-17.8-2.9-26.1c-3.8-8.8-23-14.6-38.5-19.3
				c-3.8-1.1-7.4-2.2-10.6-3.3c-1-0.4-1.6-1.5-1.3-2.5c0.4-1,1.5-1.6,2.5-1.3c3.2,1.1,6.7,2.1,10.5,3.3c17.1,5.2,36.5,11.1,41,21.6
				c3.8,9,4.9,18.8,3.2,28.3C143.1,622.1,142.2,622.8,141.3,622.8z"/>
		</g>
		<g>
			<path d="M100.8,650.7c-26.4,0-53-17.8-54.1-18.6c-0.9-0.6-1.1-1.8-0.6-2.7c0.5-0.9,1.7-1.3,2.6-0.8c0.5,0.2,46.9,22.9,84.4,2.6
				c0.2-0.1,0.3-0.2,0.5-0.2c0.2,0,21.1-4.5,32.8-9.8c0.1-0.1,0.2-0.1,0.4-0.1c0.5-0.1,1.1-0.1,1.6,0.2c0.5,0.3,0.8,0.7,1,1.3
				c0.1,0.5,0,1.1-0.2,1.6c-0.2,0.3-0.5,0.6-0.8,0.8C161.1,629.4,124.8,650.7,100.8,650.7z M73.9,641.3c8.2,3,17.7,5.4,26.9,5.4
				c14.1,0,32.9-7.9,47-14.9c-6.4,1.7-11.7,2.9-13,3.2C114,646.1,91.1,645,73.9,641.3z"/>
		</g>
		<g>
			<path d="M584.2,636.1c-18.7,0-34.1-4.6-45.1-13.7c-0.9-0.7-1-2-0.3-2.8c0.7-0.9,2-1,2.8-0.3c32.5,26.7,93.3,3.5,97.2,2
				c0.9-0.6,6.2-4.6,7.3-11.4c1-5.9-1.3-12.4-6.8-19.4c-9.7-12.3-30.3-17-45.8-18.7c-1.1-0.1-1.9-1.1-1.8-2.2
				c0.1-1.1,1.1-1.9,2.2-1.8c16.3,1.8,38,6.8,48.5,20.2c6.2,7.9,8.8,15.5,7.6,22.6c-1.6,9.2-8.9,13.9-9.2,14.1
				c-0.1,0.1-0.2,0.1-0.3,0.2c-0.7,0.3-16.6,6.7-37.1,9.7C596.6,635.6,590.2,636.1,584.2,636.1z"/>
		</g>
		<g>
			<path d="M542,629.5c-0.1,0-0.3,0-0.4,0c-0.4-0.1-10.2-2.2-20.1-7.5c-13.5-7.2-20.5-16.9-20.3-28.1c0.4-25,23.5-38,24.5-38.5
				c0.3-0.2,0.7-0.3,1-0.2c0.2,0,20.1,0.7,39.9,1.5c41.4,1.8,41.5,2.3,42,4.2c1.4,5.2-6.3,8.2-14.2,10.9c-1,0.3-2.2-0.2-2.5-1.3
				c-0.4-1,0.2-2.2,1.3-2.5c7.5-2.5,10.2-4.2,11.1-5.1c-8.9-1.1-50.5-2.8-77.1-3.7c-3.1,1.9-21.6,14-22,34.8
				c-0.3,19.2,24.8,28.1,34,30.8c-0.3-1.2-0.5-2.4-0.7-3.6c-0.2-1.1,0.6-2.1,1.7-2.3c1.1-0.2,2.1,0.6,2.3,1.7
				c0.3,2.2,0.9,4.3,1.6,6.4c0.2,0.7,0.1,1.4-0.4,2C543.1,629.3,542.5,629.5,542,629.5z M604.6,561.9L604.6,561.9L604.6,561.9z"/>
		</g>
		<g>
			<path d="M580.7,650.8c-11.1,0-25.7-4.4-43.4-13.2c-13.1-6.5-23.1-13-23.2-13.1c-0.9-0.6-1.2-1.7-0.7-2.6c0.5-0.9,1.6-1.3,2.6-0.9
				c9.6,4.4,19.8,7.5,30.2,9.3c0.2,0,0.4,0.1,0.6,0.2c37.6,20.3,85.6-1.6,86-1.8c0.9-0.4,2.1-0.1,2.6,0.8c0.5,0.9,0.2,2.1-0.6,2.6
				C633.7,633,607.1,650.8,580.7,650.8z M535.3,632.1c13.5,7,31.5,14.7,45.4,14.7c10.4,0,21.1-3,30-6.6c-17.9,4.1-43.1,6-65.5-5.9
				C541.9,633.7,538.6,632.9,535.3,632.1z"/>
		</g>
		<g>
			<path d="M139.6,629.5c-0.6,0-1.1-0.2-1.5-0.7c-0.5-0.5-0.6-1.3-0.4-2c0.7-2.1,1.2-4.2,1.6-6.4c0.2-1.1,1.2-1.8,2.3-1.7
				c1.1,0.2,1.8,1.2,1.7,2.3c-0.2,1.2-0.4,2.4-0.7,3.6c9.2-2.6,34.3-11.6,34-30.8c-0.4-20.8-18.9-32.9-22-34.8
				c-26.6,0.9-68.1,2.5-77.1,3.7c1,1,3.7,2.6,11.1,5.1c1,0.4,1.6,1.5,1.3,2.5c-0.4,1-1.5,1.6-2.5,1.3c-8-2.7-15.6-5.7-14.2-10.9
				c0.5-1.9,0.6-2.4,42-4.2c19.7-0.8,39.7-1.5,39.9-1.5c0.4,0,0.7,0.1,1,0.2c1,0.5,24.1,13.5,24.5,38.5c0.2,11.1-6.8,20.9-20.3,28.1
				c-9.9,5.3-19.7,7.4-20.1,7.5C139.9,629.5,139.7,629.5,139.6,629.5z M76.9,561.8C76.9,561.8,76.9,561.8,76.9,561.8
				C76.9,561.8,76.9,561.8,76.9,561.8z"/>
		</g>
		<g>
			<path d="M540.3,622.8c-1,0-1.8-0.7-2-1.7c-1.7-9.6-0.6-19.4,3.2-28.3c4.5-10.6,23.9-16.4,41-21.6c3.8-1.1,7.3-2.2,10.5-3.3
				c1-0.3,2.2,0.2,2.5,1.3c0.4,1-0.2,2.2-1.3,2.5c-3.2,1.1-6.8,2.2-10.6,3.3c-15.5,4.7-34.7,10.5-38.5,19.4
				c-3.4,8.2-4.5,17.3-2.9,26.1c0.2,1.1-0.5,2.1-1.6,2.3C540.5,622.8,540.4,622.8,540.3,622.8z"/>
		</g>
		<g>
			<path d="M86.6,662.4c-7.2,0-13.4-0.8-18.8-2.4c-29.1-8.6-53.8-45.7-54-53.1c-0.3-7.8,1.6-13.9,5.9-19.6
				c4.6-6.1,26.2-21.1,46-32.2c18.4-10.2,79.6-7.9,91.7-7.3c1.1,0.1,2,1,1.9,2.1c-0.1,1.1-1,1.9-2.1,1.9c-7.3-0.3-71.8-3.1-89.6,6.8
				c-19.2,10.7-40.5,25.5-44.8,31.2c-3.8,5-5.3,10.1-5.1,17c0.2,5.4,23.1,41.1,51.2,49.4c26.4,7.8,70.9-7.7,74.2-8.9
				c2.6-1.7,31.3-20.4,41.9-31.5c0.8-0.8,2-0.8,2.8-0.1c0.8,0.8,0.8,2,0.1,2.8c-11.4,12-41.6,31.4-42.9,32.2
				c-0.1,0.1-0.3,0.1-0.4,0.2c-0.1,0-12.2,4.4-27.5,7.7C105.7,661.2,95.5,662.4,86.6,662.4z"/>
		</g>
		<g>
			<path d="M595,662.5c-8.9,0-19.1-1.2-30.6-3.7c-15.3-3.3-27.4-7.7-27.5-7.7c-0.1,0-0.3-0.1-0.4-0.2c-1.3-0.8-31.5-20.3-42.9-32.2
				c-0.8-0.8-0.7-2.1,0.1-2.8c0.8-0.8,2.1-0.7,2.8,0.1c10.6,11.1,39.3,29.8,41.9,31.5c3.4,1.2,47.8,16.7,74.2,8.9
				c28-8.3,51-44,51.2-49.4c0.2-7-1.3-12.1-5.1-17c-4.3-5.6-25.7-20.5-44.8-31.1c-17.8-9.9-82.3-7.2-89.6-6.8c-1.1,0-2-0.8-2.1-1.9
				s0.8-2,1.9-2.1c12.1-0.6,73.3-2.9,91.7,7.3c19.9,11.1,41.4,26.1,46,32.2c4.3,5.7,6.2,11.7,5.9,19.6c-0.2,7.3-25,44.5-54,53.1
				C608.4,661.7,602.1,662.5,595,662.5z"/>
		</g>
		<g>
			<path d="M186.3,619.7c-0.7,0-1.3-0.4-1.7-1c-0.4-0.6-0.4-1.3-0.1-1.9c0.1-0.2,0.1-0.3,0.2-0.4c0.4-1,1.6-1.5,2.6-1
				c0.2,0.1,0.3,0.2,0.5,0.3l10.2-0.3c1.1,0,2,0.8,2.1,1.9c0,1.1-0.8,2-1.9,2.1L186.3,619.7C186.4,619.7,186.3,619.7,186.3,619.7z
				 M184.6,616.8C184.6,616.8,184.6,616.8,184.6,616.8C184.6,616.8,184.6,616.8,184.6,616.8z"/>
		</g>
		<g>
			<path d="M157.3,551.8c-0.1,0-0.3,0-0.4,0l-0.6-0.1c-0.9-0.2-1.5-1-1.6-1.9c0-0.9,0.6-1.7,1.5-2c10.1-2.6,17.3-8.3,21.6-16.7
				c0.5-1,1.7-1.4,2.7-0.9c1,0.5,1.4,1.7,0.9,2.7c-4.5,8.9-12.4,15.2-22.7,18.3C158.4,551.6,157.8,551.8,157.3,551.8z"/>
		</g>
		<g>
			<path d="M201.7,615.5c-1,0-1.8-0.7-2-1.7c-0.2-1.2-1.7-11.7,7.2-16.4c-0.1-4.7,0.2-9.4,1.1-14.1c-5.5-1.3-15.4,4-19.1,6.4
				c-0.6,0.4-1.3,0.4-1.9,0.2c-0.6-0.3-1.1-0.8-1.2-1.5c0-0.2-0.1-0.5-0.2-0.7c-0.1-0.3-0.1-0.6-0.2-0.9c-0.2-1.1,0.5-2.1,1.6-2.4
				c0.7-0.1,1.4,0.1,1.8,0.6c1.6-0.9,4-2.2,6.6-3.3c6.8-2.9,12.1-3.4,15.7-1.4c0.8,0.4,1.2,1.3,1,2.2c-1.1,5.3-1.5,10.7-1.3,16.1
				c0,0.8-0.5,1.6-1.2,1.9c-7.5,3.1-6.2,11.6-6.1,12.6c0.2,1.1-0.5,2.1-1.6,2.3C201.9,615.5,201.8,615.5,201.7,615.5z"/>
		</g>
		<g>
			<path d="M191.6,582.6c-0.2,0-0.3,0-0.5-0.1c-0.7-0.2-1.3-0.8-1.5-1.5c-2.7-13.4-6.6-22.2-19.8-29.9c-0.6-0.4-1-1-1-1.8
				c0-0.7,0.4-1.4,1.1-1.7c2.5-1.3,9.3-5.7,9.9-9.8c0.1-0.7,0.5-1.3,1.2-1.5c0.6-0.3,1.3-0.2,1.9,0.1c15.5,10,17.1,15.5,17.3,17
				c0.5,5.1,5.4,18.7,9.2,21.2c0.7,0.5,1.1,1.4,0.8,2.2c-0.2,0.8-1,1.4-1.9,1.4c-5.1,0.1-13.1,1.2-15,3.5
				C192.7,582.3,192.2,582.6,191.6,582.6z M174.6,549.4c11.3,7.4,15.6,16.1,18.3,27.8c3.2-1.6,7.6-2.3,10.9-2.6
				c-4.1-6-7.3-16.6-7.7-20.7c-0.2-2.4-6.7-8.1-13.3-12.6C181,544.7,177.3,547.7,174.6,549.4z"/>
		</g>
		<g>
			<path d="M495.2,619.8C495.2,619.8,495.2,619.8,495.2,619.8l-11.8-0.3c-1.1,0-2-1-1.9-2.1c0-1.1,0.9-2,2.1-1.9l10.3,0.3
				c0.1-0.1,0.3-0.2,0.4-0.2c1-0.4,2.2,0,2.6,1c0,0.1,0.1,0.2,0.1,0.3c0.3,0.6,0.3,1.4-0.1,2C496.6,619.4,495.9,619.8,495.2,619.8z"
				/>
		</g>
		<g>
			<path d="M524.3,551.8c-0.6,0-1.1-0.2-1.4-0.6c-10.3-3.1-18.1-9.4-22.7-18.3c-0.5-1-0.1-2.2,0.9-2.7c1-0.5,2.2-0.1,2.7,0.9
				c4.3,8.4,11.6,14.1,21.6,16.7c0.9,0.2,1.5,1,1.5,2c0,0.9-0.7,1.7-1.6,1.9l-0.6,0.1C524.6,551.8,524.4,551.8,524.3,551.8z"/>
		</g>
		<g>
			<path d="M479.9,615.5c-0.1,0-0.2,0-0.3,0c-1.1-0.2-1.8-1.2-1.6-2.3c0.2-1,1.4-9.5-6.1-12.6c-0.8-0.3-1.3-1.1-1.2-1.9
				c0.2-5.4-0.2-10.8-1.3-16.1c-0.2-0.9,0.2-1.7,1-2.2c3.6-1.9,8.9-1.4,15.7,1.4c2.7,1.1,5,2.4,6.6,3.3c0.5-0.5,1.1-0.7,1.8-0.6
				c1.1,0.2,1.8,1.3,1.6,2.4c-0.1,0.3-0.1,0.6-0.2,0.9c-0.1,0.2-0.1,0.4-0.2,0.7c-0.1,0.7-0.6,1.2-1.2,1.5s-1.3,0.2-1.9-0.2
				c-3.6-2.4-13.5-7.7-19.1-6.4c0.8,4.6,1.2,9.4,1.1,14.1c8.9,4.6,7.4,15.1,7.2,16.4C481.7,614.8,480.8,615.5,479.9,615.5z"/>
		</g>
		<g>
			<path d="M490,582.6c-0.6,0-1.2-0.3-1.5-0.7c-1.9-2.3-10-3.5-15-3.5c-0.9,0-1.6-0.6-1.9-1.4c-0.2-0.8,0.1-1.7,0.8-2.2
				c3.8-2.5,8.7-16.2,9.2-21.2c0.1-1.5,1.8-7,17.3-17c0.6-0.4,1.3-0.4,1.9-0.1c0.6,0.3,1.1,0.9,1.2,1.5c0.6,4,7.5,8.5,9.9,9.8
				c0.6,0.3,1.1,1,1.1,1.7c0,0.7-0.4,1.4-1,1.8c-13.2,7.8-17.2,16.5-19.9,29.9c-0.2,0.8-0.7,1.4-1.5,1.5
				C490.3,582.6,490.1,582.6,490,582.6z M477.7,574.6c3.3,0.3,7.7,1,10.9,2.6c2.7-11.7,7-20.3,18.3-27.8c-2.7-1.8-6.4-4.7-8.1-8.2
				c-6.6,4.5-13.1,10.2-13.3,12.6C485.1,558,481.8,568.6,477.7,574.6z"/>
		</g>
		<g>
			<path d="M186.5,619.2c-0.3,0-0.5,0-0.8-0.2c-1-0.4-1.5-1.6-1.1-2.6c0.6-1.4,1.8-7.1,0.9-29.5l0-0.4c0-1.1,0.8-2,1.9-2.1
				c1.1,0,2,0.8,2.1,1.9l0,0.4c0.7,17.1,0.3,27.6-1.2,31.2C188,618.8,187.3,619.2,186.5,619.2z"/>
		</g>
		<g>
			<path d="M187.5,588.5c-0.9,0-1.7-0.6-2-1.6c-6.2-28.5-25-34.3-28.7-35.1c-1.1-0.3-1.7-1.3-1.5-2.4c0.3-1.1,1.3-1.7,2.4-1.5
				c4.1,1,25,7.3,31.7,38.2c0.2,1.1-0.4,2.1-1.5,2.4C187.8,588.5,187.6,588.5,187.5,588.5z"/>
		</g>
		<g>
			<path d="M495.1,619.3c-0.8,0-1.5-0.5-1.8-1.2c-2.3-5.5-1.5-25.6-1.2-31.6c0.1-1.1,1-2,2.1-1.9c1.1,0.1,2,1,1.9,2.1
				c-0.6,12.3-0.6,26.4,0.8,29.9c0.4,1,0,2.2-1.1,2.6C495.6,619.2,495.3,619.3,495.1,619.3z"/>
		</g>
		<g>
			<path d="M494.1,588.5c-0.1,0-0.3,0-0.4,0c-1.1-0.2-1.8-1.3-1.5-2.4c6.7-30.8,27.6-37.2,31.7-38.2c1.1-0.3,2.2,0.4,2.4,1.5
				c0.3,1.1-0.4,2.2-1.5,2.4c-1.6,0.4-7.1,2-13.1,7.1c-7.7,6.5-12.9,16-15.6,28.1C495.8,587.9,495,588.5,494.1,588.5z"/>
		</g>
		<g>
			<path d="M477.7,550c-0.5,0-1-0.2-1.4-0.6c-0.8-0.8-0.8-2.1,0-2.8c8.9-8.7,17.3-14.2,25.1-16.5c1.1-0.3,2.2,0.3,2.5,1.4
				c0.3,1.1-0.3,2.2-1.4,2.5c-7.2,2.1-15.1,7.3-23.4,15.5C478.7,549.8,478.2,550,477.7,550z"/>
		</g>
		<g>
			<path d="M501.9,534c-0.7,0-1.4-0.4-1.8-1.1c-2.1-4.1-3.4-8.6-3.9-13.2c-0.5-0.5-0.7-1.2-0.5-1.9c0.3-1,1.2-1.6,2.2-1.5l0.9,0.1
				c1.1,0.1,1.9,1.1,1.7,2.2c0,0.3-0.2,0.7-0.3,0.9c0.4,4,1.6,7.9,3.5,11.5c0.5,1,0.1,2.2-0.9,2.7C502.6,533.9,502.2,534,501.9,534z
				"/>
		</g>
		<g>
			<path d="M179.6,534c-0.3,0-0.6-0.1-0.9-0.2c-1-0.5-1.4-1.7-0.9-2.7c1.9-3.6,3-7.5,3.5-11.5c-0.2-0.3-0.3-0.6-0.4-0.9
				c-0.1-1.1,0.7-2.1,1.7-2.2l0.9-0.1c1-0.1,1.9,0.5,2.2,1.5c0.2,0.7,0,1.4-0.5,1.9c-0.5,4.6-1.8,9.1-3.9,13.2
				C181,533.6,180.3,534,179.6,534z"/>
		</g>
		<g>
			<path d="M213.3,452.6c-1,0-1.9-0.1-2.9-0.2c-3.7-0.4-8.5-2.1-13.1-3.7c-5.1-1.8-10.4-3.6-13.8-3.6c-4.2,0-12.1-1.3-16.5-2
				c-1.1-0.2-1.8-1.2-1.6-2.3s1.2-1.8,2.3-1.6c7.1,1.3,12.9,2,15.8,2c4,0,9.4,1.9,15.1,3.8c4.4,1.5,9,3.1,12.2,3.5
				c3.6,0.4,7.3-0.1,10.7-1.5c1-0.4,2.2,0.1,2.6,1.1c0.4,1-0.1,2.2-1.1,2.6C219.9,451.9,216.6,452.6,213.3,452.6z"/>
		</g>
		<g>
			<path d="M182.7,520.4c-0.6,0-1.3-0.3-1.7-0.9c-0.7-1.1-6-3.1-11.2-4.4c-0.1,0-0.3-0.1-0.4-0.1c-2.5-1.2-4.4-2.1-6-3
				c-1-0.5-1.3-1.7-0.8-2.7s1.7-1.3,2.7-0.8c1.5,0.8,3.3,1.7,5.6,2.8c2.9,0.7,11.4,3,13.4,6c0.6,0.9,0.4,2.2-0.6,2.8
				C183.4,520.3,183.1,520.4,182.7,520.4z"/>
		</g>
		<g>
			<path d="M180.6,514.5C180.6,514.5,180.6,514.5,180.6,514.5c-1,0-1.9-0.8-2-1.8c-0.3-2.9-12.1-9.4-26.8-14.9
				c-0.3-0.1-0.6-0.3-0.8-0.5c-0.6-0.6-0.8-1.6-0.4-2.3c0.4-0.8,1.3-1.2,2.1-1c7.8,1.5,23.9-8.8,34.6-15.6
				c10.3-6.5,13.3-8.4,15.4-6.7c0.7,0.6,1.3,1.6,0.6,3.6c-4.4,11.8-5.4,19.2-5.4,19.3c-0.1,0.8-0.7,1.4-1.4,1.7
				c-11.8,3.4-13.9,16.4-13.9,16.5C182.5,513.7,181.6,514.5,180.6,514.5z M160.7,497c7.2,3,15.1,6.9,19.2,10.8
				c1.7-4.7,5.7-12,14.4-15c0.4-2.5,1.7-8.3,4.7-16.8c-2.4,1.3-6,3.6-9.4,5.7C180.8,487.3,169.7,494.4,160.7,497z"/>
		</g>
		<g>
			<path d="M182.9,520.4c-0.2,0-0.4,0-0.6-0.1c-1-0.3-1.6-1.5-1.3-2.5c0.8-2.3,7.9-22.2,26.6-27.9c1-2.8,1.2-5.7,1.3-8.8
				c0.4-7,0.8-14.8,12.5-22.3c-0.9-1.7-1.6-4.4-0.5-8.5c-0.2-0.2-0.4-0.4-0.5-0.7c-0.4-1,0.1-2.2,1.1-2.6c0.8-0.3,1.3-0.6,1.3-0.6
				c0.7-0.4,1.7-0.3,2.3,0.3c0.6,0.6,0.8,1.5,0.5,2.3c-2.8,6.6-0.2,8.8-0.1,8.8c0.6,0.4,0.9,1,0.8,1.7c0,0.7-0.4,1.3-1,1.6
				c-11.7,6.8-12,13-12.4,20.3c-0.2,3.5-0.4,7.2-2,11c-0.2,0.6-0.7,1-1.3,1.1c-17.4,4.8-24.1,23.5-24.8,25.6
				C184.5,519.9,183.8,520.4,182.9,520.4z"/>
		</g>
		<g>
			<path d="M498.9,520.4c-0.4,0-0.8-0.1-1.1-0.3c-0.9-0.6-1.2-1.9-0.6-2.8c2-3,10.5-5.3,13.4-6c2.3-1.1,4.1-1.9,5.6-2.8
				c1-0.5,2.2-0.2,2.7,0.8c0.5,1,0.2,2.2-0.8,2.7c-1.7,0.9-3.5,1.8-6,3c-0.1,0.1-0.3,0.1-0.4,0.1c-5.2,1.2-10.5,3.3-11.2,4.4
				C500.1,520.1,499.5,520.4,498.9,520.4z"/>
		</g>
		<g>
			<path d="M468.3,452.5c-3.3,0-6.7-0.6-9.8-1.9c-1-0.4-1.5-1.6-1.1-2.6c0.4-1,1.6-1.5,2.6-1.1c3.4,1.4,7.1,1.9,10.7,1.5
				c3.3-0.4,7.8-2,12.2-3.5c5.7-2,11.1-3.8,15.1-3.8c2.9,0,8.6-0.7,15.8-2c1.1-0.2,2.1,0.5,2.3,1.6c0.2,1.1-0.5,2.1-1.6,2.3
				c-4.3,0.8-12.2,2-16.5,2c-3.4,0-8.7,1.8-13.8,3.6c-4.6,1.6-9.4,3.3-13.1,3.7C470.2,452.5,469.2,452.5,468.3,452.5z"/>
		</g>
		<g>
			<path d="M498.6,520.5c-0.8,0-1.6-0.5-1.9-1.4c-0.7-2.1-7.4-20.8-24.8-25.6c-0.6-0.2-1.1-0.6-1.3-1.1c-1.6-3.8-1.8-7.4-2-11
				c-0.4-7.2-0.7-13.5-12.4-20.3c-0.6-0.3-1-1-1-1.6c0-0.7,0.3-1.3,0.9-1.7c0.1-0.1,2.6-2.2-0.2-8.8c-0.3-0.8-0.1-1.7,0.5-2.3
				c0.6-0.6,1.5-0.7,2.3-0.3c0,0,0.5,0.3,1.3,0.6c1,0.4,1.5,1.6,1.1,2.6c-0.1,0.3-0.3,0.5-0.5,0.7c1.1,4.1,0.4,6.8-0.5,8.5
				c11.7,7.5,12.1,15.4,12.5,22.3c0.2,3,0.3,5.9,1.3,8.8c18.7,5.7,25.8,25.6,26.6,27.9c0.3,1-0.2,2.2-1.3,2.5
				C499.1,520.4,498.8,520.5,498.6,520.5z"/>
		</g>
		<g>
			<path d="M500.9,514.5c-1,0-1.8-0.7-2-1.7c-0.1-0.5-2.2-13.2-13.9-16.5c-0.8-0.2-1.3-0.9-1.4-1.7c0-0.1-1-7.4-5.4-19.3
				c-0.7-2-0.1-3.1,0.6-3.6c2.1-1.7,5.1,0.1,15.4,6.7c10.7,6.8,26.8,17,34.6,15.6c1-0.2,2,0.4,2.3,1.4s-0.3,2-1.2,2.4
				c-12.7,4.7-26.5,11.8-26.9,14.9C502.8,513.7,501.9,514.5,500.9,514.5C500.9,514.5,500.9,514.5,500.9,514.5z M487.3,492.8
				c8.7,3,12.7,10.3,14.4,15c4.3-4,12.6-8,19.2-10.8c-9-2.6-20.1-9.7-28.8-15.3c-3.4-2.1-7-4.5-9.4-5.7
				C485.6,484.5,486.9,490.4,487.3,492.8z"/>
		</g>
		<g>
			<path d="M164.4,512.2c-0.1,0-0.2,0-0.3,0c-13.6-2.1-36.9-12.7-49.5-18.8l-0.4-0.2c-1-0.5-1.4-1.7-0.9-2.7c0.5-1,1.7-1.4,2.7-0.9
				l0.4,0.2c10,4.8,34.8,16.3,48.4,18.4c1.1,0.2,1.8,1.2,1.7,2.3C166.2,511.5,165.3,512.2,164.4,512.2z"/>
		</g>
		<g>
			<path d="M164.3,512.2c-0.3,0-0.6-0.1-0.9-0.2c-11.1-5.9-17.3-11.5-19.1-17.3c-0.3-1.1,0.3-2.2,1.3-2.5c1.1-0.3,2.2,0.3,2.5,1.3
				c1,3.2,4.7,8.4,17.1,14.9c1,0.5,1.3,1.7,0.8,2.7C165.8,511.9,165.1,512.2,164.3,512.2z"/>
		</g>
		<g>
			<path d="M167.4,443.1c-0.2,0-0.3,0-0.5-0.1c-5-1.2-10.2-2.3-14.3-3c-4.4-0.7-10-1.9-17.1-3.6c-1.1-0.3-1.7-1.3-1.5-2.4
				c0.3-1.1,1.3-1.7,2.4-1.5c7,1.7,12.5,2.9,16.9,3.6c4.1,0.7,9.4,1.8,14.5,3.1c1.1,0.3,1.7,1.3,1.5,2.4
				C169.1,442.5,168.3,443.1,167.4,443.1z"/>
		</g>
		<g>
			<path d="M115,493.5c-0.2,0-0.4,0-0.6-0.1c-4.4-1.3-8.4-2.7-12.3-4c-1-0.4-1.6-1.5-1.2-2.6c0.4-1,1.5-1.6,2.6-1.2
				c3.8,1.4,7.7,2.7,12,4c1.1,0.3,1.7,1.4,1.3,2.5C116.7,492.9,115.9,493.5,115,493.5z"/>
		</g>
		<g>
			<path d="M135.3,497.3c-4.7,0-9.4-0.7-14-2c-2.1-0.6-4.3-1.2-6.9-2c-1.1-0.3-1.7-1.4-1.3-2.5s1.4-1.7,2.5-1.3
				c2.6,0.8,4.8,1.4,6.8,2c7.6,2.2,15.7,2.4,23.3,0.6c1.1-0.2,2.1,0.4,2.4,1.5c0.2,1.1-0.4,2.1-1.5,2.4
				C142.9,496.9,139.1,497.3,135.3,497.3z"/>
		</g>
		<g>
			<path d="M146.2,496.1c-0.9,0-1.7-0.6-2-1.6c-0.2-1.1,0.4-2.1,1.5-2.4c10.1-2.2,20.1-7.3,32.7-13.8c5.7-2.9,11.5-5.9,18.2-9
				c5.8-2.7,8.8-5.6,8.6-8.1c-0.6-5.6-15.3-12.5-38.4-18.2c-1.1-0.3-1.7-1.3-1.5-2.4s1.3-1.7,2.4-1.5c18.3,4.5,40.4,11.9,41.4,21.7
				c0.5,4.5-3.1,8.4-10.8,12.1c-6.6,3.1-12.4,6.1-18.1,9c-12.9,6.6-23.1,11.8-33.7,14.2C146.5,496.1,146.4,496.1,146.2,496.1z"/>
		</g>
		<g>
			<path d="M517.2,512.3c-1,0-1.8-0.7-2-1.7c-0.2-1.1,0.6-2.1,1.7-2.3c13.7-2.1,38.5-13.6,48.6-18.5l0.2-0.1c1-0.5,2.2-0.1,2.7,0.9
				c0.5,1,0.1,2.2-0.9,2.7l-0.2,0.1c-10.2,4.9-35.4,16.6-49.7,18.9C517.4,512.3,517.3,512.3,517.2,512.3z"/>
		</g>
		<g>
			<path d="M517.2,512.3c-0.7,0-1.4-0.4-1.8-1.1c-0.5-1-0.1-2.2,0.8-2.7c12.4-6.6,16.2-11.7,17.1-14.9c0.3-1.1,1.4-1.7,2.5-1.3
				c1.1,0.3,1.7,1.4,1.3,2.5c-1.7,5.8-8,11.5-19.1,17.3C517.8,512.2,517.5,512.3,517.2,512.3z"/>
		</g>
		<g>
			<path d="M566.5,493.5c-0.9,0-1.6-0.6-1.9-1.4c-0.3-1.1,0.3-2.2,1.3-2.5c4.4-1.3,8.3-2.6,12.1-4c1-0.4,2.2,0.2,2.6,1.2
				c0.4,1-0.2,2.2-1.2,2.6c-3.8,1.4-7.8,2.7-12.2,4C566.9,493.5,566.7,493.5,566.5,493.5z"/>
		</g>
		<g>
			<path d="M514.2,443.1c-0.9,0-1.7-0.6-1.9-1.5c-0.3-1.1,0.4-2.2,1.5-2.4c5.1-1.3,10.4-2.4,14.5-3.1c4.3-0.7,9.8-1.9,16.9-3.6
				c1.1-0.3,2.2,0.4,2.4,1.5s-0.4,2.2-1.5,2.4c-7.1,1.7-12.7,2.9-17.1,3.6c-4,0.7-9.2,1.8-14.3,3
				C514.5,443.1,514.3,443.1,514.2,443.1z"/>
		</g>
		<g>
			<path d="M546.2,497.4c-3.8,0-7.6-0.4-11.4-1.3c-1.1-0.2-1.7-1.3-1.5-2.4c0.2-1.1,1.3-1.7,2.4-1.5c7.7,1.8,15.7,1.6,23.3-0.6
				c2.1-0.6,4.2-1.2,6.8-2c1.1-0.3,2.2,0.3,2.5,1.3c0.3,1.1-0.3,2.2-1.3,2.5c-2.6,0.8-4.8,1.4-6.9,2
				C555.6,496.7,550.9,497.4,546.2,497.4z"/>
		</g>
		<g>
			<path d="M535.3,496.1c-0.1,0-0.3,0-0.4,0c-10.6-2.3-20.8-7.6-33.7-14.2c-5.6-2.9-11.5-5.9-18.1-9c-7.7-3.7-11.3-7.6-10.8-12.1
				c1-9.8,23.1-17.2,41.4-21.7c1.1-0.3,2.2,0.4,2.4,1.5c0.3,1.1-0.4,2.2-1.5,2.4c-23.1,5.6-37.8,12.6-38.4,18.2
				c-0.2,2.5,2.8,5.3,8.6,8c6.6,3.1,12.5,6.1,18.2,9c12.6,6.5,22.6,11.6,32.7,13.8c1.1,0.2,1.8,1.3,1.5,2.4
				C537.1,495.5,536.2,496.1,535.3,496.1z"/>
		</g>
		<g>
			<path d="M136,436.4c-0.4,0-0.8-0.1-1.1-0.4l-0.1-0.1c-21.7-4.4-60.1-19.6-61.8-20.2c-1-0.4-1.5-1.6-1.1-2.6
				c0.4-1,1.6-1.5,2.6-1.1c0.4,0.2,40.2,15.9,61.5,20.1c0.3,0.1,0.5,0.2,0.8,0.3l0.5,0.3c0.9,0.6,1.1,1.9,0.5,2.8
				C137.2,436.1,136.6,436.4,136,436.4z"/>
		</g>
		<g>
			<path d="M100.1,488.5c-0.2,0-0.5,0-0.7-0.1c-9.6-3.5-42.4-16.2-63.8-31.9c-0.9-0.7-1.1-1.9-0.4-2.8c0.7-0.9,1.9-1.1,2.8-0.4
				c20.9,15.4,53.3,27.9,62.8,31.4c1,0.4,1.6,1.5,1.2,2.6C101.7,488,100.9,488.5,100.1,488.5z"/>
		</g>
		<g>
			<path d="M35.7,456.5l1.2-1.6L35.7,456.5c-0.7-0.5-1.4-1-2-1.5c-0.9-0.7-1-1.9-0.3-2.8c0.7-0.9,1.9-1,2.8-0.3
				c0.6,0.5,1.3,1,1.9,1.4L35.7,456.5z"/>
		</g>
		<g>
			<path d="M32,453.1c-0.4,0-0.9-0.1-1.3-0.5c-0.4-0.3-0.8-0.7-1.2-1l-0.4-0.3c-0.8-0.7-0.9-2-0.2-2.8c0.7-0.8,2-0.9,2.8-0.2
				l0.4,0.3c0.4,0.3,0.7,0.6,1.1,0.9c0.9,0.7,1,2,0.3,2.8C33.1,452.9,32.6,453.1,32,453.1z"/>
		</g>
		<g>
			<path d="M102.9,489.5c-1,0-1.9-0.7-2-1.8c-0.1-1.1,0.6-2.1,1.7-2.2c38.2-4.7,48.4-14.2,50.2-21.4c3.2-12.4-15.9-26.5-18-28.1
				c-0.9-0.6-1.1-1.9-0.5-2.8c0.6-0.9,1.9-1.1,2.8-0.5c3.9,2.8,23.3,17.6,19.6,32.3c-3.1,12.2-21.1,20.4-53.6,24.4
				C103,489.5,103,489.5,102.9,489.5z"/>
		</g>
		<g>
			<path d="M106.5,486.3C106.5,486.3,106.4,486.3,106.5,486.3c-15-0.6-67.8-31.1-70-32.4c-0.9-0.5-1.2-1.6-0.8-2.6s1.5-1.4,2.5-1.1
				c9.6,3.3,29.2-0.2,29.4-0.3c0.7-0.1,1.5,0.1,1.9,0.7c7.9,9.7,58,21.5,67,23.3c0.2,0,0.5,0.1,0.7,0.3c0.9,0.5,1.2,1.6,0.8,2.5
				c-2.6,5.6-22.6,8.4-31.2,9.4C106.6,486.3,106.6,486.3,106.5,486.3z M47.8,455.6c5.3,2.9,12.3,6.8,19.7,10.6
				c24.9,12.8,34.9,15.8,39,16.1c10.5-1.2,20.2-3.3,24.9-5.3c-1.3-0.3-3-0.7-5.1-1.2c-5.2-1.2-13.1-3.2-21.4-5.6
				c-20.2-5.8-32.9-11.2-37.8-16.1C64.1,454.6,55.8,455.8,47.8,455.6z"/>
		</g>
		<g>
			<path d="M581.4,488.5c-0.8,0-1.6-0.5-1.9-1.3c-0.4-1,0.1-2.2,1.2-2.6c9.4-3.5,41.7-16,62.8-31.4c0.9-0.7,2.1-0.5,2.8,0.4
				c0.7,0.9,0.5,2.1-0.4,2.8c-21.5,15.7-54.2,28.4-63.8,31.9C581.9,488.5,581.6,488.5,581.4,488.5z"/>
		</g>
		<g>
			<path d="M545.5,436.4c-0.6,0-1.2-0.3-1.6-0.9c-0.6-0.9-0.4-2.2,0.5-2.8l0.5-0.3c0.2-0.2,0.5-0.3,0.8-0.3
				c21.3-4.2,61.1-19.9,61.5-20.1c1-0.4,2.2,0.1,2.6,1.1c0.4,1-0.1,2.2-1.1,2.6c-1.6,0.6-40.1,15.9-61.8,20.2l-0.1,0.1
				C546.3,436.3,545.9,436.4,545.5,436.4z"/>
		</g>
		<g>
			<path d="M644.7,456.9c-0.6,0-1.2-0.3-1.6-0.8c-0.7-0.9-0.5-2.1,0.4-2.8c0.7-0.5,1.3-1,2-1.5c0.9-0.7,2.1-0.5,2.8,0.4
				c0.7,0.9,0.5,2.1-0.4,2.8c-0.7,0.5-1.3,1-2,1.5C645.5,456.8,645.1,456.9,644.7,456.9z"/>
		</g>
		<g>
			<path d="M649.5,453.1c-0.6,0-1.1-0.2-1.5-0.7c-0.7-0.8-0.6-2.1,0.2-2.8c0.3-0.2,0.5-0.4,0.8-0.7c0.2-0.2,0.5-0.4,0.7-0.6
				c0.8-0.7,2.1-0.6,2.8,0.2c0.7,0.8,0.6,2.1-0.2,2.8c-0.3,0.2-0.5,0.4-0.8,0.7c-0.2,0.2-0.5,0.4-0.7,0.6
				C650.4,453,650,453.1,649.5,453.1z"/>
		</g>
		<g>
			<path d="M578.7,489.5c-0.1,0-0.2,0-0.2,0c-32.5-4-50.5-12.2-53.6-24.4c-3.7-14.7,15.7-29.5,19.6-32.3c0.9-0.6,2.1-0.4,2.8,0.5
				c0.6,0.9,0.4,2.1-0.5,2.8c-2.2,1.6-21.2,15.6-18,28.1c1.8,7.2,12,16.7,50.2,21.4c1.1,0.1,1.9,1.1,1.7,2.2
				C580.5,488.8,579.7,489.5,578.7,489.5z"/>
		</g>
		<g>
			<path d="M575.1,486.3c-0.1,0-0.2,0-0.2,0c-8.5-1-28.6-3.9-31.2-9.4c-0.3-0.6-0.2-1.2,0-1.7c0.3-0.5,0.8-0.9,1.4-1.1
				c16.2-3.5,59.8-14.4,67.1-23.4c0.5-0.6,1.2-0.8,1.9-0.7c0.2,0,19.7,3.6,29.3,0.3c1-0.3,2,0.1,2.5,1.1c0.4,0.9,0.1,2-0.8,2.6
				C642.8,455.2,590.1,485.7,575.1,486.3C575.1,486.3,575.1,486.3,575.1,486.3z M550.2,477c4.8,1.9,14.6,4.1,24.9,5.3
				c4.1-0.2,14.1-3.2,39-16.1c7.4-3.8,14.4-7.6,19.7-10.6c-8,0.2-16.4-1.1-19.4-1.5C604.5,463.9,563.7,473.9,550.2,477z"/>
		</g>
		<g>
			<path d="M30.5,451.8c-0.5,0-0.9-0.2-1.3-0.5c-1.1-1-2.1-1.8-3-2.7c-0.8-0.8-0.8-2,0-2.8c0.8-0.8,2-0.8,2.8,0
				c0.8,0.8,1.8,1.6,2.8,2.6c0.8,0.7,0.9,2,0.2,2.8C31.6,451.6,31.1,451.8,30.5,451.8z"/>
		</g>
		<g>
			<path d="M34.8,455.4c-0.4,0-0.9-0.1-1.2-0.4c-1-0.8-2-1.5-2.9-2.3c-0.9-0.7-1-2-0.3-2.8c0.7-0.9,2-1,2.8-0.3
				c0.9,0.7,1.8,1.5,2.8,2.2c0.9,0.7,1,1.9,0.4,2.8C36,455.1,35.4,455.4,34.8,455.4z"/>
		</g>
		<g>
			<path d="M646.7,455.4c-0.6,0-1.2-0.3-1.6-0.8c-0.7-0.9-0.5-2.1,0.4-2.8c1-0.7,1.9-1.5,2.8-2.2c0.8-0.7,2.1-0.6,2.8,0.3
				c0.7,0.8,0.6,2.1-0.3,2.8c-0.9,0.8-1.9,1.6-2.9,2.3C647.6,455.3,647.1,455.4,646.7,455.4z"/>
		</g>
		<g>
			<path d="M651,451.9c-0.6,0-1.1-0.2-1.5-0.7c-0.7-0.8-0.6-2.1,0.2-2.8c1-0.8,1.9-1.7,2.8-2.5c0.8-0.8,2-0.8,2.8,0s0.8,2,0,2.8
				c-0.9,0.9-2,1.9-3,2.7C651.9,451.7,651.5,451.9,651,451.9z"/>
		</g>
		<g>
			<path d="M73.6,415.9c-0.3,0-0.6-0.1-0.9-0.2c-14.2-6.8-20.1-36.4-21.3-43.8c-0.1-0.2-0.1-0.5-0.1-0.7v-0.3c0-1,0.8-1.9,1.8-2
				c1-0.1,2,0.7,2.2,1.8c2.1,13,8.5,36.4,19.2,41.4c1,0.5,1.4,1.7,0.9,2.7C75.1,415.4,74.4,415.9,73.6,415.9z"/>
		</g>
		<g>
			<path d="M27.6,449.2c-0.5,0-1-0.2-1.4-0.6C13.9,436.8,6,422.3,2,404.2c-1.8-10.6-3.4-24.6,0.4-40.5c0.2-0.9,0.9-1.5,1.8-1.5
				c0.9-0.1,1.7,0.5,2,1.3c0,0.1,0.1,0.2,0.1,0.3c0.4,0.8,0.2,1.8-0.4,2.4c-3.2,14.5-1.7,27.5,0,37.3c3.8,17.2,11.4,31.1,23.1,42.3
				c0.8,0.8,0.8,2,0.1,2.8C28.7,449,28.2,449.2,27.6,449.2z"/>
		</g>
		<g>
			<path d="M40.5,400.7c-3.8,0-8.2-1.9-13.1-5.6c-0.9-0.7-1-1.9-0.4-2.8c0.7-0.9,1.9-1,2.8-0.4c5.1,3.9,9.4,5.5,12.5,4.5
				c2.6-0.8,4.7-3.4,6.2-7.8c0.4-1,1.5-1.6,2.5-1.2c1,0.4,1.6,1.5,1.2,2.5c-2,5.7-5,9.2-8.9,10.4C42.6,400.5,41.6,400.7,40.5,400.7z
				"/>
		</g>
		<g>
			<path d="M47.7,450.5c-10.9,0-20.1-1.3-20.3-1.4c-1.1-0.2-1.8-1.2-1.7-2.3c0.2-1.1,1.2-1.8,2.3-1.7c11.9,1.7,44.5,3.7,51.1-7.7
				c2.9-5,0.6-12.6-7-22.4c-0.7-0.9-0.5-2.1,0.4-2.8s2.1-0.5,2.8,0.4C84,424,86.4,433,82.5,439.6C77.2,448.5,61.1,450.5,47.7,450.5z
				"/>
		</g>
		<g>
			<path d="M47.5,446.1c-9.1,0-16.4-1.9-16.8-2c-0.3-0.1-0.5-0.2-0.7-0.4c-12.9-10.6-19.3-27.2-22.5-39.3c-3.4-13-3.8-23.4-3.8-23.8
				c0-0.9,0.6-1.8,1.5-2c0.9-0.2,1.8,0.2,2.3,1c4.3,8.1,10.8,14.6,19,18.7c0.6,0.3,1,0.9,1.1,1.6c1.4,19.1,28,37.6,33.3,41.1
				c0.7,0.4,1,1.2,0.9,2s-0.7,1.4-1.5,1.6C55.9,445.7,51.5,446.1,47.5,446.1z M32.2,440.3c2.1,0.5,12.1,2.7,22.5,1.3
				c-4.5-3.2-11-8.4-16.9-14.7c-8.4-8.9-13.1-17.5-14-25.6c-5.9-3.2-11.1-7.6-15.2-12.9C10.3,401.3,15.7,426.4,32.2,440.3z"/>
		</g>
		<g>
			<path d="M653.9,449.2c-0.5,0-1.1-0.2-1.4-0.6c-0.8-0.8-0.7-2.1,0.1-2.8c11.7-11.2,19.3-25.1,23.1-42.4c1.7-9.7,3.2-22.7,0-37.2
				c-0.6-0.6-0.8-1.6-0.4-2.4c0-0.1,0.1-0.2,0.1-0.3c0.3-0.8,1.1-1.3,2-1.3c0.9,0.1,1.6,0.7,1.8,1.5c3.8,15.8,2.2,29.9,0.4,40.4
				c-4,18.2-12,32.7-24.3,44.6C654.9,449.1,654.4,449.2,653.9,449.2z"/>
		</g>
		<g>
			<path d="M607.9,415.9c-0.7,0-1.5-0.4-1.8-1.1c-0.5-1,0-2.2,0.9-2.7c10.6-5.1,17.1-28.4,19.2-41.4c0.2-1,1.1-1.9,2.2-1.8
				c1,0.1,1.8,1,1.8,2v0.3c0,0.3,0,0.5-0.1,0.7c-1.3,7.5-7.1,37.1-21.3,43.8C608.5,415.8,608.2,415.9,607.9,415.9z"/>
		</g>
		<g>
			<path d="M633.7,450.6c-13.4,0-29.3-2-34.6-10.9c-4-6.6-1.5-15.7,7.2-27c0.7-0.9,1.9-1,2.8-0.4c0.9,0.7,1,1.9,0.4,2.8
				c-7.6,9.8-10,17.4-7,22.4c6.7,11.4,39.2,9.4,51.1,7.7c1.1-0.2,2.1,0.6,2.3,1.7c0.2,1.1-0.6,2.1-1.6,2.3
				C654,449.2,644.7,450.6,633.7,450.6z"/>
		</g>
		<g>
			<path d="M634,446.1c-4,0-8.3-0.4-12.6-1.4c-0.8-0.2-1.4-0.8-1.5-1.6s0.2-1.6,0.9-2c5.3-3.5,31.9-21.9,33.3-41.1
				c0.1-0.7,0.5-1.3,1.1-1.6c8.1-4.2,14.7-10.7,18.9-18.7c0.4-0.8,1.4-1.2,2.3-1c0.9,0.2,1.5,1.1,1.5,2c0,0.4-0.4,10.8-3.8,23.8
				c-3.1,12.1-9.6,28.7-22.5,39.3c-0.2,0.2-0.5,0.3-0.8,0.4C650.3,444.2,643.1,446.1,634,446.1z M650.3,442.2L650.3,442.2
				L650.3,442.2z M626.9,441.7c10.3,1.3,20.3-0.8,22.4-1.3c16.5-13.9,21.9-39,23.7-51.8c-4.1,5.3-9.2,9.6-15.1,12.8
				C655.9,418.8,636.3,434.9,626.9,441.7z"/>
		</g>
		<g>
			<path d="M641,400.7c-1.1,0-2.1-0.1-3-0.4c-3.9-1.2-6.9-4.7-8.9-10.4c-0.4-1,0.2-2.2,1.2-2.5c1-0.4,2.2,0.2,2.5,1.2
				c1.5,4.4,3.6,7,6.2,7.8c3.1,0.9,7.4-0.6,12.5-4.5c0.9-0.7,2.1-0.5,2.8,0.4c0.7,0.9,0.5,2.1-0.4,2.8
				C649.2,398.8,644.8,400.7,641,400.7z"/>
		</g>
		<g>
			<path d="M631,391.3c-0.8,0-1.6-0.5-1.9-1.3c-1.6-4.6-2.6-10.9-2.9-18.6c0-1.1,0.8-2,1.9-2.1c1.1-0.1,2,0.8,2.1,1.9
				c0.3,7.4,1.2,13.2,2.7,17.5c0.4,1-0.2,2.2-1.2,2.5C631.4,391.2,631.2,391.3,631,391.3z"/>
		</g>
		<g>
			<path d="M652.9,395.5c-0.6,0-1.2-0.3-1.6-0.8c-0.7-0.9-0.5-2.1,0.4-2.8c10.5-8.1,21.7-24.3,23.6-28.1c0.5-1,1.7-1.4,2.7-0.9
				c1,0.5,1.4,1.7,0.9,2.7c-2.1,4.1-13.5,20.8-24.7,29.4C653.7,395.3,653.3,395.5,652.9,395.5z"/>
		</g>
		<g>
			<path d="M53.4,373.1c-1,0-1.9-0.8-2-1.9c-0.6-9.5-0.8-21.1,2.1-40.5c3.1-15.9,10.5-46.3,25.6-73.1c6.1-14.1,6-18,5.8-18.9
				c-1,0.2-4,1.7-12.7,10.3c-0.5,0.5-0.9,0.9-1.3,1.2c-2.2,2.2-54.6,53.5-64.5,114.8c-0.2,1.1-1.2,1.8-2.3,1.7
				c-1.1-0.2-1.8-1.2-1.7-2.3c10-61.5,60-111.5,65.7-117c0.3-0.3,0.7-0.7,1.2-1.2c8.7-8.6,14.3-13.2,17.8-10.9c2.7,1.8,3,6.6-4.5,24
				c0,0.1-0.1,0.1-0.1,0.2c-14.8,26.4-22.1,56.4-25.2,71.9c-2.8,19-2.7,30.2-2.1,39.6c0.1,1.1-0.8,2.1-1.9,2.1
				C53.4,373.1,53.4,373.1,53.4,373.1z"/>
		</g>
		<g>
			<path d="M628.2,373.2c0,0-0.1,0-0.1,0c-1.1-0.1-1.9-1-1.9-2.1c0.6-9.3,0.7-20.6-2.1-39.6c-3-15.5-10.4-45.5-25.2-71.9
				c0-0.1-0.1-0.1-0.1-0.2c-7.5-17.4-7.2-22.1-4.5-24c3.4-2.3,9.1,2.2,17.8,10.9c0.5,0.5,0.9,0.9,1.2,1.2
				c5.7,5.5,55.7,55.5,65.7,117c0.2,1.1-0.6,2.1-1.7,2.3c-1.1,0.2-2.1-0.6-2.3-1.7c-9.9-61.2-62.3-112.6-64.5-114.8
				c-0.3-0.3-0.8-0.7-1.3-1.2c-8.6-8.6-11.6-10.1-12.7-10.3c-0.2,0.9-0.3,4.8,5.8,18.9c15,26.8,22.5,57.3,25.6,73
				c2.9,19.5,2.8,31,2.2,40.6C630.1,372.4,629.2,373.2,628.2,373.2z"/>
		</g>
		<g>
			<path d="M652.9,395.5c-1,0-1.9-0.8-2-1.8c-1.1-9.5-6.2-9.9-7.8-10c-3-0.2-7.1,2.4-10.5,6.7c-0.7,0.9-1.9,1-2.8,0.3
				c-0.9-0.7-1-1.9-0.3-2.8c4.3-5.5,9.5-8.6,13.9-8.3c4.6,0.3,10.3,2.9,11.5,13.5c0.1,1.1-0.7,2.1-1.8,2.2
				C653,395.5,653,395.5,652.9,395.5z"/>
		</g>
		<g>
			<path d="M28.7,395.4c-0.1,0-0.2,0-0.2,0c-1.1-0.1-1.9-1.1-1.8-2.2c1.2-10.6,6.9-13.2,11.5-13.5c4.4-0.3,9.6,2.8,13.9,8.3
				c0.7,0.9,0.5,2.1-0.3,2.8c-0.9,0.7-2.1,0.5-2.8-0.3c-3.4-4.3-7.5-7-10.5-6.7c-1.7,0.1-6.7,0.4-7.8,10
				C30.5,394.7,29.7,395.4,28.7,395.4z"/>
		</g>
		<g>
			<path d="M28.7,395.4c-0.4,0-0.9-0.1-1.2-0.4c-11.2-8.6-22.6-25.3-24.7-29.4c-0.5-1-0.1-2.2,0.9-2.7c1-0.5,2.2-0.1,2.7,0.9
				c1.9,3.8,13.1,20,23.6,28.1c0.9,0.7,1,1.9,0.4,2.8C29.9,395.2,29.3,395.4,28.7,395.4z"/>
		</g>
		<g>
			<path d="M50.5,391.2c-0.2,0-0.4,0-0.6-0.1c-1-0.4-1.6-1.5-1.3-2.5c1.5-4.3,2.4-10.2,2.7-17.5c0.1-1.1,1-2,2.1-1.9
				c1.1,0.1,2,1,1.9,2.1c-0.4,7.7-1.3,14-2.9,18.6C52.2,390.7,51.4,391.2,50.5,391.2z"/>
		</g>
	</g>
</g>
</svg>
