<svg xmlns="http://www.w3.org/2000/svg" viewBox="0 0 100 100"><defs><style>.cls-1{fill:#a5e60a;}.cls-2{fill:#66c800;}.cls-3{fill:#38c3d2;}.cls-4{fill:#0095c8;}.cls-5{fill:#f63;}.cls-6{fill:#f30;}.cls-7{fill:#ff0;}.cls-8{fill:#ffd800;}</style></defs><g id="Ebene_2" data-name="Ebene 2"><g id="Ebene_12" data-name="Ebene 12"><rect class="cls-1" y="60" width="60" height="40" transform="translate(60 160) rotate(180)"/><polygon class="cls-2" points="59.22 85.19 54.03 85.19 54.03 74.81 59.22 74.81 59.22 75.19 54.42 75.19 54.42 84.81 59.22 84.81 59.22 85.19"/><polygon class="cls-2" points="59.25 88.19 50.06 88.19 50.06 71.81 59.25 71.81 59.25 72.19 50.45 72.19 50.45 87.81 59.25 87.81 59.25 88.19"/><polygon class="cls-2" points="6 85.19 0.8 85.19 0.8 84.81 5.61 84.81 5.61 75.19 0.8 75.19 0.8 74.81 6 74.81 6 85.19"/><polygon class="cls-2" points="9.97 88.19 0.78 88.19 0.78 87.81 9.58 87.81 9.58 72.19 0.78 72.19 0.78 71.81 9.97 71.81 9.97 88.19"/><path class="cls-2" d="M30,86.84A6.84,6.84,0,1,1,36.87,80,6.85,6.85,0,0,1,30,86.84Zm0-13.29A6.45,6.45,0,1,0,36.48,80,6.45,6.45,0,0,0,30,73.55Z"/><rect class="cls-2" x="29.84" y="60" width="0.39" height="40"/><circle class="cls-2" cx="30.03" cy="80" r="0.5"/><path class="cls-2" d="M59.45,99.44H.55V60.56h58.9ZM.93,99.06H59.07V60.94H.93Z"/><rect class="cls-3" x="60" y="40" width="40" height="60"/><path class="cls-4" d="M98.69,98.69H61.31V41.31H98.69Zm-37-.38H98.31V41.69H61.69Z"/><rect class="cls-4" x="60" y="69.81" width="40" height="0.39"/><rect class="cls-4" x="61.5" y="57.81" width="37" height="0.39"/><rect class="cls-4" x="61.5" y="81.81" width="37" height="0.39"/><rect class="cls-5" width="40" height="60"/><rect class="cls-6" y="29.81" width="40" height="0.39"/><rect class="cls-6" x="5.5" y="43.81" width="29" height="0.39"/><rect class="cls-6" x="5.5" y="15.81" width="29" height="0.39"/><rect class="cls-6" x="19.81" y="16" width="0.39" height="28"/><rect class="cls-6" x="5.31" y="1.5" width="0.39" height="57"/><rect class="cls-6" x="34.31" y="1.5" width="0.39" height="57"/><rect class="cls-6" x="19.81" y="1.5" width="0.39" height="1"/><path class="cls-6" d="M38.69,58.69H1.31V1.31H38.69Zm-37-.38H38.31V1.69H1.69Z"/><rect class="cls-6" x="19.81" y="57.5" width="0.39" height="1"/><rect class="cls-7" x="40" width="60" height="40"/><path class="cls-8" d="M70,24.78a4.69,4.69,0,1,1,4.69-4.69A4.69,4.69,0,0,1,70,24.78Zm0-9a4.31,4.31,0,1,0,4.31,4.31A4.32,4.32,0,0,0,70,15.78Z"/><rect class="cls-8" x="69.81" y="0.09" width="0.39" height="40"/><rect class="cls-8" x="97.53" y="17" width="0.39" height="6"/><path class="cls-8" d="M96.71,20.82a.82.82,0,1,1,.82-.82A.82.82,0,0,1,96.71,20.82Zm0-1.25a.43.43,0,1,0,.43.43A.43.43,0,0,0,96.71,19.57Z"/><polygon class="cls-8" points="100 24.79 84.81 24.79 84.81 15.4 100 15.4 100 15.79 85.19 15.79 85.19 24.4 100 24.4 100 24.79"/><path class="cls-8" d="M84.94,24.78a4.69,4.69,0,1,1,0-9.38v.38a4.31,4.31,0,0,0,0,8.62Z"/><rect class="cls-8" x="96.47" y="37.9" width="3.53" height="0.39"/><rect class="cls-8" x="96.47" y="1.9" width="3.53" height="0.39"/><path class="cls-8" d="M96.6,38.28a18.19,18.19,0,1,1,0-36.38v.38a17.81,17.81,0,0,0,0,35.62Z"/><path class="cls-8" d="M85.5,15.82a5.46,5.46,0,0,0-.56,0V15.4a4.17,4.17,0,0,1,.61,0Z"/><path class="cls-8" d="M87.55,16.67a3.89,3.89,0,0,0-1-.56l.15-.36a4.64,4.64,0,0,1,1.06.61Z"/><path class="cls-8" d="M88.92,18.45a4.56,4.56,0,0,0-.57-1l.31-.24a5,5,0,0,1,.62,1.07Z"/><path class="cls-8" d="M89.59,20.7l-.38-.05a5.12,5.12,0,0,0,0-.56,3.77,3.77,0,0,0,0-.58l.39-.05a4.35,4.35,0,0,1,0,.63A4.08,4.08,0,0,1,89.59,20.7Z"/><path class="cls-8" d="M88.66,23l-.31-.23a4.45,4.45,0,0,0,.55-.94l.35.15A4.31,4.31,0,0,1,88.66,23Z"/><path class="cls-8" d="M86.72,24.43l-.14-.36a3.86,3.86,0,0,0,1-.57l.24.31A4.81,4.81,0,0,1,86.72,24.43Z"/><path class="cls-8" d="M84.94,24.78V24.4a5.27,5.27,0,0,0,.56,0l0,.38A4.17,4.17,0,0,1,84.94,24.78Z"/><rect class="cls-8" x="42.08" y="17.18" width="0.39" height="6"/><path class="cls-8" d="M43.29,21a.82.82,0,1,1,.82-.82A.82.82,0,0,1,43.29,21Zm0-1.25a.43.43,0,0,0-.43.43.43.43,0,1,0,.86,0A.43.43,0,0,0,43.29,19.75Z"/><polygon class="cls-8" points="55.19 24.79 40 24.79 40 24.4 54.81 24.4 54.81 15.79 40 15.79 40 15.4 55.19 15.4 55.19 24.79"/><path class="cls-8" d="M55.06,24.78a4.17,4.17,0,0,1-.61,0l0-.38a5.46,5.46,0,0,0,.56,0Z"/><path class="cls-8" d="M53.27,24.43a4.86,4.86,0,0,1-1.06-.61l.24-.31a3.89,3.89,0,0,0,1,.56Z"/><path class="cls-8" d="M51.34,23a5,5,0,0,1-.62-1.07l.36-.15a4.56,4.56,0,0,0,.57,1Z"/><path class="cls-8" d="M50.41,20.72a4.35,4.35,0,0,1,0-.63,4.08,4.08,0,0,1,0-.61l.38.05a5.12,5.12,0,0,0,0,.56,3.69,3.69,0,0,0,0,.58Z"/><path class="cls-8" d="M51.1,18.4l-.36-.15a4.72,4.72,0,0,1,.6-1l.31.24A4.14,4.14,0,0,0,51.1,18.4Z"/><path class="cls-8" d="M52.44,16.68l-.24-.31a4.81,4.81,0,0,1,1.08-.62l.14.36A4.18,4.18,0,0,0,52.44,16.68Z"/><path class="cls-8" d="M54.5,15.82l0-.38a4.17,4.17,0,0,1,.61,0v.38A5.09,5.09,0,0,0,54.5,15.82Z"/><path class="cls-8" d="M55.06,24.78V24.4a4.31,4.31,0,0,0,0-8.62V15.4a4.69,4.69,0,1,1,0,9.38Z"/><rect class="cls-8" x="40" y="1.9" width="3.53" height="0.39"/><rect class="cls-8" x="40" y="37.9" width="3.53" height="0.39"/><path class="cls-8" d="M43.4,38.28V37.9a17.81,17.81,0,0,0,0-35.62V1.9a18.19,18.19,0,1,1,0,36.38Z"/><path class="cls-8" d="M99.46,39.55H40.54V.45H99.46Zm-58.53-.38H99.07V.83H40.93Z"/></g></g></svg>