<svg xmlns="http://www.w3.org/2000/svg" viewBox="0 0 50 12.28"><defs><style>.cls-1{isolation:isolate;}.cls-2{opacity:0.1;mix-blend-mode:multiply;}.cls-3{fill:#cecdcd;}.cls-4{fill:#0095c8;}.cls-5{fill:#fff;}.cls-6{opacity:0.2;mix-blend-mode:overlay;}.cls-7{fill:gray;}.cls-8{fill:#b3b3b2;}.cls-9{fill:#5e5f5f;}.cls-10{fill:#4f4f4f;}.cls-11{fill:#4e4d4d;}.cls-12{fill:#989898;}</style></defs><g class="cls-1"><g id="Ebene_2" data-name="Ebene 2"><g id="Ebene_23" data-name="Ebene 23"><g class="cls-2"><polygon points="50 9.35 14.35 11.47 0.51 4.75 36.16 2.63 50 9.35"/><polygon points="46.71 8.93 16.7 10.71 5.05 5.06 35.06 3.28 46.71 8.93"/><polygon points="33.37 4.05 7.9 5.57 7.79 5.51 33.26 4 33.37 4.05"/><polygon points="42.83 8.65 17.36 10.16 17.25 10.11 42.72 8.59 42.83 8.65"/><polygon points="17.35 10.16 17.21 10.17 7.62 5.52 7.78 5.51 17.35 10.16"/><polygon points="43 8.64 42.85 8.65 33.27 4 33.42 3.99 43 8.64"/><polygon points="35.47 9.06 35.35 9.08 25.83 4.46 25.98 4.46 35.47 9.06"/><polygon points="26.71 9.59 26.57 9.6 17.04 4.98 17.18 4.97 26.71 9.59"/><polygon points="32.92 9.78 32.77 9.78 21.09 4.12 21.24 4.11 32.92 9.78"/><polygon points="11.87 10.27 11.9 10.28 24.72 3.31 24.65 3.32 11.87 10.27"/><polygon points="11.52 10.1 11.55 10.11 23.97 3.36 23.9 3.36 11.52 10.1"/><polygon points="25.4 3.27 12.22 10.44 12.25 10.45 25.47 3.27 25.4 3.27"/><polygon points="11.16 9.93 11.2 9.94 23.21 3.4 23.15 3.41 11.16 9.93"/><polygon points="10.81 9.75 10.84 9.77 22.46 3.45 22.4 3.45 10.81 9.75"/><polygon points="16.47 3.81 16.41 3.81 7.99 8.38 8.02 8.4 16.47 3.81"/><polygon points="17.22 3.76 17.16 3.76 8.34 8.55 8.37 8.57 17.22 3.76"/><polygon points="18.72 3.67 18.66 3.67 9.05 8.9 9.08 8.91 18.72 3.67"/><polygon points="10.46 9.58 10.49 9.6 21.71 3.49 21.65 3.5 10.46 9.58"/><polygon points="17.97 3.72 17.91 3.72 8.7 8.73 8.73 8.74 17.97 3.72"/><polygon points="10.11 9.41 10.13 9.43 20.96 3.54 20.9 3.54 10.11 9.41"/><polygon points="29.22 3.05 29.15 3.05 13.99 11.3 14.02 11.31 29.22 3.05"/><polygon points="28.47 3.09 28.4 3.1 13.64 11.12 13.67 11.14 28.47 3.09"/><polygon points="15.72 3.85 15.65 3.85 7.64 8.21 7.67 8.23 15.72 3.85"/><polygon points="30.72 2.96 30.66 2.96 15.09 11.43 15.15 11.42 30.72 2.96"/><polygon points="27.72 3.14 27.65 3.14 13.28 10.95 13.31 10.97 27.72 3.14"/><polygon points="32.22 2.87 32.16 2.87 16.59 11.34 16.65 11.33 32.22 2.87"/><polygon points="26.97 3.18 26.9 3.19 12.93 10.78 12.96 10.8 26.97 3.18"/><polygon points="9.4 9.07 9.43 9.08 19.46 3.63 19.4 3.63 9.4 9.07"/><polygon points="9.75 9.24 9.78 9.25 20.21 3.58 20.15 3.59 9.75 9.24"/><polygon points="26.22 3.23 26.15 3.23 12.58 10.61 12.61 10.63 26.22 3.23"/><polygon points="11.22 4.12 11.15 4.12 5.52 7.18 5.55 7.2 11.22 4.12"/><polygon points="4.46 4.52 4.4 4.52 2.34 5.64 2.37 5.66 4.46 4.52"/><polygon points="2.96 4.61 2.9 4.61 1.63 5.3 1.66 5.31 2.96 4.61"/><polygon points="3.71 4.56 3.65 4.57 1.99 5.47 2.02 5.49 3.71 4.56"/><polygon points="5.21 4.47 5.15 4.48 2.69 5.81 2.72 5.83 5.21 4.47"/><polygon points="5.96 4.43 5.9 4.43 3.05 5.98 3.08 6 5.96 4.43"/><polygon points="0.71 4.74 0.65 4.74 0.57 4.79 0.6 4.8 0.71 4.74"/><polygon points="29.91 3.01 14.34 11.47 14.35 11.47 14.4 11.47 29.97 3 29.91 3.01"/><polygon points="6.71 4.38 6.65 4.39 3.4 6.16 3.43 6.17 6.71 4.38"/><polygon points="2.21 4.65 2.15 4.66 1.28 5.13 1.31 5.14 2.21 4.65"/><polygon points="1.46 4.7 1.4 4.7 0.93 4.96 0.96 4.97 1.46 4.7"/><polygon points="10.47 4.16 10.4 4.17 5.17 7.01 5.2 7.03 10.47 4.16"/><polygon points="12.72 4.03 12.65 4.03 6.22 7.53 6.25 7.54 12.72 4.03"/><polygon points="11.97 4.07 11.9 4.08 5.87 7.36 5.9 7.37 11.97 4.07"/><polygon points="14.22 3.94 14.15 3.94 6.93 7.87 6.96 7.88 14.22 3.94"/><polygon points="13.47 3.98 13.4 3.99 6.58 7.7 6.61 7.71 13.47 3.98"/><polygon points="7.46 4.34 7.4 4.34 3.75 6.33 3.78 6.34 7.46 4.34"/><polygon points="32.97 2.83 32.91 2.83 17.34 11.29 17.4 11.29 32.97 2.83"/><polygon points="8.97 4.25 8.9 4.25 4.46 6.67 4.49 6.68 8.97 4.25"/><polygon points="8.21 4.29 8.15 4.3 4.11 6.5 4.13 6.51 8.21 4.29"/><polygon points="14.97 3.89 14.9 3.9 7.28 8.04 7.31 8.06 14.97 3.89"/><polygon points="9.72 4.21 9.65 4.21 4.81 6.84 4.84 6.86 9.72 4.21"/><polygon points="31.47 2.91 31.41 2.92 15.84 11.38 15.9 11.38 31.47 2.91"/><polygon points="44.55 6.71 44.52 6.69 38.35 10.04 38.41 10.04 44.55 6.71"/><polygon points="44.9 6.88 44.87 6.86 39.1 10 39.16 9.99 44.9 6.88"/><polygon points="45.25 7.05 45.22 7.03 39.85 9.95 39.91 9.95 45.25 7.05"/><polygon points="45.61 7.22 45.58 7.2 40.6 9.91 40.66 9.91 45.61 7.22"/><polygon points="45.96 7.39 45.93 7.38 41.35 9.87 41.41 9.86 45.96 7.39"/><polygon points="43.13 6.02 43.1 6 35.35 10.22 35.41 10.22 43.13 6.02"/><polygon points="43.49 6.19 43.46 6.18 36.1 10.18 36.16 10.17 43.49 6.19"/><polygon points="44.19 6.53 44.16 6.52 37.6 10.09 37.66 10.08 44.19 6.53"/><polygon points="46.31 7.56 46.28 7.55 42.1 9.82 42.16 9.82 46.31 7.56"/><polygon points="42.78 5.85 42.75 5.83 34.6 10.27 34.66 10.26 42.78 5.85"/><polygon points="43.84 6.36 43.81 6.35 36.85 10.13 36.91 10.13 43.84 6.36"/><polygon points="48.78 8.76 48.75 8.75 47.35 9.51 47.42 9.51 48.78 8.76"/><polygon points="46.67 7.73 46.64 7.72 42.85 9.78 42.91 9.77 46.67 7.73"/><polygon points="49.49 9.1 49.46 9.09 48.85 9.42 48.92 9.42 49.49 9.1"/><polygon points="49.84 9.28 49.81 9.26 49.6 9.38 49.67 9.37 49.84 9.28"/><polygon points="33.72 2.78 33.66 2.78 18.09 11.25 18.15 11.24 33.72 2.78"/><polygon points="49.14 8.93 49.11 8.92 48.1 9.46 48.17 9.46 49.14 8.93"/><polygon points="47.02 7.9 46.99 7.89 43.6 9.73 43.66 9.73 47.02 7.9"/><polygon points="47.37 8.08 47.34 8.06 44.35 9.69 44.41 9.68 47.37 8.08"/><polygon points="47.73 8.25 47.7 8.23 45.1 9.64 45.17 9.64 47.73 8.25"/><polygon points="48.08 8.42 48.05 8.4 45.85 9.6 45.92 9.59 48.08 8.42"/><polygon points="48.43 8.59 48.4 8.57 46.6 9.55 46.67 9.55 48.43 8.59"/><polygon points="37.13 3.11 37.1 3.09 22.59 10.98 22.66 10.97 37.13 3.11"/><polygon points="37.48 3.28 37.45 3.26 23.34 10.94 23.41 10.93 37.48 3.28"/><polygon points="37.84 3.45 37.81 3.43 24.09 10.89 24.16 10.89 37.84 3.45"/><polygon points="38.19 3.62 38.16 3.6 24.84 10.85 24.91 10.84 38.19 3.62"/><polygon points="36.78 2.93 36.75 2.92 21.84 11.02 21.91 11.02 36.78 2.93"/><polygon points="38.54 3.79 38.51 3.78 25.59 10.8 25.66 10.8 38.54 3.79"/><polygon points="36.42 2.76 36.4 2.75 21.09 11.07 21.16 11.06 36.42 2.76"/><polygon points="34.47 2.74 34.41 2.74 18.84 11.2 18.9 11.2 34.47 2.74"/><polygon points="35.22 2.69 35.16 2.69 19.59 11.16 19.66 11.15 35.22 2.69"/><polygon points="35.97 2.65 35.91 2.65 20.34 11.11 20.41 11.11 35.97 2.65"/><polygon points="41.72 5.33 41.69 5.32 32.35 10.4 32.41 10.4 41.72 5.33"/><polygon points="40.66 4.82 40.63 4.8 30.1 10.53 30.16 10.53 40.66 4.82"/><polygon points="41.02 4.99 40.99 4.98 30.85 10.49 30.91 10.48 41.02 4.99"/><polygon points="41.37 5.16 41.34 5.15 31.6 10.44 31.66 10.44 41.37 5.16"/><polygon points="42.08 5.5 42.05 5.49 33.1 10.36 33.16 10.35 42.08 5.5"/><polygon points="42.43 5.68 42.4 5.66 33.85 10.31 33.91 10.31 42.43 5.68"/><polygon points="39.25 4.13 39.22 4.12 27.09 10.71 27.16 10.71 39.25 4.13"/><polygon points="39.6 4.3 39.57 4.29 27.84 10.67 27.91 10.66 39.6 4.3"/><polygon points="38.9 3.96 38.87 3.95 26.34 10.76 26.41 10.75 38.9 3.96"/><polygon points="39.96 4.48 39.93 4.46 28.59 10.62 28.66 10.62 39.96 4.48"/><polygon points="40.31 4.65 40.28 4.63 29.34 10.58 29.41 10.57 40.31 4.65"/><polygon points="0.51 4.75 0.51 5.6 14.22 12.28 50 10.16 50 9.35 14.35 11.47 0.51 4.75"/><rect x="21.67" y="2.67" width="0.02" height="1.24" transform="translate(17.03 24.72) rotate(-86.38)"/><polygon points="22.27 2.3 21.06 1.24 21.07 1.23 22.29 2.28 22.27 2.3"/><rect x="32.04" y="7.73" width="0.02" height="1.72" transform="translate(6.71 30.01) rotate(-55.21)"/><polygon points="32.59 6.96 31.21 6.85 31.21 6.83 32.59 6.95 32.59 6.96"/><rect x="26.75" y="-0.3" width="0.02" height="10.14" transform="translate(10.36 26.45) rotate(-62.99)"/><rect x="26.76" y="-0.16" width="0.02" height="10.14" transform="translate(10.23 26.53) rotate(-62.99)"/><rect x="26.76" y="-0.01" width="0.02" height="10.14" transform="translate(10.1 26.61) rotate(-62.99)"/><rect x="26.76" y="0.14" width="0.02" height="10.14" transform="translate(9.97 26.7) rotate(-62.99)"/><rect x="26.77" y="0.28" width="0.02" height="10.14" transform="translate(9.84 26.78) rotate(-62.99)"/><rect x="26.77" y="0.43" width="0.02" height="10.14" transform="translate(9.71 26.86) rotate(-62.99)"/><polygon points="31.12 7.97 31.09 6.77 31.11 6.77 31.14 7.97 31.12 7.97"/><polygon points="30.91 7.86 30.88 6.66 30.9 6.65 30.93 7.86 30.91 7.86"/><polygon points="30.7 7.75 30.67 6.54 30.69 6.54 30.72 7.75 30.7 7.75"/><polygon points="30.49 7.64 30.46 6.43 30.48 6.43 30.51 7.64 30.49 7.64"/><polygon points="30.28 7.52 30.25 6.32 30.27 6.32 30.3 7.52 30.28 7.52"/><polygon points="30.07 7.41 30.04 6.2 30.06 6.2 30.09 7.41 30.07 7.41"/><polygon points="29.86 7.3 29.83 6.09 29.85 6.09 29.88 7.3 29.86 7.3"/><polygon points="29.65 7.18 29.62 5.98 29.64 5.98 29.66 7.18 29.65 7.18"/><polygon points="29.43 7.07 29.41 5.87 29.43 5.87 29.45 7.07 29.43 7.07"/><polygon points="29.23 6.96 29.2 5.8 29.22 5.8 29.24 6.96 29.23 6.96"/><polygon points="29.01 6.85 28.99 5.7 29.01 5.7 29.03 6.85 29.01 6.85"/><polygon points="28.8 6.73 28.78 5.59 28.8 5.59 28.82 6.73 28.8 6.73"/><polygon points="28.59 6.62 28.57 5.49 28.59 5.49 28.61 6.62 28.59 6.62"/><polygon points="28.38 6.51 28.36 5.36 28.38 5.36 28.4 6.51 28.38 6.51"/><polygon points="28.17 6.4 28.15 5.25 28.17 5.25 28.19 6.39 28.17 6.4"/><polygon points="27.96 6.28 27.94 5.17 27.96 5.17 27.98 6.28 27.96 6.28"/><polygon points="27.75 6.17 27.73 5.04 27.75 5.04 27.77 6.17 27.75 6.17"/><polygon points="27.54 6.06 27.52 4.94 27.54 4.94 27.56 6.06 27.54 6.06"/><polygon points="27.33 5.94 27.3 4.82 27.32 4.82 27.35 5.94 27.33 5.94"/><polygon points="27.12 5.83 27.09 4.73 27.11 4.73 27.14 5.83 27.12 5.83"/><polygon points="26.91 5.72 26.89 4.63 26.91 4.63 26.93 5.72 26.91 5.72"/><polygon points="26.7 5.65 26.67 4.52 26.69 4.51 26.72 5.65 26.7 5.65"/><polygon points="26.49 5.55 26.46 4.42 26.48 4.42 26.51 5.55 26.49 5.55"/><polygon points="26.28 5.43 26.25 4.31 26.27 4.31 26.3 5.42 26.28 5.43"/><polygon points="26.07 5.31 26.04 4.19 26.06 4.19 26.09 5.31 26.07 5.31"/><polygon points="25.86 5.16 25.83 4.1 25.85 4.1 25.88 5.15 25.86 5.16"/><polygon points="25.64 5.04 25.62 3.98 25.64 3.98 25.66 5.04 25.64 5.04"/><polygon points="25.43 4.93 25.41 3.87 25.43 3.87 25.45 4.93 25.43 4.93"/><polygon points="25.23 4.86 25.2 3.76 25.22 3.76 25.25 4.86 25.23 4.86"/><polygon points="25.02 4.76 24.99 3.67 25.01 3.67 25.04 4.76 25.02 4.76"/><polygon points="24.8 4.65 24.78 3.56 24.8 3.56 24.82 4.65 24.8 4.65"/><polygon points="24.59 4.54 24.57 3.44 24.59 3.44 24.61 4.54 24.59 4.54"/><polygon points="24.38 4.43 24.36 3.35 24.38 3.35 24.4 4.43 24.38 4.43"/><polygon points="24.17 4.32 24.15 3.25 24.17 3.24 24.19 4.32 24.17 4.32"/><polygon points="23.96 4.21 23.94 3.14 23.96 3.14 23.98 4.21 23.96 4.21"/><polygon points="23.75 4.09 23.73 3.03 23.75 3.03 23.77 4.09 23.75 4.09"/><polygon points="23.54 4 23.52 2.92 23.54 2.92 23.56 4 23.54 4"/><polygon points="23.33 3.87 23.31 2.82 23.33 2.82 23.35 3.87 23.33 3.87"/><polygon points="23.12 3.76 23.1 2.71 23.12 2.71 23.14 3.76 23.12 3.76"/><polygon points="22.91 3.65 22.89 2.6 22.91 2.6 22.93 3.65 22.91 3.65"/><polygon points="22.7 3.54 22.68 2.48 22.7 2.48 22.72 3.54 22.7 3.54"/><polygon points="22.49 3.44 22.47 2.39 22.49 2.39 22.51 3.44 22.49 3.44"/><path d="M31.34,8.1h0l-9-4.77h0l0-1h0l9,4.59h0l0,1.22h0Zm-9-4.78,9,4.75,0-1.19-9-4.57Z"/><rect x="32.7" y="6.91" width="0.04" height="2.89"/><rect x="21.04" y="1.23" width="0.04" height="2.89"/><circle cx="32.72" cy="6.84" r="0.16" transform="translate(4.74 25.12) rotate(-44.97)"/><circle cx="21.06" cy="1.18" r="0.16" transform="translate(5.33 15.23) rotate(-44.97)"/></g><polygon class="cls-3" points="49.49 8.34 13.84 10.45 0 3.74 35.65 1.62 49.49 8.34"/><polygon class="cls-4" points="46.2 7.91 16.19 9.7 4.54 4.04 34.55 2.26 46.2 7.91"/><polygon class="cls-5" points="32.86 3.04 7.39 4.55 7.28 4.5 32.75 2.98 32.86 3.04"/><polygon class="cls-5" points="42.32 7.63 16.86 9.14 16.75 9.09 42.21 7.58 42.32 7.63"/><polygon class="cls-5" points="16.84 9.15 16.7 9.15 7.11 4.5 7.27 4.5 16.84 9.15"/><polygon class="cls-5" points="42.49 7.63 42.35 7.63 32.76 2.98 32.91 2.98 42.49 7.63"/><polygon class="cls-5" points="34.96 8.04 34.84 8.06 25.32 3.45 25.48 3.44 34.96 8.04"/><polygon class="cls-5" points="26.2 8.57 26.06 8.58 16.53 3.96 16.68 3.95 26.2 8.57"/><polygon class="cls-5" points="32.41 8.76 32.26 8.77 20.58 3.1 20.74 3.1 32.41 8.76"/><g class="cls-6"><polygon points="11.36 9.25 11.39 9.27 24.21 2.3 24.14 2.3 11.36 9.25"/><polygon points="11.01 9.08 11.04 9.09 23.46 2.34 23.39 2.35 11.01 9.08"/><polygon points="24.89 2.26 11.72 9.42 11.75 9.44 24.96 2.25 24.89 2.26"/><polygon points="10.66 8.91 10.69 8.92 22.71 2.39 22.64 2.39 10.66 8.91"/><polygon points="10.3 8.74 10.33 8.75 21.96 2.43 21.89 2.44 10.3 8.74"/><polygon points="15.96 2.79 15.9 2.79 7.48 7.37 7.51 7.38 15.96 2.79"/><polygon points="16.71 2.74 16.65 2.75 7.83 7.54 7.87 7.55 16.71 2.74"/><polygon points="18.21 2.65 18.15 2.66 8.54 7.88 8.57 7.9 18.21 2.65"/><polygon points="9.95 8.57 9.98 8.58 21.21 2.48 21.14 2.48 9.95 8.57"/><polygon points="17.46 2.7 17.4 2.7 8.19 7.71 8.22 7.72 17.46 2.7"/><polygon points="9.6 8.39 9.63 8.41 20.46 2.52 20.39 2.52 9.6 8.39"/><polygon points="28.71 2.03 28.65 2.04 13.48 10.28 13.51 10.29 28.71 2.03"/><polygon points="27.96 2.08 27.9 2.08 13.13 10.11 13.16 10.12 27.96 2.08"/><polygon points="15.21 2.83 15.15 2.84 7.13 7.2 7.16 7.21 15.21 2.83"/><polygon points="30.21 1.94 30.15 1.95 14.58 10.41 14.64 10.4 30.21 1.94"/><polygon points="27.21 2.12 27.15 2.12 12.78 9.94 12.8 9.95 27.21 2.12"/><polygon points="31.71 1.85 31.65 1.86 16.08 10.32 16.14 10.32 31.71 1.85"/><polygon points="26.46 2.17 26.39 2.17 12.42 9.77 12.45 9.78 26.46 2.17"/><polygon points="8.89 8.05 8.92 8.07 18.96 2.61 18.89 2.61 8.89 8.05"/><polygon points="9.24 8.22 9.27 8.24 19.71 2.57 19.64 2.57 9.24 8.22"/><polygon points="25.71 2.21 25.64 2.21 12.07 9.59 12.1 9.61 25.71 2.21"/><polygon points="10.71 3.1 10.64 3.1 5.01 6.17 5.04 6.18 10.71 3.1"/><polygon points="3.96 3.5 3.89 3.5 1.83 4.63 1.86 4.64 3.96 3.5"/><polygon points="2.46 3.59 2.39 3.59 1.13 4.28 1.16 4.3 2.46 3.59"/><polygon points="3.21 3.55 3.14 3.55 1.48 4.45 1.51 4.47 3.21 3.55"/><polygon points="4.71 3.46 4.64 3.46 2.19 4.8 2.21 4.81 4.71 3.46"/><polygon points="5.46 3.41 5.39 3.42 2.54 4.97 2.57 4.98 5.46 3.41"/><polygon points="0.2 3.72 0.14 3.73 0.07 3.77 0.1 3.78 0.2 3.72"/><polygon points="29.4 1.99 13.84 10.45 13.84 10.45 13.89 10.45 29.46 1.99 29.4 1.99"/><polygon points="6.21 3.37 6.14 3.37 2.89 5.14 2.92 5.15 6.21 3.37"/><polygon points="1.7 3.63 1.64 3.64 0.77 4.11 0.8 4.13 1.7 3.63"/><polygon points="0.95 3.68 0.89 3.68 0.42 3.94 0.45 3.95 0.95 3.68"/><polygon points="9.96 3.15 9.89 3.15 4.66 6 4.69 6.01 9.96 3.15"/><polygon points="12.21 3.01 12.14 3.02 5.72 6.51 5.75 6.53 12.21 3.01"/><polygon points="11.46 3.06 11.39 3.06 5.36 6.34 5.39 6.35 11.46 3.06"/><polygon points="13.71 2.92 13.65 2.93 6.42 6.85 6.45 6.87 13.71 2.92"/><polygon points="12.96 2.97 12.9 2.97 6.07 6.68 6.1 6.7 12.96 2.97"/><polygon points="6.96 3.32 6.89 3.33 3.24 5.31 3.27 5.33 6.96 3.32"/><polygon points="32.46 1.81 32.4 1.81 16.83 10.28 16.9 10.27 32.46 1.81"/><polygon points="8.46 3.23 8.39 3.24 3.95 5.65 3.98 5.67 8.46 3.23"/><polygon points="7.71 3.28 7.64 3.28 3.6 5.48 3.63 5.5 7.71 3.28"/><polygon points="14.46 2.88 14.4 2.88 6.78 7.03 6.8 7.04 14.46 2.88"/><polygon points="9.21 3.19 9.14 3.19 4.3 5.83 4.33 5.84 9.21 3.19"/><polygon points="30.96 1.9 30.9 1.9 15.33 10.36 15.39 10.36 30.96 1.9"/><polygon points="44.04 5.69 44.01 5.67 37.84 9.03 37.91 9.02 44.04 5.69"/><polygon points="44.39 5.86 44.36 5.84 38.59 8.98 38.66 8.98 44.39 5.86"/><polygon points="44.74 6.03 44.72 6.02 39.34 8.94 39.41 8.93 44.74 6.03"/><polygon points="45.1 6.2 45.07 6.19 40.09 8.89 40.16 8.89 45.1 6.2"/><polygon points="45.45 6.37 45.42 6.36 40.84 8.85 40.91 8.85 45.45 6.37"/><polygon points="42.63 5 42.6 4.99 34.84 9.21 34.9 9.2 42.63 5"/><polygon points="42.98 5.17 42.95 5.16 35.59 9.16 35.65 9.16 42.98 5.17"/><polygon points="43.69 5.52 43.66 5.5 37.09 9.07 37.15 9.07 43.69 5.52"/><polygon points="45.8 6.54 45.77 6.53 41.59 8.8 41.66 8.8 45.8 6.54"/><polygon points="42.27 4.83 42.24 4.82 34.09 9.25 34.15 9.25 42.27 4.83"/><polygon points="43.33 5.35 43.3 5.33 36.34 9.12 36.4 9.11 43.33 5.35"/><polygon points="48.28 7.75 48.25 7.73 46.84 8.49 46.91 8.49 48.28 7.75"/><polygon points="46.16 6.72 46.13 6.7 42.34 8.76 42.41 8.76 46.16 6.72"/><polygon points="48.98 8.09 48.95 8.07 48.35 8.4 48.41 8.4 48.98 8.09"/><polygon points="49.34 8.26 49.31 8.24 49.1 8.36 49.16 8.36 49.34 8.26"/><polygon points="33.21 1.76 33.15 1.77 17.58 10.23 17.65 10.23 33.21 1.76"/><polygon points="48.63 7.92 48.6 7.9 47.59 8.45 47.66 8.44 48.63 7.92"/><polygon points="46.51 6.89 46.48 6.87 43.09 8.71 43.16 8.71 46.51 6.89"/><polygon points="46.86 7.06 46.83 7.04 43.84 8.67 43.91 8.67 46.86 7.06"/><polygon points="47.22 7.23 47.19 7.22 44.59 8.63 44.66 8.62 47.22 7.23"/><polygon points="47.57 7.4 47.54 7.39 45.34 8.58 45.41 8.58 47.57 7.4"/><polygon points="47.92 7.57 47.89 7.56 46.09 8.54 46.16 8.53 47.92 7.57"/><polygon points="36.62 2.09 36.59 2.08 22.08 9.96 22.15 9.96 36.62 2.09"/><polygon points="36.98 2.26 36.95 2.25 22.84 9.92 22.9 9.91 36.98 2.26"/><polygon points="37.33 2.43 37.3 2.42 23.59 9.87 23.65 9.87 37.33 2.43"/><polygon points="37.68 2.6 37.65 2.59 24.34 9.83 24.4 9.82 37.68 2.6"/><polygon points="36.27 1.92 36.24 1.9 21.33 10.01 21.4 10 36.27 1.92"/><polygon points="38.04 2.77 38.01 2.76 25.09 9.79 25.15 9.78 38.04 2.77"/><polygon points="35.92 1.75 35.89 1.73 20.58 10.05 20.65 10.05 35.92 1.75"/><polygon points="33.96 1.72 33.9 1.72 18.33 10.19 18.4 10.18 33.96 1.72"/><polygon points="34.71 1.68 34.65 1.68 19.08 10.14 19.15 10.14 34.71 1.68"/><polygon points="35.46 1.63 35.4 1.63 19.83 10.1 19.9 10.09 35.46 1.63"/><polygon points="41.21 4.32 41.18 4.3 31.84 9.38 31.9 9.38 41.21 4.32"/><polygon points="40.15 3.8 40.12 3.79 29.59 9.52 29.65 9.51 40.15 3.8"/><polygon points="40.51 3.97 40.48 3.96 30.34 9.47 30.4 9.47 40.51 3.97"/><polygon points="40.86 4.15 40.83 4.13 31.09 9.43 31.15 9.42 40.86 4.15"/><polygon points="41.57 4.49 41.54 4.47 32.59 9.34 32.65 9.34 41.57 4.49"/><polygon points="41.92 4.66 41.89 4.64 33.34 9.29 33.4 9.29 41.92 4.66"/><polygon points="38.74 3.12 38.71 3.1 26.59 9.7 26.65 9.69 38.74 3.12"/><polygon points="39.09 3.29 39.06 3.27 27.34 9.65 27.4 9.65 39.09 3.29"/><polygon points="38.39 2.95 38.36 2.93 25.84 9.74 25.9 9.74 38.39 2.95"/><polygon points="39.45 3.46 39.42 3.45 28.09 9.61 28.15 9.6 39.45 3.46"/><polygon points="39.8 3.63 39.77 3.62 28.84 9.56 28.9 9.56 39.8 3.63"/></g><polygon class="cls-7" points="0 3.74 0 4.58 13.71 11.27 49.49 9.14 49.49 8.34 13.84 10.45 0 3.74"/><rect class="cls-8" x="21.16" y="1.65" width="0.02" height="1.24" transform="translate(17.57 23.26) rotate(-86.39)"/><polygon class="cls-8" points="21.76 1.28 20.55 0.23 20.56 0.21 21.78 1.27 21.76 1.28"/><rect class="cls-8" x="31.54" y="6.71" width="0.02" height="1.72" transform="translate(7.33 29.16) rotate(-55.21)"/><polygon class="cls-8" points="32.08 5.95 30.7 5.83 30.7 5.81 32.09 5.93 32.08 5.95"/><rect class="cls-9" x="26.25" y="-1.32" width="0.02" height="10.14" transform="translate(10.99 25.44) rotate(-62.99)"/><rect class="cls-9" x="26.25" y="-1.17" width="0.02" height="10.14" transform="translate(10.86 25.52) rotate(-62.99)"/><rect class="cls-9" x="26.25" y="-1.03" width="0.02" height="10.14" transform="translate(10.73 25.6) rotate(-62.99)"/><rect class="cls-9" x="26.26" y="-0.88" width="0.02" height="10.14" transform="translate(10.6 25.69) rotate(-62.99)"/><rect class="cls-9" x="26.26" y="-0.73" width="0.02" height="10.14" transform="translate(10.47 25.77) rotate(-62.99)"/><rect class="cls-9" x="26.26" y="-0.59" width="0.02" height="10.14" transform="translate(10.34 25.85) rotate(-62.99)"/><polygon class="cls-9" points="30.61 6.96 30.59 5.75 30.61 5.75 30.63 6.96 30.61 6.96"/><polygon class="cls-9" points="30.4 6.85 30.37 5.64 30.39 5.64 30.42 6.84 30.4 6.85"/><polygon class="cls-9" points="30.19 6.73 30.16 5.53 30.18 5.53 30.21 6.73 30.19 6.73"/><polygon class="cls-9" points="29.98 6.62 29.95 5.41 29.97 5.41 30 6.62 29.98 6.62"/><polygon class="cls-9" points="29.77 6.51 29.74 5.3 29.76 5.3 29.79 6.51 29.77 6.51"/><polygon class="cls-9" points="29.56 6.39 29.53 5.19 29.55 5.19 29.58 6.39 29.56 6.39"/><polygon class="cls-9" points="29.35 6.28 29.32 5.07 29.34 5.07 29.37 6.28 29.35 6.28"/><polygon class="cls-9" points="29.14 6.17 29.11 4.96 29.13 4.96 29.16 6.17 29.14 6.17"/><polygon class="cls-9" points="28.93 6.06 28.9 4.85 28.92 4.85 28.95 6.06 28.93 6.06"/><polygon class="cls-9" points="28.72 5.94 28.69 4.78 28.71 4.78 28.74 5.94 28.72 5.94"/><polygon class="cls-9" points="28.51 5.83 28.48 4.68 28.5 4.68 28.53 5.83 28.51 5.83"/><polygon class="cls-9" points="28.3 5.72 28.27 4.58 28.29 4.58 28.32 5.72 28.3 5.72"/><polygon class="cls-9" points="28.09 5.61 28.06 4.47 28.08 4.47 28.1 5.6 28.09 5.61"/><polygon class="cls-9" points="27.87 5.49 27.85 4.35 27.87 4.35 27.89 5.49 27.87 5.49"/><polygon class="cls-9" points="27.66 5.38 27.64 4.23 27.66 4.23 27.68 5.38 27.66 5.38"/><polygon class="cls-9" points="27.45 5.27 27.43 4.15 27.45 4.15 27.47 5.27 27.45 5.27"/><polygon class="cls-9" points="27.24 5.15 27.22 4.02 27.24 4.02 27.26 5.15 27.24 5.15"/><polygon class="cls-9" points="27.03 5.04 27.01 3.93 27.03 3.93 27.05 5.04 27.03 5.04"/><polygon class="cls-9" points="26.82 4.93 26.8 3.81 26.82 3.81 26.84 4.93 26.82 4.93"/><polygon class="cls-9" points="26.61 4.82 26.59 3.71 26.61 3.71 26.63 4.82 26.61 4.82"/><polygon class="cls-9" points="26.4 4.7 26.38 3.62 26.4 3.62 26.42 4.7 26.4 4.7"/><polygon class="cls-9" points="26.19 4.63 26.17 3.5 26.19 3.5 26.21 4.63 26.19 4.63"/><polygon class="cls-9" points="25.98 4.53 25.96 3.4 25.98 3.4 26 4.53 25.98 4.53"/><polygon class="cls-9" points="25.77 4.41 25.75 3.3 25.77 3.29 25.79 4.41 25.77 4.41"/><polygon class="cls-9" points="25.56 4.29 25.54 3.17 25.55 3.17 25.58 4.29 25.56 4.29"/><polygon class="cls-9" points="25.35 4.14 25.32 3.08 25.34 3.08 25.37 4.14 25.35 4.14"/><polygon class="cls-9" points="25.14 4.03 25.11 2.96 25.13 2.96 25.16 4.03 25.14 4.03"/><polygon class="cls-9" points="24.93 3.91 24.9 2.85 24.92 2.85 24.95 3.91 24.93 3.91"/><polygon class="cls-9" points="24.72 3.85 24.69 2.75 24.71 2.74 24.74 3.85 24.72 3.85"/><polygon class="cls-9" points="24.51 3.75 24.48 2.65 24.5 2.65 24.53 3.75 24.51 3.75"/><polygon class="cls-9" points="24.3 3.63 24.27 2.55 24.29 2.55 24.32 3.63 24.3 3.63"/><polygon class="cls-9" points="24.09 3.52 24.06 2.42 24.08 2.42 24.11 3.52 24.09 3.52"/><polygon class="cls-9" points="23.88 3.41 23.85 2.33 23.87 2.33 23.89 3.41 23.88 3.41"/><polygon class="cls-9" points="23.66 3.3 23.64 2.23 23.66 2.23 23.68 3.3 23.66 3.3"/><polygon class="cls-9" points="23.45 3.2 23.43 2.12 23.45 2.12 23.47 3.2 23.45 3.2"/><polygon class="cls-9" points="23.24 3.08 23.22 2.02 23.24 2.01 23.26 3.08 23.24 3.08"/><polygon class="cls-9" points="23.03 2.98 23.01 1.91 23.03 1.91 23.05 2.98 23.03 2.98"/><polygon class="cls-9" points="22.82 2.86 22.8 1.8 22.82 1.8 22.84 2.86 22.82 2.86"/><polygon class="cls-9" points="22.61 2.75 22.59 1.69 22.61 1.69 22.63 2.75 22.61 2.75"/><polygon class="cls-9" points="22.4 2.64 22.38 1.59 22.4 1.59 22.42 2.63 22.4 2.64"/><polygon class="cls-9" points="22.19 2.52 22.17 1.47 22.19 1.47 22.21 2.52 22.19 2.52"/><polygon class="cls-9" points="21.98 2.42 21.96 1.37 21.98 1.37 22 2.42 21.98 2.42"/><path class="cls-10" d="M30.83,7.08h0l-9-4.76h0l0-1h0l9,4.59h0l0,1.21h0Zm-9-4.78,9,4.75,0-1.19-9-4.57Z"/><rect class="cls-11" x="32.19" y="5.89" width="0.04" height="2.89"/><rect class="cls-11" x="20.53" y="0.22" width="0.04" height="2.89"/><circle class="cls-12" cx="32.21" cy="5.82" r="0.16" transform="translate(5.31 24.46) rotate(-44.97)"/><circle class="cls-12" cx="20.55" cy="0.16" r="0.16" transform="translate(5.9 14.57) rotate(-44.97)"/></g></g></g></svg>